<mxfile host="app.diagrams.net" modified="2022-09-15T13:42:23.229Z" agent="5.0 (Windows NT 10.0; Win64; x64) AppleWebKit/537.36 (KHTML, like Gecko) Chrome/105.0.0.0 Safari/537.36" etag="wZ9--KZKgrH5XE6MTjId" version="20.3.1" type="github">
  <diagram id="rJ0aZCPC_T9hAvii4GM2" name="Page-1">
    <mxGraphModel dx="2424" dy="1921" grid="1" gridSize="10" guides="1" tooltips="1" connect="1" arrows="1" fold="1" page="1" pageScale="1" pageWidth="827" pageHeight="1169" math="0" shadow="0">
      <root>
        <mxCell id="0" />
        <mxCell id="1" parent="0" />
        <mxCell id="5MziBYs-ehu7VpEonlfA-1" value="" style="shape=image;verticalLabelPosition=bottom;labelBackgroundColor=default;verticalAlign=top;aspect=fixed;imageAspect=0;image=data:image/png,iVBORw0KGgoAAAANSUhEUgAAA84AAAKfCAYAAAC/sJG+AAAAAXNSR0IArs4c6QAAAARnQU1BAACxjwv8YQUAAAAJcEhZcwAAFxEAABcRAcom8z8AAP+lSURBVHhe7J0HeBVV+savvZd1m6uudV3rqv/VdbF3sa1tXde2ir2AgIiChaZIV7HQQZDee4cQQu+9t4ROCC2EkEL5/uc9d044mcwNgVzunTt5f89zIDNz7sycOuc93ykhIYQQQgghhBBCSEQSSjinpKTIW2+9Je+9917Cu3feeUcqVKggW7ZscUJHCCGEEEIIIcSPJJRwbtSokXz55ZeycOHChHdDhgyRc889V+bNm+eEjhBCCCGEEEKIH0ko4fztt99Kly5dnKPEZt26dXL11VfLggULnDOEEEIIIYQQQvxIQgnn7777Tn755Rf994EDB2T8+PHSt2/fhHEDBgzQ1mawcuVKueqqqyicCSGEEEIIIcTnJKxwxtzgW265RerWrZswrnLlyvLMM8/o91+1ahWFMyGEEEIIIYQkAAkrnNPS0uTtt9/WfycKO3fulDfeeEP/TeFMCCGEEEIIIYlBwgrntWvX6lWpE4k1a9bI66+/rv+mcCaEEEIIIYSQxIDCOYZQOBNCCCGEEEJI4kHhHEOCLpzz8/NlwoQJOkwHDx50zobBMHXsw40F3ZKTk2XMmDF6ZXGb9PR0GTlypF44LRLLly+X0aNHF/ktIYQQQgghhBwrKJxjSNCF8/Dhw6VSpUrSsGFD2bdvn3M2zLJly/S1wYMHS1JSkk7Lr7/+WqcjyM3N1WlbrVo16dmzpz7nZvXq1dKkSRP54IMPZNSoUc5ZQgghhBBCCDm2UDjHkCAL540bN8rPP/8sPXr0kG+++aaIcMY2XDifk5Ojj/Py8nRaNm/eXB/v2rVLatWqpUU1zu/YsUOft/nhhx/0ll7t27eXpUuXOmcJIYQQQggh5NhC4RxDgiycO3XqpC3O8+fPl/r168vevXudK6KHbXft2rWIlXjgwIHSokUL/XdmZqbUq1dP5s2bpy3RS5Ys0ecNGObdsWNHPcS7devWRYaCE0IIIYQQQsixgsI5hgRVOGMYduPGjbXVGJbkdu3ayaJFi5yr4bnPderUkVmzZjlnRNavXy81atTQc5bBnDlztLiGpRnC2/79tm3btKjG/xDfzZo1c64QQgghhBBCyLGHwjmGBFE4QxTDajxu3DjnjEiHDh2kT58+zpHI/v375auvvpJevXppkT1kyBA9V7lv375aaANYkTH/GWCOs30/WLPN/fDbzp07678JIYQQQgghJBZQOMeQIArnSZMmSe3atbUgTk1NlbS0NPn+++/1XGcDVsBG2nXv3l0L4F9//VUPvbb58ccftbAGM2bMkAYNGui/cd9GjRrpVbkx/LtVq1ayePFifY0QQgghhBBCYgGFcwwJmnDOysrSaYJFvZo2baoFLoZs16xZU/r16+f4Ev03FvSKBBYSa9u2rUyfPl0fY0g3LNQYtg0RDiENsKo2hndnZGToY0IIIYQQQgiJBRTOMSRowhl7NmOlbMxXxvxmOFiGMQ8ZQhlbTAEMrW7ZsqX+2wvMZ4bF2fjHvOdvv/1WC+42bdrood4A8ffFF1/ouc6EEEIIIYQQEisonGNIkITzli1b5MsvvyywEtts2rRJC9wVK1bo1a8hojGfORIjR47Uw73NStnYsgpC+qOPPtLDvA0TJ07UK2u7t7oihBBCCCGEkGMJhXMMCZJwnjZtmp7HjMXB3GAuMizFmO8MEQzLMcR0JGbPnq2t0gcOHHDOiIwYMUIvBGbENK7hedjuihBCCCGEEEJiCYVzDAnaUG1CCCGEEEIIKQtQOMcQCmdCCCGEEEIISTwonGMIhTMhhBBCCCGEJB4UzjGEwpkQQgghhBBCEg8K5xhC4UwIIYQQQgghiQeFcwyhcCaEEEIIIYSQxIPCOYZQOBNCCCGEEEJI4kHhHEMonAkhhBBCCCEk8aBwjiHRFs45OTlFXH5+vhw8eNDxQQghhBBCCCGktFA4x5BoCeft27dL165dpXPnztKtW7cC16VLF2nTpo1s3rzZ8UkIIYQQQgghpLRQOMeQaAnnFStWSLVq1fT9du7cWeBWr14tVapUkZUrVzo+CSGEEEIIIYSUloQVzmlpafL222/rvxOFbdu2yRtvvKH/Lo1wxm8/++wz2bVrl3MmzMaNG6VJkyaydetW54zoodvTp0+XHj16yPLly+XAgQPOlcJkZ2dLenq6bNiwQbKyspyzos/Z97PJy8uT9evXy8CBA2Xq1Kmyb98+50oYDBlfvHix9OrVS+bMmeM5hDwjI0OGDh0qI0aMkNzc3CJ+8Hvcf9OmTfrYfhf8vXfvXv3uo0aNkvnz5ztXwp0L/fv3l8zMTOfMIfbs2aP947m7d+92zhYG98X9ER/olLDBbyZPniyDBw/WHTjucBNCCCGEEEKCRcIKZ4jEcuXK6SHLGKKMYct+dnhPiNonn3xSv39phPPYsWOle/fuRQQbhGLfvn2dI5HU1FRp2rSptGvXTg/hbtCggX4PWzxDqOI3P/zwg/Tr10/7GTJkiL6G+yNux4wZo49tcI+ePXtqQd6+fXv59ttvpXXr1rJ//359HcITaYVreHaLFi30McQ2wL0hiFu2bKnPw0+jRo20EDXgPfBebdu2lVatWsmAAQNk5MiRzlXRw9MHDRqk3x9hxLtDgCMeEOc///yz/PTTTwWiG8ycObPgXfAbvDPEsQ3it1mzZjo+kOc6deqkz+Pdca5jx476/nj3OnXq6E4cQgghhBBCSHBJWOEM4QXh07hx44RxELHDhg3T74/h1EcjnCFMcS9YeN3g/rCCAlijEV8QekbMwgoLoQcrrgHXIUphOQb4e/To0fpvDP2GgISF1W0JhnA2vwGwKH/11Vf6WbiG+0BUG5EOcVq7du0Ckblo0SJ9b2M1x8JmH330kbaKg/Hjx0vDhg31fG6A33388ccyceJEfYznQBQjPxgrNARu1apVtXgGePbnn38ukyZN0seIa4hz22qNuIRF3IDn4r3McHdcM9cXLlyo4xiWcQDL9SeffFLwzoQQQgghhJBgklDCGVbNPn36OEeJDQThtddeW2h4cUmAGIQAnTBhgnPmED/++KMefgxmzZol9erV00O1berWravFIVi3bp22ghuLLMQi7mGGN8+bN08+/fRTbfGFiO3du3ehYcsQ07BqQ2Bj6DMsyGDZsmXy9ddf62HeBgz/hoV29uzZ+hjP+fXXX7XohJsxY4YW2ogXiGhYmocPH679GvAOKSkp+u9p06bJF198UagTAO+JZxhgIf7mm290OPCusJ6jMwFzw5cuXaqt1c2bN9fxAPBsXMf7A8QLRPSWLVv0MYa8w0KN4eUQ7ugMqF+/vh79QAghhBBCCAkuCSWcIabuuOMOqVy5ctQcLIbVq1f3vGYcLJ2H83Ok7qWXXpJTTjmlkPArCbDQogPBiDsDxB2GIJuhzhDQ9rBtANELCyusvQDWaQhDAwQ1BK+xLkN8w39ycrJ2ELZ4NoZhA4hdE3/wZwQ3hl1jGLUNRCYs0nhPWGwhnDHcHNZtDH2GCDbvhc4ECFJj2QV4d1iYIXoBLPewHttgWLgtthFHOIf7YKVxPB9D1SGYMfw8KSmpkPUZ4a1Vq1bBEHiI65o1axaEC4Iev4eAx/8Q3aazgBBCCCGEEBJcEko4Q+hdeeWVcumll0bNnXDCCXLqqad6XjPu9NNPP6yfI3WXXXaZ3HLLLUXm1x4OWFwxRN0MgTZgXi6sxwDWXQjAJUuW6GMD4u/7778v+C3mDMMZYMWGAAYQzxCHZpgzgAUWnQg7duzQxxjCDasyFj2DqEbHBoBwxvxnGwxzxjBxiFhYmGG5NfOdYb2FJRqiHQIZFmJY1c11gHnLGP5tRD0s3LAwG/AeuKc9nxnv1KFDB/03rOk1atQoeHcv0DkAq7R5BoQ3LPRmsTQIaTwT/6ODAnOqzdB4QgghhBBCSHBJKOF8LKhUqVIRy6UbCMLD+YkVsOTaw5ENsKBCyAGIUwg82+oLSy/CYOYIQ+zCqmuEO8Q05jtDgANYXWEVtudS4xkQt7iXvfI2/MLajd8DCGeIWCPQYbGFpdoMIzeLluF/AyzF6BDAvSCiYYE2whlzkzFX2QhlrKKNZ9gdAxD9EOZ2hwKGguM9ABZjg+i352XDrxHJiDPEHwS+Ae9khDGeiaHvZqg4QPy4rfqEEEIIIYSQ4FHmhXPFihX10NvigJX2cH5iBRbDwvBjG4g/CDj7PEQlrM4Y3ozVpREGs+gXxDGuQVibOdCYt4v5zPYe0Bi6DHENoQ5hDGs0FgGD6IbIxfMwzBoCEn+bIdywxmKuMIaB43cY0oxnmaHXeF+EA0IUC3rht+icMAuH4V1gXYbQx3kMy4ZQxkrWAPf/8MMP9fBrA6zFEPVmITSIYtwXw7EBng0RjOHaENOwROPd0QFgrOHwbzoEINoh3k3HgVkB3IQB86HxbhDkhBBCCCGEkGBT5oXzBx98UGCpjYSfhPPcuXOLDO+GWMR8Y3u+LsCiVZjPC2dvmQTxi5Wn7YXDMOwa2z+5hzLD+gtLMqzF9r7RGBINiyyGemOLJzcQtXguhlhjaLMbPBvWb1wfN25cgeg2QJhCrMIPhDZWBDeLdGE4N8S0vUcz5j6bOdIAwhfvhZWvbWAxxjPxewhw3BuLm+Fdbb+wfGPrK2OhRieCeT7A31OmTCmwWBNCCCGEEEKCS5kXzti+CMOIiwOWxsP5IYQQQgghhBASTBJeOMMSiAWcMKz2yy+/LLHDUGUMz73uuuvk9ttv11ZnL3/Yzuiee+7RfjDM18tPcQ7vhfeDlZcQQgghhBBCSOKR0MIZQ4evv/56PdwaK0D36tVLD0HGsGIcY+gxjrH3Mxz+xhBdrPgMPzjGglfwh2HHOMZKzBiajL8xpBf3Mdsx4W8MHzb3xH3wN+6FObzmeRi+DL/Gvf7663LTTTcVGTZMCCGEEEIIIcT/JLRwfvPNN+Wuu+4q2HcXmD16Aeb9QuhivixENq5hGyPsxwshjGPM4cWKyfgbDmA+MP7G3FcAIWz2B8ZWSTjGnFw8F2Id9wJYdAti214tGmA+L/affvXVV50zhBBCCCGEEEIShYQVztWrV5crrrhCL4AFsNrx888/L6FQSP7zn//oIdzYexnHWHwKKybj73LlyumFnc466yx9XLNmTb0qNP6Gw4JRWEkaf2OrKohqcw0rLH/00Uf67/vuu08v0vXggw/KOeeco63NWKkZ12688cYiQ7Oxz/A111yjV4MmhBBCCCGEEJI4JKRwhgi+4IILCu3JixWWYSWGxRdgyyRsP2T23YWlGNZmrEoNsCIyBDWs0bAsw0oNyzFWY4YYx4rK2JoJ2xrBAo1VoiHOsYoytiDCKs4GPMsAa7a9TZIN3vf888/X+wsTQgghhBBCCEkMEk44r1u3Tv74xz/qucMAwhZ7AT/zzDNSpUoVPYS6S5cu8uyzzxZYd7Eq9nPPPSfvvvuuPsa+xi+88IIeOo3fd+/eXV588UXtsNUR5im/9NJL2nIN0Qzr8X//+199TwhwWKVx/amnntLiG78xxxDu2AsY98Yx9iuGGDe0bdtWfve73xVYygkhhBBCCCGE+JuEEs6wDmO483vvvVewfy6E8iuvvCI333yzvPHGG1qkvv/++/r46aef1sK4WrVq+hjDqgFWyr7tttvk7rvv1vdp3bq1PobDXGgsDmaOYY2ePHlywTEs2HiPxx57TN+zXbt22hINUY5jvBus3xjujeMnn3xSW64NeF7lypXlqquuimiZJoQQQgghhBDiHxJGOGOuMbaEwjzm0gBhDLG9f/9+7WAtto9xHc8yxxDBsCCbY/wNP6UFFnAIdwztJoQQQgghhBDiXxJGOGMP5UsvvVQL16MFc5H/8Ic/yGmnnVbgsIDYkRybcxgGDkvz0bJ161a5+OKLpVmzZs4ZQgghhBBCCCF+JCGEM+YRY+VqLNhVGmDdbdy4sRbhpXW4T2n3ZcaCZOeee26pw0UIIYQQQggh5Njhe+E8YcIEbZnt06ePcyZYYBurCy+8UCZOnOicIYQQQgghhBDiJ3wvnG+55Rb5/e9/r4dGV6hQQV577bXAOISnYsWKevg45m8TQgghhBBCCPEfvhfOixYt0qtaYzhzLBz2evY6fywdwmf2lyaEEEIIIYQQ4i8SZnEwQgghhBBCCCEkHlA4W6xfv15Gjx7tHBFCCCGEEEIIIRTOhRg4cKB8/vnnsnnzZucMIYQQQgghhJCyDoWzQ0ZGhtSvX1+qVq2qV7o+cOCAc4UQQgghhBBCSFmGwtlhxIgRUqNGDalVq5bUrVtX0tPTnSuEEEIIIYQQQsoyFM6KHTt2SIMGDeSLL76QOnXqSM2aNbXVmRBCCCGEEEIIKfPC+eDBgzJo0CCpUqWKfPLJJ9rqXK1aNVqdCSGEEEIIIYRoyrxw3rJlizRu3Fjvp4y9lKdNmyazZs2SH3/8UYYNG+b4IoQQQgghhBBSVinzwjkvL0927tzpHIWPQW5urmRnZ2uLNCGEEEIIIYSQsgvnOFtAJO/atYtimRBCCCGEEEJIARTOFhTOhBBCCCGEEELcUDhbUDgTQgghhBBCCHFD4WxB4UwIIYQQQgghxA2FswWFMyGEEEIIIYQQNxTOFhTOhBBCCCGEEELcUDhbUDgTQgghhBBCCHFD4WxB4UwIIYQQQgghxA2FswWFMyGEEEIIIYQQNxTOFhTOhBBCCCGEEELcUDhbUDgTQgghhBBCCHFD4WxB4UwIIYQQQgghxA2FswWFMyGEEEIIIYQQNxTOFhTOhBBCCCGEEELcUDhbUDgTQgghhBBCCHFD4WxB4UwIIYQQQgghxA2FswWFMyGEEEIIIYQQNxTOFhTOhBBCCCGEEELcUDhbUDgTQgghhBBCCHFD4WxB4UwIIYQQQgghxA2FswWFMyGEEEIIIYQQNxTOFhTOhBBCCCGEEELcUDhbUDgTQgghhBBCCHFD4WxB4UwIIYQQQgghxA2FswWFMyGEEEIIIYQQNxTOFhTOhBBCCCGEEELcUDhbUDgTQgghhBBCCHFD4WxB4UwIIYQQQgghxA2Fs4vs7GznL0IIIYQQQgghpITCGVbYDRs2yMaNG7XbsmWL7Nu3T1+DdRbH5hrc5s2bJT8/v+D61q1bC/1+06ZNkpubW3B927Ztha7D5eTk6Otg+/btha7jb1vg7tixo9D19evXy+7du52rIjt37izye9zTkJmZWXB9xYoV+u/09HTnalhM457m93AIw/79+/X1vLy8QtfgcA8TxgMHDmj/9nXcb8+ePfo6cMcRriPeDV5xkJGR4VwVHV73OyJdjPV87969Ra7DmXTE/+5r8I/fAa90xnU7nvE+7ne04xnhsd8B1xFuA+LDKwyIP4D4tO8Ph3g1eQ3p4Y5nOBMGgHR1v2NWVpZz1Tue7XRwxzOuI38Z8Cz37+04QBjMNXMd+d+kE/KSHQZcRxyZOMB1lC/7Hjg215GO7nSCM+mMOHJfxzNMeStJOrvLK/5GGTSYdDbhMGEwmHS2w4kw2OXJvr+5B84Dr3TG/ew6wZ3OuH648oRwGVAn4DfmOhzixS5P7neEM/GMPOm+Bv92PLvTEc+z86JXebLzGv6239EdhkjlyYThaMuTXXcjnt3X7fLmVbfb6eRVN9txYNfN5jrOGZAvzTU4hNeOI9zLvo7fu+PIvj+cHUdIL/d1uOLqTfg/XDoXV2/iul2evNLZLk8Iozud7TrBK51xXFw6436xLk/u63gnUydEKk8mLyKs7njG9eK+sfjbDoNXPNt1tzuecR1pFymv4G+77kZeseMZ1xGvJoz431334tiuu93pYJdXPMcdRjhTb+I9vfKanc7u8orrR5LOyNfu5+Od7XR2X0cYDldvFpfOeEe7znDHAa7bdQLKljsdj6Q8edUJODbp4FUn4H6mXkRcuNMZ1+16zZ0O+NvOi+Yba1+3w+DVZrXDgDxhXzPO5BX4c9cJeIZdt3vlNTsd3O1yOLvew9/uMNh5zV034287HRFGc81ct+MI7+oub3YcIR3dYXTHkfs6nF1vetU5dhy5v49Hms7uehPXcU+DSWf7PfG3qVMQBvv+5h52eXKHEfcrrt7E9cOVJ9QzhkjlKVK9aVxx5Qn+7W+sV3my8+Lh2lLId+vWrSuU/4rjsMIZCdOvXz/55Zdf5Ndff5X27dvLiBEjCgWqd+/eBdc7dOgg/fv3L1RJDBs2TP8O1zt27Cjdu3cveGlcT05Olnbt2unrnTp10n4QsYZp06YVXIfD36tWrXKuisydO1c/11xv27atzJkzx7kqsnTpUn1f+/dJSUnOVZG0tDTp0qWLfi7CgXsNGDDAuRrOOD169CgII/x17dq14IODCqBv374F1+FwDxMGxNHQoUMLXcc74r0MY8eOLRKGqVOnOldF/23iEA5/jxw50rkqsnjx4kLX8Sy8k/kgISPZ90d8IMwmo+D/zp07F4on+MfvAO7jDiOet2jRIn0d4H3c7zh58mTnajgMCJe5jvsj3AbEh/s68o4JAwqHHQa8C/KaKSBID6QL0sdc79WrV6EPO9LV3MOkIwqRYdy4cYXyItzq1audq6Lzlfsd7ThITU0tklenT5/uXA1XpHiuiWdcR/43lQjKBcqHCQPiEHnHVOao0FAeTRhMGE1FiP8RZ+a6CYMpb4hLxLmdTniHtWvX6ut4j4kTJxaKZ4R33rx5+jqYPXt2oXxgwmBYtmxZoTDiXoMGDXKuiq6g7LwGv926dSuoM/DhwLG5jv/xPPPBQIWJOsfEERzeEZ1eBsSZOwwzZsxwroqkpKQUyatjxoxxrooOr53OeD7yjvkgoc6wf493xDubvIiPiTlv/OB98ZECqD+RbnY84u+VK1fq68CuN811Ox1QttzviLrSgDrBvo74QDqZvIR3se+P66jbTeMJYUEdYcKA6wMHDiz4qOI+KH8mnhG+nj17FhJ9yGumPOA+uJ+7bne/45o1a5yrIgsWLCj4PRz8Lly40LkqOr7sOMR1u9505zWE1643UafY5Q336tOnT0Gdg3oRx+YZ5j6m3kReHDx4cEEcwOF98VyAOBo9enSh63hHhMvgVd6QPw2oc+zr+BvPNCAO7OsmHUydgDDaZQVhgDP1IupNOw7gEE+m3kOdgHS3n4Ew2t9YfE/tvIS/7Tph1qxZhdIZ8TlkyJCCeg/Psq/jXfC9MXUC3hXnTPzjb3yTTV5DWHFswoD/UbejkWTA88w7mvvY7Qikg/sd7LyGv+3ruBfqFBMGfCvdcYB0NHUGGsFeedHkNeQlO68hvlG+TDrCH+o18wy8H+oc0xDHc+x0wHNwL1Nv4j1RZ9jviPDYdY67bsd1u95csmRJwfvDIR8gfxtQL9phxL3wvTJ1DtpSdl6DP/g3ggp1DuLAXIfD+5pvNOIA3xL3O9rfYK/y5m6H2HUK/A4fPty5Gm6H2NfxLvjemHoR9ab9fBMG841FWJD37HiCf7tOsNvUcAijndcQBjud8I52vYY0sfMi7mWXN6Sp+zrqdpPXkA44Z94R90cZN21a5EV3vYg4sOt2u94zedF838D48eML4hHPgUP7yDB//vxC74jw4ptlQNl059WZM2c6V0XnCXNfXMez8EwDxJK7LYU6wIByY6cD/KEOMemMugf+TRjxHPgx9Sbi0p3X8A52e9GrbkddaPBqS7nbxOb94XAvtENMnYM8ZccB/CLvmW802lL2NxwOzzPfYNQtXm0pW5vY7Ulz3W5nTJo0qVA6wu+oUaOcq0XrTTwf8W7yIsJgpzPeFXnJ1An41prz5n+UNxMG1HvubzScnQ5ubYLw2uUNZat169b6vSZMmKB/a+LYC0/hjMJhhDEKEgohAgGHzGaUPsDNUdnZ103hM+AY540f+LdfCvezr8OZihYgI9vX8bd5P4AEcF83HxuAe5lr5rrdKwSQ0XAeH1r8b/e4AHcY4Oww4H72dfxtPpjAHUb8bYcB7+u+bscz4sBcM9fteMa97OtwdhjwLu7rSAcTz/jfTkfj7DDgfu7rdhjccQBnp4NXHNhhxL2Ku453cV+30xHpYa6Z6+68aNLZXHens1cY7HT2Sic7jrzyoh1HXnnRDuPRlicbdzzDHa48mUoMeIXBfEyAOy/hup0O7ryE63Y847o7L8G/iWf875XXTDzjOuLAvoZnFJcX8ffh8qIdBnccwdnpgDiyr8HhnU0Y3OkMhzDaYbDjyDg7Hdzp7L7ulc52HHilszsd3dcPV2/aeRUgzPY97HQG7nSw0xkcrjx51Ql2GL3yoh0Gdzzjurs8HWkY4Ozy5JWX7HQ6XDrgb3PNXLfjGeF1Xz9cXrTj2R1HxpUmL7rD4FXe7DC40xnOLm/udIazw+iVzrhuwuiVznZ5BO4wwH9x6QhnX/dKRzuO8Lf7uh1HJS1P9nU7DoBXGOwwesVzNMsTwuCOZ/sdvfKSXZ5w3R0GOBPPXtfxtx3PyDf2b3HdjmfEqfv64fKiHQavvGjnJa/yZOcldxwZZ6eDnc7G2engFUd2GL3CYF/3Smc7Hb3S2Y4jdzriul1eAcJgnoH/7XQGh6s3j3V58gqDnc7AHc/wb9IZ4H72dTg7Hb3CYKfj4dIBYTTXzHU7nvEsdxjseHZfh7PDcLi8CH/uvOgOgzsd3WHwiiM7DO44grPTwR0HcHgnOwzu6wiTnZfcYcB1O528ypN93YQBRh90zKHj2e50dVNEOMN6ix4Ku2epLIEIJ4QQQgghhBBSdoA1290RZFMgnKHeMQyiTZs2ehiZrcbLCujhwLAA09NBCCGEEEIIIaRsgekDmBphW7gLhDOGY0M023MMyhoUzoQQQgghhBBStsH6CdDG9loQWjjDuoyFcexJ62URCmdCCCGEEEIIIbA4YxE1M3y7wOJsTwYvq1A4E0IIIYQQQgiBYMYK7WbV9iKLg5VlKJwJIYQQQgghhABsn4atqqAPQ1hWfPny5YWWgS+rUDgTQgghhBBCCDGYBcJCmPiM7afs/c/KKhTOhBBCCCGEEELchAYPHizz5s1zDss2FM6EEEIIIYQQQgxZWVmyadMmCXXt2lXWrFnjnC57uEXy3r17nb/C1+y9uwghhBBCCCGElB2wJVWnTp0k1L59e1m9erVzuuyB3oPk5GRZunSpjodly5bpyIEVfubMmYWENCGEEEIIIYSQsgOMzNDMoZSUFFm1apVzuuwB03urVq2kcuXKUrt2balfv77UrFlTqlevLnPnznV8EUIIIYQQQggpa0A4//LLLxLCcOSyvqL2nDlz5PPPP5cvv/xSatWqpYVzu3btONeZEEIIIYQQQsowBRZn57jM07JlS/nss8+kTp06+n8M3SaEEEIIIYQQUnaBcO7Ro4eEMjIyOI9XsWTJEm1p/vTTT/Xk7/379ztXCCGEEEIIIYSURfLz8yU7O1tCv/76q14Mi4juSahbt65s3LjROUMIIYQQQgghpKwTgnU1Wqtqw3KNBbVmz56dcA7vjbHrGKaNOc9efhLBbdmyxUkNQgghhBBC/A3WWtq8ebM2XGG3G9vh3M6dOx2fhMSH3Nxc2bVrV9jiHC3hPHnyZAmFQgntTjzxRM/zieKef/55nbiEEEIIIYT4GSzEO2HCBD1VskaNGnrapHFYuBfnO3bs6PgmJD5AK3ft2jW6+zgPGDBA3nzzTZkyZUrCOoh/r/OJ4JCW5cqVk+3btzspQgghhBBCiD/ZvXu3fPXVV9KhQwe93hAW5zX/L168WH744Qdp0aKF45uQ+FCwqvaIESNkxYoVzunS0adPH2ncuLFzRGINKpi77rpLduzY4ZwhhBBCCCHEn2D4K6zLixYtcs4cAsO3sVXsoEGDnDOExIeCfZzz8vL0KmHRoG/fvrrXiMSHGTNmUDgTQgghhJCEYNu2bXp9oeXLlztnDoHFiyGqMdfZgHWIevbsKZmZmfp/WKSxXpNX23fcuHH6euvWreXHH3/Uo0rdYH2mwYMHa6t2q1attDiy74Vddrp06SLTp093zohs3bpV2rRpI+vWrdPHsJrjHuvXr5ekpCT56aeftMP6SWD+/Pn63nhG7969C+1mtGHDBmnbtq2sWrXKORMevj5q1Cg9kteAe2GoMH4LvYVwwQKalpbm+BAZP358kU6GPXv2SLdu3WTIkCH6vuDAgQPaH+IE4cC7LliwQJ83YN2kZs2a6fi2werSw4YNk59//lmLSZusrCzBFGDcD9v8zps3T8cLRsUacnJy9D3x/ng2HNJn4cKFjg9/ckz2caZwji8UzoQQQgghJFEYPny4ntvsNW0UYhqi2l4cDAIQgg4itFevXlp71KpVSwswCDcDhCfmSGPHHIg3COKPP/5YC1sD2svfffedfP/991pI4t7169fXIhcCD8ASjvebOnWqPgYQevBnpkZi9G7z5s21AIZw7NevnxaG33zzjX4/iEiMysU7Vq5cWfs3QAzXqVNHi3EDFvrFuTFjxjhnREaPHi1ff/21fgaEPO5bu3Zt/f4mfiCQ8R42uFfVqlULhKnpCMD79e/fX4tg3BP3QmcEwP+4zxdffKHjzmbWrFlSrVo1HQ4IYwNGDnz77bc6rAg/4r1Bgwby4YcfFoh5CHd0ciDu8P5Dhw7VcY50mThxovbjV9CxgXcPIWNgNbtoQOEcXyicCSGEEEJIogChBUHpXtgW1k9YlCEgIcoArNMQj40aNSpkoYRl+aOPPioY7j1t2jT55JNPZNKkSfrYAGEJMQdgOW3Xrp0WzfjbAJEHEZmRkaGPIe4g1A0QjngnWIoNEL9VqlSRkSNHOmfCQguCsGnTpgXvD2sxxDQEqwFzuyG2bdCJALGenp6uj/E7vCu2zE1OTtbnAOaB4xnGso34wrvacQlthncwohjhg9i2rcuw7OM+RoDDko7njx07Vnc4mJHJeA/EF4Q/9B4s6QaEA8LZdDgAky64D0D6IAxr167Vx4Z69eoVSSu/gThAeoTQW+M2tR8tFM7xhcKZEEIIIYQkCrAcw0LpBmIWmmLgwIEFQ4yxNRUEsdsKimHFEH4Q07Co4p4YSuwGQ5khugFEOIaBQ+zCso3fQhQ3adJE3988E39DjOLZGOoN0QwrrU3nzp21OLWnvkIk4l1tSzrEOESiHV4M/3ULZ6w9BeFqxDusxnhXCH8biGFYhc1w6pSUFG1lNx0IELGIQ4h/gPtAuOKZy5Yt02FG3GF9KnRgmCHkCDM6M/AesOabIekQwBiGDUs77mMszhgujvdFh4UNVkuHddnEC6z28Ie4NEAwI05SU1OdM/4mhCXe7XH1pYHCOb5QOBNCCCGEkEQAVltYd20LrAECGJrCFmPwD+EFAWgD/QEhB6EJayaGd9vzag0Yvt2wYUP9N8QvFh6DBRhWbAhEDE+GFRXPBrDcQtRC2MFKi62xYPE1ohpgATOIQ3s+Mqy5GP6M+9kWWAxHxnPMvGTMicZ7m6HMBghrWG/N0HNYOhFut6UWQhbnYXkGeF+8KwQrwP84RicBgEitXr26jgOEGZ0AeHd0CGAutAG/wbviHO6PMEL8otMB1m3oDPwWq58DCHrEo7GsG/B+pqMC4B6wnOO3GC6O3+E9cM6OUz+CNMUI7aju40zhHF8onAkhhBBCSCIAcQsxas+VNWBBMAhge+4rxKk99NkA6yiGCgNYUWF1NUOTDRChsCYb6y4sp/gbYg4CEdftIdsAwhZCFwuD4X6wfuP59nxkWGxh9bXFPIQ3xKcZomzA0GUzVBzMnDlT/9beRhbiDGLSngcNizIENgSsDYZRQ9Abiy7EHYSwWcgM4cU7GxCX0GkIC8IMZ6zMBoh6iGCIcQzdRlziuZhvjbndAOmGDg9jeMUQcaSBDRafRscB3s8AYY8OBcQNRjzDEo74NGnnZxAv6NAI4WUpnIMBhTMhhBBCCEkEIOQg9LysjRBVsEzaVlaILFsIAgzxhfg0i37BYgwrqbGyGiBwYW011l6IOvfQZze4N4ZImyHTaF/jHmhvG3BfiEhbdCM8CBeGTtvAyg1RauYXQzhDENtAXGPhLdtiDsHqFpcQs3iuPewbgh3PxT0wBB0C1V4wDRZoiPLigPUb1m6A32LYOyzVEPxGKMNajOHdZk40hDMWVLPBom8YPm/PyYb4hpXfzA+HNR4re2Oou9+BVoZlPIThEV5LwB8NFM7xhcKZEEIIIYT4HYhLzKWFbjBDo22w4Bbm3dpg3jKs0LCoQshAv0DkwXpsFsQyQ7UhcmAFhjUXWy0ZK64R6VjNGXOQMRQcv4VIxJxe23KMocjwYxbpgtCDiMUzzX3M6t225RbzhyHmbYGNLatgAbaHpSMcZqg1wgORifnUuJ+9ijfCDcs8xDT8wWGeMvzawhjvBBGK4dGwlEPU2yCseB46LIylHc82Qhbx4J5zDbGPzgJYiI3gh6Ub/gzdu3fX4UVHAN4NnR4Q8EgHWO0BRhCgE8IOF54NP/iN3ynYxxkRbi/zXhoonOMLhTMhhBBCCPE70B6wYkLoGRFqA/EG8WuAuIP4Nas3Q4RB1MLSCVFqA6szhBysoth2CX5hhbWtwhgSDcsphCSehaHGuJ9Z3RnvhPNYRdoWp7gPrMYAQhrPgMXVFv/Yegri1X4vCHK8hy0SYcmG5RuiGO8BgQyxDoFmBDzeE8OdIVRNWODfLNLlBr/HFlB4BzcYoo0wQQjjfohfbC1l5ljDwg6LsL14F8Q8xK1ZIAwgDWxrPSzRiBOTJhDSZmExI8rREYKw2nGCRczwPAh4vwPhjHBzH+cAQeFMCCGEEEL8DgQh5grbi2fZYB6zPU8Zll1YMSFiIbQgOvF7zKX1Ar+HpdhYnb0w7wBrKIY+Y3g3zhlwzS3q8L6mnQ0LLPy4LeZ4R/cca/hx3x/AUo17IDyw+OKe9m/N9lcQp7ASm3BHijcMZYeINcPL3SC+8B4ILxzixljrcc39OzzTPacc7+furMCxeTdjmbbDi+e439m8i/HvZ7BlF4VzwKBwJoQQQgghQQNDq+2FpsoKmCsM67XXcHY3WPEac6Zt6zCJDtBWGC0Qwjj0aEUwhXN8oXAmhBBCCCFBAqIR2+earaTKEpgTfThthWHlsExjiLZ7aysSXfSq2jA/RwMK5/hC4UwIIYQQQoIEhvRir2F7T+eyAuYB21tyeYGhzogbDGd3b6lFogv3cQ4QFM6EEEIIIYQQEj2wyBk6JkIY+kDhHAwonAkhhBBCCCEkemBxNqy8HsKS4RyqHQwonAkhhBBCCCEkehTs44ylwyMtWX6kUDjHFwpnQgghhBBCCIke3Mc5gFA4E0IIIYQQQkj0wOjsdu3aUTgHCQpnQgghhBBCCIkeW7ZskXnz5kkIS5zjIBpQOMcXCmdCCCGEEEIIiT4hmJ25OFgwoHAmhBBCCCGEkOgT+H2ce/bsKc8//7w888wzBe65556TZs2aOT5Ehg0bJq+99pq+9uyzz8q4ceOcK4fYvXu3vPXWWwX3wD0bN27sXPUHFM6EEEIIIYQQEj2wkPa0adMk1KlTp8AK55ycHLnnnnvkT3/6k9x4440F7i9/+Yv8/e9/19fB22+/LaFQSF+76aab5IorrpCXX35ZXzOkpKTIaaedVnAPc8+DBw86PuIPhTMhhBBCCCElJzU1VdauXescFaak7fz9+/fLihUrJD093TnjDVZnzszMdI7CYMrsxo0bnSNvsI/w+vXrnaPoAKOgrQH9pGn8BkZnt27dOiycgzpUOzs7W2677TYZOHCgcyYMMsnjjz9ekHFhbf7rX/+q/wbjx4+X888/XzD/2/DJJ59oS7Vh0KBBcv/998u+ffucM/GHwpkQQgghhJDDk5aWJl27dpXatWtLnTp1pFu3brJu3Tp9DSK1V69e2o8hPz9fxo4dq3WFLTLR/m7Tpo3UqFFDGjVqJIMHDy4wzmEU6+LFi2XDhg36/l9++aV8++23smvXLsnKypKhQ4fqEax4B1g03SxcuFA6duwon3/+udZY/fv3l23btjlXRTZv3ix9+vTRzry7AWK7R48e+jc7d+50zoaZOnWqfPfdd/LFF1/o+0PQDxgwQL8rKUrBPs7oYQnq4mAQznfccYfO+DaLFi3Swhk9LeD111+XK6+8Uv9tuPXWWwsN577zzjulfPnyzpFI7969KZwJIYQQQghJMCCI69WrJz/99JO2EsPiC0E7d+5cfR1iE9dtkbp161b59NNPZcyYMfoY4hkCtGrVqloXwO/8+fOlSZMmWhgD/P3DDz9I27ZtJTk5WT+nfv360rJlS32uS5cuWodBVNesWVNbvw0w4DVo0ECSkpL0vXENAhrTUA0Quu+99552tvDGu2HfYQj5atWqFeoAgIEQ4Rg9erQegoz7NWzYUOrWraut5qQoBcLZOY4KfhXOdgYD6L1xC2cM3zYgE19wwQWFhi/885//lPvuu885Ei3GKZwJIYQQQghJHCAqIWZ//PFHyc3Ndc6KbtMbSzE0zc8//6z/NkBgQ9yaYd0YuQohi1GoNtAfRh/gGbDqLl26VB8DWJmrVKmihasBbXgIcCN+MRoYVmgj5AEs3hDCWNgZYcDwcPOeX3/9tcyePdvxKTJ58mRtUYbI//7772X79u36PCzp1atX15Zzm86dO0uLFi2cI+IG1nt0dFA4KypVqiQnnHCC3HDDDXrI9tVXX617FWwee+wx3WtkoHAmhBBCCCEksYDAhJiNNCwZAhXDl91CEhZfTN2E9RHAKg3dA6utF7BQ16pVq9CUUWgP6Ak4PMeAe0EUGws3NBXEMIx4sBYvWbJEW8chps0UW/we4Zg1a5b+PRwENToDMGoW1nAsAg2hbfQKBHLz5s1l7969+tiAod6wghNv0OGAEQAhiMhoCa1EFc7vv/++nHvuubqn5+OPP9aZ02bSpElyySWXFJq4T+FMCCGEEEJIYoGhzxguHQkI488++6zILjsQlxjSbKy3ENYYYh0J/B5C1x4mjd/Cam2vowQw2hUCF2A+MqzFGDqO++O5w4cPlxEjRsimTZu0H7B8+XI9NxtzmyGm8c4Q01jQGL8/cOCAtjZ3795dC2oA8Y372Rgxj3WvSPGEYHaO1nj2RBXOFSpUkKuuukr/7QUy0+9+9zs9JMKAsD7wwAPOkT+gcCaEEEIIISQyEKGYO2zEpBsIUgzBtuc3Q5BCbGMBLQMstG6NYYMh3BgSboPh3RC4xmptwEhXrNoMcA0Ljc2ZM6dYAx2ELhYlg0DGO2OOMiyj0C0LFizQfmB5HjJkiP4bVuamTZsWEc54DuY8R2ux6CAT6H2cIZxvueWWIr1BmLj/0EMPFQhnbD110UUX6b/dYPgFRDUyGjI7jtEThMyNBcRMr5MfoHAmhBBCCCEkMhC0sBy7gQAFRjjv2bNHH8NwBqttxYoVC81LxvxlL+EMsQtRjmuw/NpMnz69iHDGitvQT0bgQpdhQa8JEyboYy+wIjeGXEN7AcyhhnUbq2i3b9++YBg4hPOwYcP03wgPVvDu16+fPgbQMTgHy7UJLykKNOCyZcuCLZzRs/Lss8/qZeFtEHBYmU0GwST5u+++W/9tg8z01FNPaWvzww8/rLejwjHuCf/XXnuttmjbQzDiCYUzIYQQQgghkZkyZYpUrlxZD6XG6tewzmIFamNQg04wC3WhTQ3LLvQSLLkYBm3AVlYYdo0pnrgPhC6suRDa0BCwUNtCG0DstmrVSvLy8pwzohcAw9xpzIkG0C+wVOP3MNjh3rB+Y3j3vHnztB9YiSHuzfxqzL+GIMd9bMsxRLER5OgYwEJiENO4H0bgYug2hDbmSpuVwElREKd6H2dEFlYKiwZ+E84APS6mB8mAXiB76AP+Nj0zNugNwjZUmE+AzITMiYxmMjGENwQ1Jt/7AQpnQgghhBBCIoP2O8QkRC+GREOkYgEvI2bRzoc+ggiFFRerYGMlbYhnewtfaAIMscYwZwhPDJs2VmIIWSwM5t7yF8O73QY9CHcMHbcX7IIYx5xn3AMCGRZyDBOH5RNAe0AEm+HmWBAMAh8LhNnAKo453QYIb4hphA3hxn2wAjcWQzMripOiQBPq7ahg2sfm2dHAj8K5NMASf9tttxXZNNwGc6WR4fwAhTMhhBBCCCGHB2Jo0aJFnu18iGhoJGNchIHNWIRtYHyDPzjbigwhi0W77PWRAIS0u52OqaXQYm5DH36LYeMQ0Zi7bAMDnttCDFFtb68F8DwM67Yx1mYTbryP/e6kKAXC2TmOCkETzshY6AFyZzgb9Pb4ZTI9hTMhhBBCCCGERA8YUwO/j3NZg8KZEEIIIYQQQqIHLM4jR46UEMbgR2syOIVzfKFwJoQQQgghhJDogWHzGEqvFweL1lBjCuf4QuFMCCGEEEIIIdEn0NtRlTUonAkhhBBCCCEkemDFcyzgRuEcICicCSGEEEIIISR6YHV1bA8Wwj8cqh0MKJwJIYQQQgghJHpgcbAOHTpIaObMmbJp0ybndOmgcI4vFM6EEEIIIYQQEj0K7eN88OBBfbK0UDjHFwpnQgghhBBCCIkeEM7cxzlgUDgTQgghhBBCSPTAHOeBAwdKaOvWrbJ7927ndOmgcI4vFM6EEEIIIYQQEj1ycnL0ytqhzp07axUdDSic4wuFMyGEEEIIIYREn1CnTp24HVVAoHAmhBBCCCGEkOixb98+yc7O5j7OQYLCmRBCCCGEEEKiBxYHwyht7uMcICicCSGEEEIIISR6wMjcvn17CY0bN042bNjgnC4dFM7xhcKZEEIIIYQQQqJHoX2cDxw4oE+WFgrn+ELhTAghhBBCCCHRA8IZo7S5j3OAoHAmhBBCCCGEkOiBHah69eolIezhnJWV5ZwuHRTO8YXCmRBCCCGEEEKiB7Tyzp07JQT1zFW1gwGFMyGEEEIIIYREnxAmOsP8HA369OkjjRs3do5IrFm8eDGFMyGEEEIIIYREmaju4zxgwAB5/fXXJSUlpRg3QSYnj5WJKeP1395+6I7GtWnTRv75z39SOBNCCCGEEEJIFFi3bp3069dPQh06dIiaxXnKlClyyimnyEknnSQnn3yypzvjlBPl+EtultPOOldOOelETz90R+dCoZD873//k9zcXCdFCCGEEEIIIYQcLTAyt23bVkKDBw/WKjoa7N27V5YuXardsmXLPN2MuQvln40my1d9psoKj+t0R+8WLVok27Ztc1KDEEIIIYQQQkhpKNjH+eDBg1Hbx7kkDFqWJce/Plae7LTSOUMIIYQQQgghhPgPCOf27dtHdx/nw5Gz74Bc33iGhN5PktM+HCcjlm53rhBCCCGEEEIIIf4C05q7dOkioby8PMnOznZOH1t6zt0qoYrjJFRlvITeGyvlWy+QfQcOOlcJIYQQQgghhBD/gD2cN2/eHJ7jHK1VtYsjJ/+A/OO72RJ6Z2xYOFdOllClcTJ8Ca3OhBBCCCGEEEL8S1RX1S6OjtOVSq8wSkLvQzgr0QzL82sj5e/NZkm2EtWEEEIIIYQQQogfieo+zpHYlJknX49Kk36z02Xo4u3yVs9l0m1WugxakCHfjEmTEbQ6E0IIIYQQQgjxGRimPWbMGAl17NjxmFuc8/cflOy8/c6RyPcp69XxISuzfY0QQgghhBBCCPED0MqtW7eWUM+ePSU1NdU5HRsajl2rrdCEEEIIIYQQQohfKdjHOScnR/bt2+ecjg0UzoQQQgghhBBC/A6EM9YFi+k+zgYKZ0IIIYQQQgghfgfrgWnhfPDgQcnNzXVOxwYKZ0IIIYQQQgghficjI0NbnUNJSUkx2cfZhsKZEEIIIYQQQkiiEGrXrh2FMyGEEEIIIYQQEoGY7OPshsKZEEIIIYQQQojf2bZtm8yaNUtCnTp1onAmhBBCCCGEEEJcrFy5Ulq2bCmhjh076oNYQuFMCCGEEEIIIcTvFOzjvHXrVtm7d69zOjaURDhjte9du3bJli1bJD09nS7GDvG+Z88eJzWiA9Myfm7z5s1RLeeZmZlMzzg5pOXu3budlIgOTMv4uWiXTUIIIYRElwLh7BzHlJII57Vr18o///lP+fOf/yyXXHIJXYzdhRdeKA888IAsXbrUSZHS0b59e33fiy++uMiz6I6tQ5xfdNFFeohJNEBn2x133MGyGSeHsnnPPffI/PnznRQpHd26dZPLLruMZTMOzpTNZs2aOalBCCGEEL+Bac1t27YNC+d9+/bpk7GiJMJ52rRp8oc//EGweNnQoUPpYuw6d+4soVBIunTp4qRI6ShfvrxUqFDB81l0x9599tlnUr16dSc1SsfChQvlL3/5i3Tt2tXzWXTH1vXq1UuXzVatWjkpUjoefvhhef755z2fRXfsXb169eTdd991UoMQQgghfgOjwxYvXiwhCFQ/Lg42depUufHGGyUrK8s5Q2IJhmmjcd6zZ0/nTOl47LHHombxJEfO6NGjpUaNGs5R6YCl87777pO8PK5TEC9OP/10PYojGqBsNmzY0DkisWbKlCny4YcfOkeEEEII8SshNL5WrVrlHMaGklqcr7/+etm4caNzhsSSTZs2RVU4P/744/Ltt986RyTWDBgwIGrCecGCBXLXXXfpIdsk9mDth9NOOy1qwhlls06dOs4RiTXo1KJwJoQQQvyPb/dxpnCOLxTOwYLCOThQOAcLCmdCCCHE32BRXOxCReFMPKFwDhYUzsGBwjlYUDgTQggh/gajs7G2TKhdu3ayYsUK53RsoHD2PxTOwYLCOThQOAcLCmdCCCHE3xRsRwWzM8zPsYTC2f9QOAcLCufgQOEcLCicCSGEEH/j+32cKZzjC4VzsKBwDg4UzsGCwpkQQgjxN5jW3Lp1awpn4g2Fc7CgcA4OFM7BgsKZEEII8TcbNmyQGTNmSGjhwoWSlpbmnI4NFM7+h8I5WFA4BwcK52BB4UwIIYT4mwMHDuj/QxivzX2ciRsK52BB4RwcKJyDBYUzIYQQkhhwOyriCYVzsKBwDg4UzsGCwpkQQgjxN9nZ2ZKRkUHhTLyhcA4WFM7BgcI5WFA4E0IIIf4GWrlDhw7cx5l4Q+EcLCicgwOFc7CgcCaEEEL8Dbaj0sJ55syZMW8AUzj7HwrnYEHhHBwonIMFhTMhhBDib7iPMykWCudgQeEcHCicgwWFMyGEEOJvuI8zKRYK52BB4RwcKJyDBYUzIYQQ4m/Wr18vY8eOlRBMzxBJsYTC2f9QOAcLCufgQOEcLCicCSGEEH+zb98+/b9eVZuLgxE3FM7BgsI5OFA4BwsKZ0IIISQxCHXq1InbUZEiUDgHCwrn4EDhHCwonAkhhBB/k5ubK3v37uU+zsQbCudgQeEcHCicgwWFMyGEEOJvUlNTpVu3bhJC42vlypXO6dhA4ex/KJyDBYVzcKBwDhYUzoQQQoi/gZG5Xbt2EsIKYbEWpxTO/ofCOTocOHDA+Su+UDgHBwrnYEHhTAghhPgb7uNcAiZMmCAVK1aUN998s8C99dZbUr169SJW+qysLH1+2LBhzplDIKLRMMJvcY8ZM2Y4V0SLj1q1ask777xT6Dnw37t3b8dX7AmScN6/f78WBib+jfvggw90Grvp06ePjv+8PO88ijSrXLmyTtfiWLJkiXzzzTfOUXwJsnA+ePCgdOzYUd5///1C6fvuu+9Kw4YNHV8ikydPlqpVqxbkg7Zt2zpXCvPdd9/pvGHuU6VKFR1/fiHowvnnn3+WSpUqFcQ/3HvvvSc1a9aU3bt3az/o+XXXzXDws3nzZu3HMGfOHP17XEfaIw+MHz/euRp/KJwJIYQQf4N2R5s2bSici6N27dpy/PHHy7XXXlvgrrjiCi0o+/bt6/gKg8Y2zj/44IOSnZ3tnA1Trlw5fQ3h+etf/yp//vOfpUmTJvrapEmT9DWcs5+Dc//5z3+0n3gQJOG8ZcsW+e1vfyuXXHJJoTg+6aSTtAC22bNnj1x66aU67BBaXqSkpOjrV111lXOmMGlpaTJ8+HB5/fXX5fzzz5cOHTpIUlKS7Ny50/ERe4IsnFHezj33XDn99NMLpe95550nF1xwQUEHCMoc0u2aa67R1y+//HJ59dVXi3SQ4HcnnnhiwX3wG/jzC0EXzldffbWOcxP/cL/5zW/0OfM9QL2EutmkJdyVV14pJ598sowaNUr7Adg+4l//+pecddZZ2g/84z5ff/214yP+UDgTQggh/mbt2rW6LR1C7/y2bduc07EhUYQzLMGwathAWEGE9erVyzkTHo4LSwasVGiUzZw507kS5tZbb5XHHnvMORL54osvdOMwJydHizP8ZunSpc7VMGjsvfTSS85R7AmScF61apWO/8zMTOdMGKTDG2+84RyF6dKli7z44ov6fZ944gnnbGFwL6TN7bffrv3bLFy4UC677DItml944QXdmP/888/l5ptvljvuuEMyMjIcn7ElyMIZZRJCF5ZKG0xDQdnDaBDQrFkzOeWUU7SFGgwZMqSQGAO4BuFcr14954zoNKRwjh3okPrf//7nHIXBKBCklbEmI+zuuhk88MAD0r9/f+dIZMeOHTpvYBFMw+9+9zvfjAQBFM6EEEKIv8Gq2uiMD3Xv3l2WL1/unI4NiWRxxvBPG1gNIZztYdQQEmhsw9II8ey2Yv7zn/+URx991DkSmTVrlhZS6enpetg2GoTz5893roaBaKNwjg4YXoH4d3cQYVgnOjxsypcvrxvkEF1///vfdTzY4Pgf//iH3vv8/vvvl5dfftm5IrJ9+3b54x//qIUyGDdunPz73//Wf6MBD/8YkRAPgi6cIYh/+OEH50yYESNGFBLOTZs2lVNPPVX/DWCZRB53pzGEGxaAMPzlL3+R1157zTmKP2XB4myXK9CjR49CwhmjONx1M0AZs4fVo8zjd2ZaBTo5UX9TOBNCCCHkSAlhbiC3o/IGwhlz42wgjtzCGQ32Z599Vv+N35x55pn6bwMa72icGjB/78Ybb9R/G4vzvHnz9LEB/imco4MRzm6hByFpC2f4gyhG2GF5RPgxn8Hms88+00O5AcQ1hn6uX79eH5s4M/Pc+/Xrp0cOGD766CM95DQelAXh3Lx5c+dMGAyXt4Uzrp9wwgm6w+TLL7/UIwIw6sAGoxOQV+yRARTOsQXC2V33oYMXZcsWzu66GaLYLZwRV/gd/AP0FlM4E0IIIeRIQPsBcB/nYiipcL7uuuukU6dO+m804nHctWtXfQxgxTzjjDP0/GbMd77ppptkzJgx+hoWp0LDjsL52FFS4YzFoiCSDLAcY4iuKSyYC/vKK68UDPs0jXAz3x2NesyxHDp0qD52C+dPPvlEz7WMBxTOIj/99JPO05jbjLUKkNbo8LKnSUBI/+1vf3OOwlA4x5ZoCufk5GS59957C/IqhTMhhBBCjpR169bJ4MGDJYQhbLCyxJIgCecpU6bIRRddpK3IDRo00OIQItmeO4t5dxdeeKEWYbiOYbsGCudjT0mEM+YuwA+GUiMd4ZBeiAMsLgYgGHGMVZaNH3SE3Hffffq6GRaKufEAwu3pp5/Wf0Ps3HLLLVKhQgV9HGsonA/Ncd67d68+hojClInbbrtNHwOsvIwFxWwonGNLNIXz888/Lw8//LBzROFMCCGEkCMHWkKvqo1GBubmxpIgCGezOBjm2aGh3bp1a91wb9Gihf4drFrY8wtg+O+TTz6p/3ZD4XzsKYlw3rBhg16VGVbhVq1a6bREAcE8Z/PeWDn9kUce0Y12XMc8WMzFPOecc/Q2OWiUQ0xjcTBYuf773//qBcEwvBujDCA2jWiLNRTOYeFsz3EGTz31lB4JAjCiAOllhvUasDiYexG5eELhXDLhjGOsL+H2h/q7cePGzlH8oXAmhBBC/E3BPs5oXJhVZmNFoghnDNV1Lx4F4Yzhtli5FX/DiugWlxAUGLI7cOBAfQzxBauzF9hPFA3CuXPnOmfCwErC7aiiA0ZUwJKMxdhsPv744wILMPbgxpB6N1jcC/OYAUYSYH6sGwzNx/xlA1bWxsrcd955p+5UwfBuLEyFshYvgi6ckVfd+QtD5tFhYYQzxBL8oaMQAgxD7NHBhfnOEM3o9MD8deQXXIdDnkEaIh+gY8QPBF04I03cdR+mviDtUC8BTKtw180oX8iXZlVt+Ln44otl0aJFOi0xcgTrEaAco4MMuxr4AQpnQgghxN/ACId2F/dxLoZGjRppcWWDYdawQEHwzp49W4tojHu3QQMOAssIMWxfhCGDXkydOlVbQNC4s4Hweuedd5yj2BMk4QyhBOuve1VtbDlkBC9EbrVq1fTfNhiKj+HYWAAO4tvdwQFghfZKX8yv9MsQ3yALZ+zjbEZ92GAdgYceekgLawAhhbKGdMR5rIRft25dfQ1Dd7GvNzrCMC8d1+FQhnFvTMd45plnJD8/X/uPJ0EXzihv7roP6wUg7UznF4S0u25GvYs0wqJ9I0eO1HvjYy47RpsgLdEZibTHyvd+GkVA4UwIIYT4m9TU1HAnPhphGGYaSxJFOMMi4R5aC+s89gOG9QkO21N5WRJxzlhHYPEyjXc3uAfSYP/+/c6ZMPAPQRAvgiSckRaIT/fICjt9cR3znL1A+sBaFek60skrfSGyIqV7rAmycEa6Io3c6YOyhbJn0h1WZfiD1RHO7kjBVAoM2UaY0BFm/MChswxWaZSHSHkgliAMQRbO+B656z6UJYTbTkuvaQ8ob0h3dFxiGD7S2E5LONTZiDt0kvgBCmdCCCHE36DNgfZJCMMVuY8zcRMk4UyCLZyjAUaFwAoZCVikKZwTBwzFNlsEegELNoUzIYQQQo4Evao2xm3HEgpn/0PhHCwonIunSZMmUr9+feeoKH369NErpHOodmKAegvrCkRi1qxZRfbwjhcUzoQQQoi/MaOLuY8z8YTCOVhQOAcHCudgQeFMCCGE+Bvo0XHjxkmoY8eOFM6kCBTOwYLCOThQOAcLCmdCCCHE32DHFWxXG8L+mDiIJRTO/ofCOVhQOAcHCudgQeFMCCGE+JuCfZyx6mys5+1ROPsfCudgQeEcHCicgwWFMyGEEOJvIJw7dOjAfZyJNxTOwYLCOThQOAcLCmdCCCHE32BaM9pdIWyvEustViic/Q+Fc7CgcA4OFM7BgsKZEEII8TcYob1lyxYJDR06VFauXOmcjg0Uzv6HwjlYUDgHBwrnYEHhTAghhCQGIYzX5qraxA2Fc7CgcA4OFM7BgsKZEEII8TcHDx7U/3MfZ+IJhXOwoHAODhTOwYLCmRBCCPE3mzdvlpkzZ0qoU6dOFM6kCBTOwYLCOThQOAcLCmdCCCHE30Art27dWkIdO3bkHGdSBArnYEHhHBwonIMFhTMhhBDibwr2cYYw3bNnj3M6NlA4+x8K52BB4RwcKJyDBYUzIYQQ4m8KhLNzHFMonP0PhXOwoHAODhTOwYLCmRBCCPE3q1atCg/VxiphBw4ccE7HBgpn/0PhHCwonIMDhXOwoHAmhBBC/A3aXitWrJDQ2LFjJTU11TkdGyic/Q+Fc7CgcA4OFM7BgsKZEEIISQz0Ps4wP8cSCmf/Q+EcLCicgwOFc7CgcCaEEEISA+7jTDyhcA4WFM7BgcI5WFA4E0IIIf4mPT1dlixZwn2ciTcUzsGCwjk4UDgHCwpnQgghxN9AK7dt2zY8VBuTnWMJhbP/oXAOFhTOwYHCOVhQOBNCCCH+pmA7qqVLl8qOHTuc07GhpML5hhtu0I1EEnsyMzOjKpwfe+wx+fnnn50jEmtGjBgRNeE8f/58uffeeyU7O9s5Q2LJvn37oiqcUTa/+eYb54jEmokTJ1I4E0IIIT7G9/s4T58+XS6//HLBqt+wcEVyC+fPk4UL5nteozt6l5SUpIVz165dnRQpHeXLl5ePP/7Y81lebuH8uep/pmu0XPPmzaMmnBcuXCg33XSTpKSkeD7L7RbOne2kp/d1uiNzU6ZMkeOPP15atWrlpEjpePjhh+W9997zfJbtFs6ZKQtUfet1je7oXZs2baRSpUpOahBCCCHEb6xcuVJatmzpX+GMxjmE22HdcSd7n6crtfvNb34jM2bMcFKkdNSrV8/zGRHdqWd7n6c7alezZk0nNUpHWlqanHDCCZ7P8HRnXyihE0/3vkZ3VO7ss8/Wlspo0LRpU89nFHF/uEr9f1zR83Sldu+//76TGoQQQgjxG9u2bdOaKDR16lTZsGGDczo2lEQ45+TkCN5twoQJEd3UyRPlvrp95aZqv8qMKZM8/dAdvVu8eLGTGqUnKytLN/S9nmO7ico17z5MznmnqwwcneLph+7IHeJ+7dq1TmqUjry8PF15eD3H7ZLHp8gT346Rp5sMlimTDp/+dCVz6FiMFkjPw5XN7kPGyF9qjpT2A5M9r9MdvUPcYwgYIYQQQvyNXhwM5udYUhLhXBKyDopc1XC+XFp/nmzJdU6ShKdecoYc//5EaTWT89sTnW35Ir/5fLpc2WSBc4YkIr/O2y0nvjlOPhzKxRoJIYQQUjbx7T7OJaFZ8joJvT1GQm+Oli+GrZH9B5SSJglN2o5cObvGRAm9M1Yu/2qqbNjFHpFE5r3eKyT07lg5/r0kaZK0zjlLEondufvk8vrTdDqe9+lEmbU+y7lCCCGEEBJ8MjIy9FTFhBXOmbn75Y+1pkio0jgJfZgsp34yQTZSZCU8FfsqofXeWAlVHa/E8xhpOo5iK1FZsiVbfltzYriMvp8kV9efLluz8p2rJFH4aeIGCX2g0hBl8u0xUnXASnZSEkIIIaTMAK2sV9XGliZ+3Mf5cNQblSbHqcZ4qEqycqpBp/6uMSS2HQAkuszdmCXnQmhVVI10pKn6/8K6U2Xn3n2OD5IoHDh4UCr2XSmhN8eEBZfuCBkrTZKiM8+axIbMnP1yXcMZhzqz0ElZPUVSd+Q4PgghhBBCgg3WIsH05hC2fdqyZYtzOjaUVjivysjRQwZDr46S0AdKPL+n3Guj5KxPJsjKjL2OL5JI5O47KG/0WC6hl4ZrgaXF8ztKdKl0rTMi1fFFEoWFm/ZIqHKyhN4YrdJSlU90cr0+Ws5U5Xbz7tJP0yCxodHYdRJ6ZUR4Sowuk6psvjpSXu221PFBCCGEEBJsfL+PcyRgyeo+e4t8MzxVus5Kl58nbpBfZ2xWf2+RL4aslvZTNzk+SSKxetteeU01xrvO2CLdVLq2mbxJOqs07azS88tha2T9Tg7DTxTy9h+UnyZskKZj1uoyWrnfSmmAv2dukc9VWjZPWe/4JH5m/a5ceafXMukyDfVruvyv61JV326Urur444GrZFpapuOTEEIIISS4rFq1Slq3bp14whnszT/g/CWyPbvwnMkc6xpJHPKV2NpnzZvcnbPf+Uv0fMqcfUzXRAHJuM0ql0MWbZM12w8N7d2RzaH3iQDKXGbOobRqNXmTqnvD5RLldRenUBBCCCGkDIDR2WPGjJHQokWLZOvWrc7p2BCNOc4GWCqz8g6JLBIM1u3IlTyK5UDQY3a6zN3AlZgTnW+T13MBRkIIIYSUWUIYr52Ii4MZKJyDCYVzcKBwDgYUzoQQQggpy4Q6deqUsPs4AwrnYELhHBwonIMBhTMhhBBCyiI7duyQ9PT0xN3H2UDhHEwonIMDhXMwoHAmhBBCSFkEi4N17dpVQtiTauXKlc7p2EDhTA4HhXNwoHAOBhTOhBBCCCmLYDuq9u3bS2js2LGybt0653RsoHAmh4PCOThQOAcDCmdCCCGElEUSdh9nNxTOwYTCOThQOAcDCmdCCCGElEUwrblt27YUzsSfUDgHBwrnYEDhTAghhJCyCEZn9+3bV0Jr166VXbt2OadjA4UzORwUzsGBwjkYUDgTQgghpKxy8ODB8HZUZWUfZywljk4Cuti73bt36wxXUooTzvv37/d8Bl1sHMpRfn6+kxqHpyTCeefOnZ7Pojv2rqRlsyTC+cCBA5KZmen5HLpj71A2c3Oj27nBshk/h7J0JN/Nw4Gy7vUcOjq6sEN9F0327dtH7RFnB80QTcrEPs579uyRDz/8UC6++GK59NJL6WLsEO833XSTYCG6klKccF6yZIlcddVVcskll3g+j+7YugsuuECqV68ueXklK8PFCWc08qtWrSqXXXaZ57Pojq1D2bzhhhtk8ODBTopEpiTCGds1XHPNNSybcXIom/jWRaOhgHt89tlncvnll3s+i+7YOpSh66+/Xnr16uWkSOnA6EJ8h9kOoqOL7FDu3n33Xdm7d69Tco4eiOYvv/xS18tez6I79u7KK6+UuXPnOilSOtDxiM7MMrGPc2pqqoRCIalWrZr06NGDLg7u2muvlaZNmzopcniKE86jR4+Wxx9/3PM5dMfeNWrUSG6++WbZunWrkyLFU5xw3rZtmy6bb731luez6I69u+666/TH/XCURDgnJyfLQw895PkcumPvvv/+e7n77rv1x720oOF40kknycsvv+z5LLpj78qVKyeVKlVyUqR0oOP6nnvu8XwOHR1d2FWsWFG3STZu3OiUnKMHQuvOO++Ur776yvNZdMfePfPMMzJw4EAnRUoHtm7u3bu3hLC0NqwEsSTWwhk9rSgISUlJzhkSa55++mlp1qyZc3R4ihPOQ4cO1RURiQ8oT3fddVdUhPP27dt12ezZs6dzhsQalM3atWs7R5EpiXAeNWqUtlKS+IAyiU5FDE8rLRDOZ5xxhl5FlMQHdChWqVLFOSodI0aMiNq9CAkqaF+iTbJp0ybnzNED4fzggw/K0qVLnTMk1sBg16dPH+eodGA7qnbt2kkIQ/RwEEviJZwHDRrknCGxBo25b7/91jk6PMUJ52HDhsnnn3/uHJFYs2DBgqgL5w4dOjhnSKxB2axTp45zFJmSCGeMBvnoo4+cIxJr0CP+2GOPRU04n3nmmdK8eXPnDIk1r776qp7KEg1Gjhwp7733nnNECPECnfjRFs7Tp093zpBYAyMbVsKOBgX7OGORn2hPnD4cFM5lDwrn4EDhHCwonIMDhXOwoHAmJLZQOAeLaAvn9u3bl419nCmc4w+Fc3CgcA4WFM7BgcI5WFA4ExJbKJyDRbSFc+fOnSWEZdLxgYwlFM5lDwrn4EDhHCwonIMDhXOwoHAmJLZQOAeLaApnrJKOXZpC3bt31x/bWELhXPagcA4OFM7BgsI5OFA4BwsKZ0JiC4VzsIimcDaEOnbsGPjtqCic4w+Fc3CgcA4WFM7BgcI5WFA4ExJbKJyDRTSFc05OjuTm5paNfZwpnOMPhXNwoHAOFhTOwYHCOVhQOBMSWyicg0U0hTO+r9iJihZnEhMonIMDhXOwoHAODhTOwYLCmZDYQuEcLKK9OFjbtm0l1KtXL/2xjSUUzmUPCufgQOEcLCicgwOFc7CgcCYktlA4B4toC2e9j3NmZqb+QMYSCueyB4VzcKBwDhYUzsGBwjlYUDgTElsonINFtIUz2qrcx5nEBArn4EDhHCwonIMDhXOwoHAmJLZQOAeLaArnVatWSbt27SSEFcKwN1UsoXAue1A4BwcK52BB4RwcKJyDBYVzYpGRkSEbNmzQDezFixfLwoUL9fdy2rRpum7s37+//n/ixIn6PK4vWrRIl9v169fr3x8LsPcshGBaWposXbpUPxduzpw5Mm7cOBk6dKhuHyclJcmUKVMKrsMvfrN582bJyvL+hpcWhHnjxo1F4mzGjBk6rgYOHChjxoyRCRMmFIoz+EdcRzvOKJyDRTSFM76JyBehfv36afNzLKFwLntQOAcHCudgQeEcHCicgwWFs7/Bt7B169byww8/yAsvvCBnn322/p797W9/08dvvPGGvP322/Luu+/q/9988039v3G4/r///U9uuukmOe644+Sss87Sv8P9cN958+Y5TzoyYBCDAGzRooV8+eWXcv311+v3Ou+883R9j+fa7/LWW28VOsb1ChUqaL/4DX577bXX6nv9/PPP0rlzZ8nPz3eedmTMnz+/IM5efPFFOffcc486zvA7d5yhM6A0UDgHi2gKZ0MIE53RcxNLKJzLHhTOwYHCOVhQOAcHCudgQeHsP/bv36+3pHniiSfk//7v/+SPf/yjNGnSRLC1K0QXGunLli2TgwcPOr84PCi3aJ/i97gPRCDue+ONN8qjjz6qra4lpWLFivo3KLtPPfWUXsyoW7du0rt3bxk/fvwRWY4h/PAb/LZ79+76Xs8995yccsop8uSTT0qNGjUE6yQdDnec/eEPf5BmzZqVKs5WrFghAwYMKIiz77//Xt/3hhtu0HUgrPtHA4VzsIimcEY+Rh7lPs4kJlA4BwcK52BB4RwcKJyDBYWz/xgyZIgWf3Xr1tXfwOzsbOdKdMF909PT5YsvvpC//OUvMmLECOeKNxBpr7zyitx9992SnJwclTogErj3zJkzpXz58lqcH266J/LerbfeKrVr1z7mcYah20gbxBlG1B4pFM7BItqLg40dO5b7OJPYQOEcHCicgwWFc3CgcA4WFM7+o0uXLnLppZfKpEmTjvn6QBgOjbm9sD7/97//dc56g/nI+Ja+9tprWrAda1DHID8hLmCJKw60va+88kptvY5FnGEO+fnnn3/YOPOCwjlYRFM4QyvrfZxRCWDIQyyhcC57UDgHBwrnYEHhHBwonIMFhbP/6NGjh7ZmPvLII3p+bvXq1bXYQvsSwvBo5/5CUGKhLgxpxv0++eQTPX8XFt3f/va3eq5vcaAdj2/pLbfcIrfffrse5o0RpRiyDCt5aaZkQjBgATHcC9/qf/7zn3rO8z333KOfczjhjDbb5Zdfruum3/zmN/Lxxx8XxBk6Bg73+0hg2Cys615x9vvf/14qV67s+Cw5FM7BItoWZ72PM1azO5ZDOrygcC57UDgHBwrnYEHhHBwonIMFhbP/aNWqlV6EKi8vTy++hbm6L730kl7c67TTTpNnn31WKlWqJO+//75edAsWYKQjFrTCUGr8j2MsvoXFrjAnGf4xd/ikk07S38P//Oc/+r54DsC1f//73/rvSCxfvlz/durUqXp1asz5Rb0OizDOX3fddfo5cMgHEOJ4D/vd8Dfe9/XXX5d33nlHvxvCgYW7cI/LLrtMC5HvvvtOC17Ml8a7Hc7CjTnWWFQMAhnxh7C9/PLL+p5nnHGGvseRxNkHH3yg/cOijPnWuA/ugfu2bNlSP9P87kihcA4Wx0Q4O8cxhcK57EHhHBwonIMFhXNwoHAOFhALFM7+AmK2adOmztEh1q1bp626WAkb83+HDx8ujRs31qtDQ8RB+P7rX//SYg9CG+IPwhtWavifO3eu/j3aq27wOwjD4jDCGelsg29samqqLFmyRGbNmqWfBSEBQQGBineB2MdiX1idGuL0008/lfbt2+utqfAb/Bb3wL1sYHh7+umnD7vgGBYWa9iwoXN0CBNnCDveC/O4EbcQ9XgvhNmOMwhrCHBYmQ8XZ/gtys+RQuEcLKIpnPF9RfmncCYxgcI5OFA4BwsK5+BA4RwsKJz9RyThfCwpjXA+lpRWOB9LKJwJiKZwxncVnUghFDL0+sQSCueyB4VzcKBwDhYUzsGBwjlYUDj7DwrnQ1A4Fw+Fc/yJpnA2hNBgxcc2lpRF4bx582a91x8WksDCCMZheX6sAOgG6YIVz4vjm2++0fNMIjFp0qSC5yxatMg5Gx+CKJw7d+6s38NOT+xriKFEublhgYFFNT777DN9rUGDBkVWsN+xY4fUqlVLX//666+LdGJhuJd5Blbz27Nnj3MlfgRNOG/YsEHHvbtsIl2w9YChU6dOegibSQv3IjAYZob0t+9hN7CSkpKKXMf9DlfOjzVBE84zZsyQmjVrFopnpC3SzCxCs2XLFl0ecQ3bvWDukqFPnz56UR2bnJwc+fHHH3U9bti2bZuu080z8Ezsv3q0C91Eg7IknDFUE2ln4t84zO1EvQqw/61dvjDc1F12sUAqnB+hcPYfFM6HoHAuHj8JZ3ybTfvFOCymhj26DZhmgLYA5sh7ge2+6tevr7+RNmjX4nemDWXaNVgHIN4cE+HMfZxjQ69evfQ7YHVEbNJuHM59+eWXjq8waKSZBR3mzJnjnC0MMi6uY3VDLzEFsYbFIPAMbGXw97//Xa8GGS+CKJyvvvpqnQZ2ep588sn6HPYSBHohAccP0hQrUDZq1EgOHAiHDXnSXL/kkkv0IhxvvfVWgfDG3ChzHen5j3/8Q6+QGU+CJpwRn3gHrPZp0hEO57AAiQFlCEIC17Ci6J133qk/NAbMwUL62/e444479DUIGaT/qaeeWug6FpO54YYb9Oqg8SJowhlhwUI9djyfd955cvbZZ8v8+fO1H9S5plxdeOGFcv311+tyB9AZecIJJ+hOKwPyJ9IewsuA+szcA+7444/X6WvKbjwoS8IZ9agd/3C/+93v9Dl0agI0nP/85z/rvwFEzznnnKO/sWDnzp067dFJ5kconP0HhfMhKJyLxy/CGemDldbR3rDrS6xAjjaKaY+ifkDYb7vttiJ7bcMP8j2uY/E6G+yXjfNYZR73xXcDx8iT8Saawnn9+vV68b0QrCgUzsceI6BMT7gBH3FYnW3Q+42VBpHR3dcM+Jjee++92p/bmowGBRqDs2fPds6ITJs2TS+oEC+CKJyvuOIKeeONN5yjMEg7pLMRzrB+2I0y9MJBXC1cuFAft2vXTl588UX9N8AHBr83G/fj/ljZEkBcYZEMVE7xFFpBE84DBgzQ7+C29qMMGeGM+MYWF5MnT9bH2Drk//7v/3RHhgErkUayHsNSCVGF7TxsINofeuihY763ZXEETTijbkCvuA3yKjq6UlJS9DEaVOioMuDbgEaF6UlHuUOHBoB1EmXOrNZqwOI+6Ag1wPpM4Rw78J1DWG3wzieeeKKudwE6tlBPY5Ej8NNPP8kFF1xQYAmBwEbZj0Z8HQv8Ipwx8gaWeiwYZRy+XeiMN3EJweHV0Y9tjOyROyA9PV3atGlTcC/8bepWv0PhfAgK5+Lxi3CG7kB7xe4MBlj4DXnLfLOw0jkMCFg93V2W0YbB9+7mm2+WDz/80DkbBu0aiHDTJkRZRhyirRhvoimcsRAd6kEtnLmP87EH8Yx3QA+3jVs4o1cHKwdCZKIAo+FieoMMGEaBjz/C5f6woicd19Co8xNBFM7Yy9EtnLt27arT2QhnbNtgfzDQyYHrGGYIIBht4QxwHb8DtnAGWIUT6RvPxnnQhDOGc+IdDiecn3nmmUJDmLCPp7EoA6RVpAoaQ4PxYaFwPvZg+K5bOKM8YpSAmRaDVVsxAsAGwvrhhx/WfyNvw0KNIfxw6CBxiyuE074HGtMUzrHDSzjj+4eOSQyrN0A4mz1w0bFpW6AxvB4N/3gOry8OvwjncuXK6byAzibj8B1CXBtRjGkKKDP21D+M0EC9Z7dxUD7QWMd5cy80yNE5FWsjztFA4XwICufi8Ytwhu7A/t5ewhmrqZtvFlZ+v++++3Sb03wLDWijoQ2E7yuMBDboNLZH5xnhbAxE8SSawrlgOyoUtpI2gKNFWRbOmBdngCB2C2cMBcA5LLOPhjyG52JTfBtYRTDkF41tVEZoGBjQu4vGnP3x8gNBFc7uCsRYMIxwxkcWwghCGA4fGdtyhd52DMc2wEKCYaK2xblKlSr6b4D5I7CM0eIcPYxwTktLc86EcQvn8uXL655WpCMaTvjgYNiOAY1zjAhAPoezP5ZGOLsrcNRJFM7RBR92iF0bxL8tnFGuLr/8cv03wOgc9LTb+RBWyyuvvFL31I8ZM8Y5ewjkDbtOw9YzFM6xA8L50UcfdY7CYNqSWzijkxJpiLRC+cT3FWUYDSoM0440n88P+EE4o52CRjfyN6zLxkEUY2oROiMA2ivolMCUFYA6ExYsdEjZc8qRN7FfMdYCMfdC+UIdbE998SsUzoegcC4evwln6AMbrAfiFs6YgobRqSi30COGW2+9VYtG7JVt74+Ntgus0Bg1YsB3FnEYWOHsHMcUCucwXsIZwgu9OgYMD7XnE+BjhPkHZg4XesrRuDOL2SBRL7744iILF8Wbsiqc0aiAEEZjDg7pjd48M4oAQ92uuuoqwWIKENBISzQ8zBy8d955R1dgWHQBQ/PR+McQuXhSFoUzuPvuu/UwUJOWWDvAXlgDc2QxxxKNdMzzgSXF5A/kBwrn2FAS4YwROUhDLI6CvUxhPcMepjZo4CNfIM3d9SkaFCiraHgYKJxjS0mFM4YpogMa6QiH+e/wg3oZjVo/4xfhjLVUzPB3A8oU1n2AKDKYtVfQ2Y+RjCgP7sY60gN+7O+YaWj7YWjn4aBwPgSFc/EkonBGmQYXXXRRQZt98ODBuh0K8H214xV1LupVu84NqnDG9xXln8I5RpRUOOMDj2FRrVq10j2ysHLhnBlGCqGBxgzEFa6jlwcNgGrVqunrqDRhgcZYfD9RVoUzhq9hJWUstAC3dOlSnT5IO4BF4yCwMFwbHSQQkEZUg3fffVc/B9eR5va89XhRVi3O+MBgWKJJSwxPguBatmyZ9gMrJhqD6MzChwgfKTQckcboCKFwjg0lEc5I19NPP12Xq+eff16P/HDz9ttv63nON910k/5Y2sCKiTxjplwACufYUlLhjI5odDYjTsxUFzT0kSfwrUV+jWf5Kw4/CWf39xuiCZ2EtnAGSBOIBTS03dOQAOIeZcd8A8H48eP1OQpnbyicjxwK50MciXDG9w5guhOGbaPexLfQTHdB29uO18zMTD3Nwl5pO6jCGW1erJcRwlh0e4uNWEDhHMYtnPGeGIKN4WS2w+/Q+AZYDRYN8AoVKmihhQ8TKlUMz0bDHw10CLHKlStr/36hrApn9NLXrVtX/23AYmFmnh0WkyqucocYi7cQcVNWhTNGf2CRPRv8DkOXANLKvY0RRhNgWBN+T+EcG45mqLYbbB2GxgA6urp166aHcaN+NqDcoiFir1lhFgeL52gfCufCwhlzZrHQjVkYEx3SsKSgPAI06FGG0cD1I4konJcsWaLj1F1mDFjZHm2USZMmOWconA8HhfORQ+F8iCMRztAgAOvxwJKMxbAwug7TRwHWhbDjFdfRMWlGSQKUbcRhvLfBBdEUzoYQetq5ONixx6yq7RbOsHqgoQcgoPGxscEHHkN4n3322YJCaKzLBjSWTjnllIJCgaHAuK+9/RTCbg8rjDVBFM7orHBXzKaDxAhnhNl+V1iM//rXv+o9uAHKn3tpfxsMI4XV2U8ETThjwS68g73VEMBwayzUB1AOkYdNYw/z8vDBQHk1YgxpZQtn5NPzzz9f7++MBj1ElT20G2BFb/TqUjhHD3zY3Z1VEM4od2bfe3Q8omPEC4wYwLB8iGuAehqNCRzjb6Q9yr57ygSEHEb/xJOyJJyxDzc6nWxQzjAU27wz1oeAUDZgVW2Ua6QhwOrOGJroXjHdLySicEadhoY2LPtm+zcbvMP999/vHIWhcC4eCucjh8L5EBDOsCRjyLUN3gvfCyOcYRzACFeA7yAMB6hPMY3JLKCI6U1mHQPoGaxzgHM2RjjHWlt6cUyEM/dxjg1YbRliFkLBgA/Sn/70J93gQsMZw7K9KmQ0ttGAwYJR6Km1J+wbYGG2GxGwhKKhDmsXGvRoJLoLTSwJonBGheFuiOADgXQ2HSQoX2iYYZgLGuvXXHONHkVgLBy4XlzljvtHq+EULYImnLGyNdLMbR3BiAK7kwp5GBYupCV6ZmFBhrXagHmzmIeONMOiONg7GMN3AeIKjUk0Km3Q2fXEE09QOEcRiGbUqTZGIJltidAhgrLoBcQV5i9v2LDBOSO68wMrBmNV0gceeEB3iKDDC/Us6lgMZYO4QD2NhiRWK40HZUk443uCuLaBcMZIAbNQDYbhm84vgPMo10Y4A5RptwD3C4kmnBGvmIqEzivUkRhxgzSxQR2JIfI2FM7FQ+F85FA4HwLfAyz6he+YDb5T+I4Z4QxBjLJuQFygPrXbZxgxiToVbZZ77rlH6wzEM9q3+BaifYRvELbKRdsi3tMLoymc0Y7A8HPu4xwjMCcSghcfIRsUThQuWLTcQ0UNaMCggoLIwKpuXqDiQqPJBs/DUHxYmpHg8SSIwhlTHOyhmgCNBDudMXwFaYYhK1i9FX+bYYIA/u1RCG6Q5u5nxJugCWeUL6SZ6VE1IH3tfdcxigCNE6QlhvC6p7jg44QyiIoVaW1vb4V7owyjHrBB/vBD2QyScEY6YN6VDeIf6WUEE8pUpIYR8oJ7v300EmC1Rucj8iuG/mJuO9IZDnkC31E0RHDdHu0TS8qScEYau+tO1Lvo8DDlDGlmd0rhPMqhXQfjHvEug5FINOGMqWTohEQ8oz2DziZ7UTGUQYhpM73FYOZE+nmFcwOF8yEonIvHL8IZZRh1Iep0G3wP0a4x9SHaY3ZdiN8hHuyORtS7cDgPcQzDnvtbiLyIvIFpMtCY8STai4NhlGgIQ4jdgutYUxaFc1kniMK5rBI04VzWCZpwPpaMGjVK59dIiy9CGOA6hTOJBn4RzhitYUbPGNDBhGGdZjsqNJ4xqsbOL9gtAuUB9Tzug2NMb8ExOo0hLPA/vunwB+sU/PkZCudDUDgXj1+E87EAhgF8H1JSUpwzRcECgVgPJJ5EUzjD8IW2amjOnDmFhqTFAgrnsgeFc3CgcA4WFM4lBxZlzH+2RxPYoLce1zH0NB5QOAcLvwhnzEnGwmo2sFThvGlXYS0W7Ittj6rByA5MiahXr56eb478hDnnsFTDYd4l/ocfDAnF1DX3tld+g8L5EBTOxRNk4YxvHaYdRholgnoDW3Rij/Z4Em3hzH2cScygcA4OFM7BgsI5OFA4Bws/CGeAFXW9hrNjBW2T19BAhhXaDazIaFzjm4H1AbDOAPzaDvs+Y1oZVvH1e/1B4XwICufiCbJwThSiKZwx0gzrZFA4k5hA4RwcKJyDBYVzcKBwDhZ+Ec7RACvTY/Gg4jjttNMKLebmRyicD0HhXDwUzvEnmsIZo7OxwFoIE7nReI0lFM5lDwrn4EDhHCwonIMDhXOwCJJwxsJhh1soCDsTuLfs8xsUzoegcC4eCuf4E03hbAhhL0ru40yONRTOwYHCOVhQOAcHCudgESTh7PdFv0oK9vzGlnWx5Nlnn5VHHnnEOfIGw+bxLcWQ91iBhd3wbhCIxYHtWH/88UfnKDZga6XDdTZ4QeEcLI6JcOY+ziQWUDgHBwrnYEHhHBwonINFkIRzUIAIxJ64sRJDmCN+6aWXHlZ4YrE27FGOPeVjAbZSrF27ttx8882Ftivyok+fPnrPX7OP/rEGc/IRF0cj1imcg0U0hTMWO0xNTaVwJrGBwjk4UDgHCwrn4EDhHCwonP0HGs9Il3/84x9aNH722Wda3GKoNNrSEJRHA36HVXtxH9wPdTJWHb/99tulVq1ajq/iweJF8F++fHn9//Dhw2XhwoX6PPbxPVqwzR7ugamdyEdYTf3ee+/Vgr5///6Or8igPsKq67fccot2NWrUiEqc5ebmaiFj4qxu3bryt7/9TYe9Zs2ajq8jg8I5WERTOOP7qlfVRoM10p6UxwoK57IHhXNwoHAOFhTOwYHCOVhQOPsXzO+FOMOWOxgWfN555+lvGbajq1+/vjRo0ECaNGmi50Mb16xZs0LH2Bsb/iD48Dv8HvtcQ2Tivkj7bdu2OU8sGRgSD8GMe1SsWFELfNz3t7/9rbz77rv6eZhvbL8b3st+N1zDuzVq1EhvI4Z3wj2wnzfmoWORN7TD8vPznaeWDIh3zHV/88035cUXXyyIM1jwv/766yOOs/vuu68gzpAGiDMsLue1AnxJoXAOFtEUzgX7OE+aNEn32MQSCueyB4VzcKBwDhYUzsGBwjlYUDgnDhBHQ4cO1Y30bt266SHdEKiI89dff12eeeYZefjhh/XetxUqVJBKlSrpsgV/8I/f4ffRFllYCXjUqFG6/QtRiGfBagbhCQH72muv6cXHHn30UXn55Ze1+IRFuEWLFvrdevTooX+Le0Tav/5oMXHWr1+/gjiDWMdwc8QR5k/bcYaOAK84mzZtmnPH0kPhHCyiLZwL9nGO9aINFM5lDwrn4EDhHCwonIMDhXOwoHAmJLZQOAeLaApnTCvAgtrcx5nEBArn4EDhHCwonIMDhXOwoHAmJLZQOAeLaArntLQ0vV1eCMM4sKR8LKFwLntQOAcHCudgQeEcHCicgwWFMyGxhcI5WERTOGN0Nub1hzBem/s4k2MNhXNwoHAOFhTOwYHCOVhQOBMSWyicg0U0hbMh1KlTJ25HRY45FM7BgcI5WFA4BwcK52BB4UxIbKFwDhbRFM7Z2dl6v3Tu40xiAoVzcKBwDhYUzsGBwjlYUDgTElsonINFNIUzvq+dO3cO7+NM4UyONRTOwYHCOVhQOAcHCudgQeFMSGyhcA4W0RTO2I6qffv2EkJDBx/bWELhXPagcA4OFM7BgsI5OFA4BwsKZ0JiC4VzsIi2cNb7OO/bt0/y8qIjYksKhXPZg8I5OFA4BwsK5+BA4RwsKJwJiS0UzsHimFicneOYQuFc9qBwDg4UzsGCwjk4UDgHCwpnQmILhXOwiKZwxrRmPcc5MzOTFmdyzKFwDg4UzsGCwjk4UDgHCwpnQmILhXOwiKZwzs3NlZ07d0qoa9eusmrVKud0bIiXcMaHg8SHJ598MmrCeejQoSVq6JNjA/Z9j7Zw7tKli3OGxBqUzWgJ51GjRsknn3ziHJFYs379+qgK5zPOOENatGjhnCGx5o033oiacB4xYoRUqlTJOSKEeNG/f/+oC+f58+c7Z0isadiwofTp08c5ig6hjh07Bn5V7dTUVF0QWrdurXvkE86tWiWrly2WVStXqONVRa8ngLvnnnuiJpzRAEDPuddzEsGtWrVSVuu09L7udweLf7ly5SQ9Pd1JkeIpTjhv27ZNl01Ubl7P8r0zZXPFcv23px+fO5TN2rVrOykSmZII57Fjx0qFChV0Z6zXs/zudNlUzutaIrikpCTdUIuWcD7ttNPkiy++8HyW7x3K5vLELptPP/20VKlSxUmR0oFOrRdeeCFhy2bw3Crdplu9YlnC5s8gOoywQZtk48aNTsk5eiCc8X2FGPd6ViI4tFXxXfS6lggO9SfiPxpgTTB8F8vEPs7YsPrSSy/VheGEE05IOHfSCSE55eIb5dQzz5ETjj/O04+f3fHHH6/jvm3btk6KHJ7ihDOGveB+uK/X8/zuTjv5RDnz7HPlhBNP9Lzud4e4f+SRR/Rm8CWhOOGclZUl1157bcKWzZOPR9n8m5x69nlywnGJFwZTNps1a+akSGRKIpzRs477HXdc4tVTcCibZ51xmpx4QuKWzfLly0t+fr6TIkcP7nHDDTckbNk8SZXHUy66Vk499/cJXTZr1arlpEjpWLRokZx00kkJWzYD51Rb7mTVpjv9d3+Sk9R3xNMPXcwdytwll1yiR8OVFkyDfe655xK2DoXDdJ3TTznJ85rfnalDU1JSnBQpHVgcTA/lx9zCoAtnsGzZMhkzZoyMGzcu4dyoUaPljobjpP6vIyR53FhPP352sILAElVSCyUoTjijF8/c1/0sv7vxyeOkeos+cv47HWTC+GRPP353mPJwJNM7ihPOAL2CyB9ez/K7GzlqlNzVIEk+ajNMkpMSt2yWZFhaSYQzemOTk5MTMj1RNj9t2VdOf/lnSfK4nggOZXP58uVOapSepUuXJmzZHDN6lDzcNElq/jJSxiVw2cTw+2iAjpAJEyYkbHoGzqk82aTHaLnyox4yfOQobz90MXcoH4sXL5aDBw86Jad0YMQr6mWvZ/ndTZkwXi56t528+21PSRnv7cfPztShWMsrGhSsqo0FszBnMZbEQzgnMjO2HJDTPkiRF3qkOmeCT3HCOdH5X+91ckr16TJna3QqZr9zOOGcyCzcLnJ6xRR5tGNs14mIByURzonOe4M2SqjqNElZX3qLLYkv67JFzvhostzfLnodCYREk/cGrpeTKk+WyRuD3YYliclKpTfPrjlT/tV5jXOmbFOwjzOGW2K4ZCyhcC45Bw4elMfbLpDQO2PkrKrjZdyKnc6VYBNU4Tw1NVNClcZJ6I3R8sKvi1X6OhcCTJCF87/aL5TQu2PljA+TZeji0g/t8jNBF84LN+2RUOVkCb01Ru5vMU/2lYXCGWBe7rpUfTdV2VRpOmBhhnOWEH8wZ32WnF59goTeHiN3/zRXWNsQPwHt8Xav5RJ6fbSE3k+SMct2OFfKLhDOGKVdJvZxTmSSV+6U49CYqzJeNwKeUg31/WWgQRdU4Xx/y/m6EgpVHi8nK7E1cXXpF/HxO0EVzjPW7ZaTqqpyifKpyuaTqmzmBnSUBAi6cH6u42IJvafKpqprT1BldMiibc4VkmigvjmzeoqEVB0LYfKwqnf3BHxkGkkc0Cn3ardwxw6+H8erfNp3Pjt3iH9AHXqqbt8op76Ht3w327lSdsG0Qm1x3r9/vxw4ENvGHoVzyYBAfriVElrvqsrVNNA/HCcpq4NvdQ6icB6xdLuciXREYw7/q8ro8XYLnKvBJYjCGX1X/+60SDfKdVpWUWlacZxMWhPcjpAgC+eJKt3O+XiChCodKpt3/TRX97qTxGK/SrNXuiyR0Fujw2kJ997YwI8IIYnDzHW75bSPVL5Emw75U7Xx7vt5Hjt3iG94EXWoqjd1/lT59DTl+swr2RakQQWjs7HmRKhfv36SlpbmnI4NFM4lo9/8DAlVGCWhN1XjXDXKde/kKyPkzh/nOj6CS9CEM/Low63nS+jF4WGxhbR8QzXsVONu6OJgW7aCKJyTVuwIpyPSEGUTnVv/Gyl/bzbL8RE8giqc0Vh9sv2iQ2UT7k2VrsoNWEArUKKBUTzh9FPp+EFSuGy+OlKu+maG44OQ+PII2gKvjAznTYiTt1RefW2U9J3H+obEH3Qk63z5utIf7zjfRPV9vK35HNm1d5/jq+wSgtn5SFbIjQYUzodn4648+XjgKvkxaZ20nLxRHmo5X74alSYtUzbIx4NWBV5sBU04p6zaJc92WCQtJ26UlpM2SoMxa3W6NhyeKp8OWS05+cEd4hs04bw9O1/qjkyV71U9hjTEqJAvh6VKywkb5JPBq1XjJ5i9skEVzjPWZsqjbRbocmm7RiqNaw7loiiJxO7c/dJg9Fr5bmz4u4npEzVU/Yqy+emg1dJt1hbHJyHxYVpapnzQd4XOk3VGpErl/it1ffPz+A1SoftSyQ5wW4D4H4yy+mL4GqmHelPVoY2hQZxv4jOqDTtyadkduYOV1uHKxD7OiQgqzw1WI7W2Elg7nZ4eZOzNu6MTf34laMIZVq38/YeGfe7NP5Rns1RjL8jz1oMmnDGP2a6/0PhBfjVsjFLd5jeCKpxRFiPVNTkBqoPKAqhj7e/m9+PXy/Kte50jkfU7g5d/SWKxLfvQiv3pWXkyY+1u5wjH+VyUkMQV5D50QBr2We1WtFPRXi2rrFu3ToYMGRK2OFM4+59PBq1WYc1xjoJPEOc426BxV1bmTwZ1cTDDp4NXy/yNe5yj4BL0xcFI8Kg/Ok2mW8KEED+xLD1bxiznasXEn6CJumV3nv6fKL2ptHLbtm0l1KtXL1m+PLb7HFI4HzkUzsGCwjk4UDgT4k8onImfoXAmfobCuTAF+zjv2LFDtm07tvNl3XHedNw62Z4dnQnmGHqVH8ChLe6MWnPIGiW2gj0822aLq2MlaAV3a5YrfM7/QQRzfhdvznaOEh93Wn02dI1qAB0aDhpUfkjZoOd3G8rKiMIyEsxA0mjsWplbBjq1SOJg15up23Nk/Krg75JCEpcd1je/rBPTfZwhbttP2yyLN2TJqm17pfaIVJmn/l68JVuvWjo1LdPxeXgwH2340u0yY02mrNi6V+as3y1r1f0xjyll+U6ZHJDtYNbtzJGfJm6QxRvDcfZhv5W65xxxhv1FJ6cGa9ubrVn50nNOug4f5oguUUJrVcZeHf5+8yG8Ervxs25Hjk63xenZugdvqfp/zbYcWbQ+Swar8zgXFFBGO07fLHPX7dblsu2UjXo/cvw9Xv0/YkliLy6RsSdfWk/eqPLmHlmp8ijK5rgVO3XeHbZ4m15xOwigc6fLTFVvb9qj6qNc+WbMWpmRpuogFe4ec7ZKckAafJsyc2XQgkNlc1fOPt2gXaS+UViE0d3JRfxLZs5+6TB1k86j+H58PnS13gZwiUrbkcu2678JiSdjlm+X4eobiDZNiqpDBy3MkLU7cnU923tueqG1UAiJNfj+YQGw+ar9tkZ9B1eqdtuW3fm6Dh2h2qpo85RVsI9zu3btYiOcMSQVw/ywdcvZNSfJxfWmyuVfT9N7ZV75zXRZfwTD/1CljFMN0zOqjJfTqqXIDU1myv81myWnVB0v56hjNGCDAOIMC5tgO6pzPpskf6o9Rf6i4grbayDOojXU3S/AkoV9DLE9wxX1p8ut382WP9WarLdt+l+3pQm/eNZaJZz/1miGzvPXqv8Rvt99PkmH7+tRaYGy3oXL6E6dV0+pPkEuUeX96gbT5RRVPk9WbkpqyTvK/AhGP7SdsklveXNmjYlyvsqnl36l6rNK49TfU3SHSBDI23dQXu++TG+VcmHdcJ39hy9VmXx7jDzQYn5gGnioS29qPFOXzWsaztDb/f3+CxVOVRdh4beyYlkPAiibfedu1VtRnaXK5gV1poTL5ofj5Pcq727g4mAkzuzNPyB/UW2c0Afj5EKVP9GG/VPtqbotgEVgCYknqEN/mrBBjntvrPxWaQ+0Va/H97Fiklyl2gBlWThjdPbixYslNHr0aNm4caNz+tiB1QOvRGWB/cA+TA7vfaoSBgl0pBxQLZnnOqmXx953uI+zx/G/Oy52fASDzapBh4yq4wwb5Tv7xTZXgjqIYN/qE98fqz8oOqzq/5M+TpElW4IxzPdHldePx/7NJnzvJclFSlQGcV+87Lz98lT7heF9jlHelagMvT1WXvx1ieMjscFUk5ubzgrXQSibCJ9KW6zfECTmrM+Scz6ZEN7T0dTbKqwTVgVrxEv7aZsOlU3s/avK5h9rT+EwtQQEu0/c/cOc8F7Oumwqp76hGOlGiB/4Zfrm8LfDfBtVffOHLyZL2vays44N8S/oNL8ahh7sM+58E49TdWiDgLVvjpZQ+/bttfk5FnyfsiHcKKkyXicGLG9oYB8Ns1WD7sRqKeGKp0q4QbcowYfzetFk3LpDcabCeJkS0pk5wdyAHJade36aqwVI6CMVXvX/2z2XOVcTH4RP9zS/r9Kzajh8zccfecdRojBq6XY5E+FE41WV09NVecUUjaDQacZmORGNHqf+QdmM1toNfuKd3svDwhlpqT6k2BvX3qIiCGCEDyw/aMDqukc1ErAWB0lMus7aIqd8qMqm7nBOkotqT5GNZWiNEOJvMMrluobhEWi6XlUi+vNh3DOe+IcuM7eEhTPyp9IgF9WZyq3SHGK6j/OevAN6yDF62DAMoMO0Tc6Vo0MPI0TCqkrn1W5L9RCYoJGt4uzietPClh4ltGC1DDKjl+9QIkuFVYX3zOopMn1tYg/rddN+6uawCFHuugbTZdueYFu07ms5L9w4UHn3jR7LAlfxXt1wekHZbJYczJEgGJp1xqcTdDhPUW7k0mCuAtt9dno4ryp3eb2pet4hSVxuajZLd9Afp8pm3ZFpzllC/IGe7uPUNxfUmqLXkSDEL0B7lPtudlhjqToUU0fLOps3b5bx48dLqGPHjjHdx7nVlC0Senmk/OP7ubI7v3SN6Pmb98pZH0+Qcz+eKJPTgrvdTbtpqkH36ii5ttEsycgO7hZNhsfbL5bQ62OkQs8VzpngsCv3oFzXRFVG7yTJz5M3O2eDy9S1e7QV7+yak2VJevAaBn3mb9dl868NZqqyGdxt8aoNXiOhV0ZK+TaLnDPBAzMmbm0+T0JvjZWvxrCRkOgMWbJTQm+MkUu+mi7bc4L/3SSJx43N5uj6pu4ojm4h/qPbnAw57v1xcuXXMyQ9wO2bkrJq1Spp06aNhLp06SIrVkRPoBw8eDCiw7JBG3bmyK1N50tTxzrj5a+kDvd7ptNSuefneaW+l18dwrg5M1du+26hfDU6PL/Ay19QHBiyKEPOqzlV5uhhvd7+EtWBZuPWyZ/qTg9PU/DwEyS3J3efPNVxmfyn81Iddi8/ierUP7J1d67c1XyR1Bganj/p5S/RHcrgrHWZcnm9WTJkMVYl9vaX6A5gRebffDZFr8kR1HCWFbdrb76Ub71E6jiixMsPHV28HOg4I13Orz1dNu3K8fRDRxdvd9k3M+RLZxqB1/VEcNGiYB/nTZs2afNzNFi+fLk8+eSTUr58eXnkkUc83TOPPyK/v7+C3Pnwv+SxRyL7K4l7XP3++vuekv+7+xF5tJT38rN75vHy8kcVZ7c/VPo4SwT30EMPy4V3PSePPP5EINP17gcelqvuVmn52KOe14Pknn7sIfnLgy/LDfc/rcrrw55+EtmhbJ7/wOty60NPqbIZvPAZh7Q7957X5KEnEM7g1kH3PfiwXHnnE/LIo495XqdLHPfM4w/Lnx98VcqVfzaQdQ9dYjvkyTseeUb+fPdz6u+HPP3Q0cXTPfroI3Ld3Y/LHfcn5jcfWhSaFNo0GhyTfZwHDRqkX7RVq1YRXUvlfmnTUtq29r5+pK59m1bSoW1rz2tBcdGOM7+7NiqcHdu2ktYe14Lg2qo8+0vA86xxyLsdVN5FOcXfXn4S2Zmy2S6g4TMOZbFj25aBLZPGoY4tK2Uz6M7UPUjTIJdNusR0yJOmreN1nY7ODw7fw3ZtEvebCE0KbRoNMFS7bdu20RXOvXv3lmbNmjlHhBBCCCGEEEJIbIEmhTaNBhihPW3aNAlNnz5dtm7d6pwuHX379pWvvvrKOSKEEEIIIYQQQmILNCm0aTQJwewcrcXBKJwJIYQQQgghhMSTYyKco7mPM4UzIYQQQgghhJB4Ek3hvH37dpk7d66EOnXqROFMCCGEEEIIISQQRFM4r1y5Ulq3bi0h7EmFlcKiAYUzIYQQQgghhJB4Ek3hXLCPMxT0xo0bndOlg8KZEEIIIYQQQkg8OSbC2TmOChTOhBBCCCGEEELiSTSFM6Y1R30fZwpnQgghhBBCCCHxJJrCee3atZKUlCQhbEWVmZnpnC4dFM6EEEIIIYQQQuJJNIXzwYMH9f+hdu3acR9nQgghhBBCCCGBIJrC2cB9nAkhhBBCCCGEBIZoCuesrCxJTU2lcCZHTu6+A7J+Z65s2OXh1Hlcc0Y0aPD3xsw8fc3rN2t35Oh72mzbkx/R/zrlf9fefY7PMFm5+2XDDm//eJ+tWfmOzzA56nmR7o/z6cq/FQT9fht3RQgD/O/OkwNWoPcdOCibIoVZndusru1Xfgz4aUT/zm/y99tvJDpMEdNBxQXixGZXzj4Vdx5+4dR9MlSc2yCO0lRcR/KPNHWn8zq8T4R3Wq+e7U5nxDPOe/vPkZ2udM7M2a/T38s/wrxFpYNNnoqz4sKM97XTARSXDmu358ievMLxuj17X+S8p951W3bheM3OU3mvmHfC823wfuZaEf/KIQzIbzbIGxHDoJ6d7QrDDoQhgn/ksd3uvKTSJZJ/nM9Uec1mt0q34uoMdzrj/XReiuDfXZ73qXQu7v4ou/vtzKootrypONqbXzivonwgPSP53+FRJyG/ePpXz93syqtIQ6SNp3/lEB/uOgD1SKQwoJy46wDEc+Ty5lFPqjiI5B/PRZzbb4RsaK4V8a8c6hN3HYB4LS4MqLdskBcjl7dw3W2DOiDS/XEe+cDOGoeru3HNLm/IV6h3IvlHPYl3MOBZ6VmR/eP/PFccFVeeERfuOgnlM2K9p86jzrJBXR8x76nn6jhy/AJ864qt69V5dxiQ34vLe6jbbfT3KlL5Uf7d6Yx8hbaEp3/1Pngn+xuNvyJ+05VD2c121QG6XRIpDMq/O16RLsWVH8SrDfKVrscivZMKn7uu37K7mLre43ul6+5i0sEdhiz1+0j3x3nEiQ3izFwrif/Dta2K1PUq/MX5R3mz0xlELJ/Ob5D/bbarb3bEdFPn3d8r1LMR86q6v7tdgnq8uLYV8oA7nYtrQ+Ndvdolkb5X8O+VbhHbVs5zbdAuKS6vInx2vQdQZt3+cQ+UA6Sz+5sbDaIpnLF1s14cDEO1uY8ziUS+KhwrM/Y6R2EWbNwjd303W25vPkfu+KGwu+3b2fJ+7+WFGnioGJ/9ZZG+5vZf7vvZ8kSbBbJ6W+FnfD5sjdzWZGYR/7d9P0ceUP+PWb7D8Rmmz7ytUq7RjCL+b1fuTvXc1pMLb7k2b0OW3KHudYdHGMo1myX1R6cVElT4YD3RdoHcpsJdxH/TWVK538pChR6Nwde7L9P3cvtHPDzXcVGhRi3i6NPBqzz963dU77rKFUctJ23QYUMY3b+5rfEM6b8gw/EZZqyKM8Qd4rCI/yazpNbwVMdnGKTJv1SYy3mE2YTBbgTj77d7LfdMZ+SV+5RbsiXb8R3mu/Hr5U4VZncY4P8uFa8952x1fIYZvWyH3Kfe5zaPdLtD+f9yWOEwoGIu32qeCrNHGNR9/vvr4iKi8M2ey+Q2j3Qop+LtkZ/mylyVd2y+S14nt3vlVfWO9347S3rMTnd8hkleuVO/q9s/3O3NZqt0WOP4DIOG0X0t5sntHmEop+L65S5L9IfeRqeDxzOQlo+0ni8LNxYOQ9Nx6+SfjYuGAc+8+8e5krJqp+MzDMLkdX84xF2/+YXTLWnFDn0frzD8U5XbnyducHyGma/eD+/pmfeazpSKfQtPL8pQH93/qXhAfLj945kPt5qvOwdskN9v90hnnRdV2Cat2eX4DNNl1ha5R6WnV967XcVdC1UebWas3S2PqDAj37j9I47e7104DGjo/FuVKc8wqzCUV/EBoWzz6eDVOs8U8a/e8X51n/GudEMYUK6KlDflcP7HCYXDgHryXnUvrzDrur7PikL1JBrZT3dY6F1PqjCgPoFAs6kxZLWuf9z+UU89qP5PWlE4DN3npBdT188qkpeWpmfL7XgfrzCodKih4tBu4KEsPdk+QhiU/7dU/WCXN9Tj76lvHr4Dbv+II8THRlUPGdAgrjcy1buud/LKsq2F68lW6vt1h0fehiun6vohi7c5PsPg+3i/uuZZ1yv/9UamOT7DrFLf+MfbLoxY1/+302LdOWXAt+7tnqjrPcqPiud71f8rthb+XjVRdYxnXa/cnSr9+80v/L0asWS7zsOR6vraIwrX9alKuDzSMkJdr8LwQuclhYQwxNUb6hvt9b1CvD3y0zxZtLlwOjRJWid3FFPX91Z50wbfqzs9ypt2qtzWdn1zkU/u/TlCXa/i4sXOi4vUY2hneNb1CMPPc2X2+t2OzzDNU9Z7lh8dBuX6Lyhcdw9bvN2zLQZ3u4q7dlMLt63mrM+Su9V30rOuV/dpOHZtoY6qNJVuz3ZA+9AjDMp/pX6F60mEH9+3f3qUH5TzR1ovKNJxi/acVzprp9IBdbUNvm93q/f3bOOqur6Nqz05Xf2+vAqzZ12v0sb9vYJIRJvYs7ypc4+qNjG+aTbVB6GuLxpmpBvaRJNWF/5edZy+We5G3nOFwdT1LScVDsOsdbvl/ube5Q3PrdR3ZaF0Q0dXxHrSqevR/rKpPmhVkbx6l/pGXq/y4/lfTJLhqsxHm2gKZ2xH1aFDBwnNmzdPNmwo/KE5WiicgwMaQz8oUfOYKgDvqkaBTd7+A7JmW44W1Pjg2g4fS1tMGVCAcM3tf5lq1Lh77wB65JerxoPbP+6xIbNwYQToRcW93P7xjqvVu7rJV2HANa8w4LlePV/owY8UBnclB9Cj5/VOuAfu5Qa9nl5hNu+JeHcDcRspDG5BCBB3XmHAObfFGSBtIoVhs0c6oAEa6f7rduYUamQDNF6QPu4wwP8a9UF191gC9FC6n2HiyCvdMBrA650ixREaxZ7+VTxs9YgjfKTN823/uMda9a5uYMXDdbd/cw93bzka2qnbi/qHQ9q4e5oB4mh5pDB45FWEOVI6o2HjJpxXC/uFwzviN3n7iqYbGrZe8YrnuhuDAL30eF+3f6Sb+4MMIGA8w6AcwuDOe7AU4n280gH/I53cQPS5wwD/cLtzi4YBce0VBtzD3dkBcI9I/tN3F/W/N39/wfPd/pEHXFkpXHcjHVz+8Xucd+c9xBnKrTvMcDjntiri17AeePlH2ritxwBlyss/8pfbIgdwj0j1pFddj+8RwuuOIzjcx6teRUdppDC4LXIAlhSIXbd/3APp4AYjKrz8m3d0W5uAfd12uI/bWgsifXMRZq86ACMmItUBtvA3IF690gH+vSyjwKuuN+nmVd68wgD/cHs86m7kJa96Cffwynv4vnnGkYoHrzhCHWOeb/vHPWCBd4N6MlKY8b9XeYOlzl0+4ZA2GK3kJmI6K/9e33Sci5TOSDc3yKuRyht+405nBGlNhHZJpDpgk2pLeD0D57zqAHxzPcOgnFc9hk4fvKtXOsB55T2dDq541WFWzqu86TZrhHfySgd8tyOlAzpI3XV3boQ2K/wj7x1wpUO43eAdBsSRe/QS4ixSecM5rzjCN9rtHy5SOuu2lbpuhwF5ZaYS7cMWbytUtyL8MDJ41Z9HQrSFc8E+zgcOFI2Qo4HCORjM37RH/vndHLmr8UzpOn2zrhAIIYQQQggh5FgCI8jHg1bJJfWmyaCFhUejHAnRFs7cx5kU4YeU9fKHGhOKDMEjhBBCCCGEkFjw88SN8pvPJukpCUdDNIUz1gMbPHiwhDZv3ix79uxxTpcOCufEBUNiMa/4T7Umy4B5hee4EEIIIYQQQkgswZDzW7+bLU+3W+g5FbQ4oimc8/PzJS8vT0IYr83FwciiLXvkr99Mk2lpmc4ZQgghhBBCCIkfmDN9Y8MZ8n6fwmsuHY5oCmdDqFOnTtyOiuiFCrwW3CGEEEIIIYSQeDFt7W65oM4UWbyl5KOkoymcYW3evn0793EmhBBCCCGEEOJf+s7bKktd25oWRzSFM7SyXlWb+zgTQggh/gRb4GD/8wUbsvQe+iRxwdY641bsLLLVTCzBFnzY3/tI5woSQkiiEU3hXLCP86RJk2T9+vXO6dLhF+GMXoH69etLrVq15Msvvyxw9erVk969ezu+RBYvXizffPNNIT/GX5s2bRxfIgsXLpRGjRoV8VenTh19fseOHY7PMGvXrpWvv/66kF/4W778yMbmx4LWkzfKmOWF358QQhKFjZm50ihpnXw1Mk2+HpYq3WalO1cSG+ypWntEqtz23WwJvZ8kJ1QaJ++59tQniQOmQz3WZoHUHZHmnDlE85T18rVKa+Thb5PX6f25bZan75Wv1TVch2ui8nuWup8XWKek0WjVBhmlyoNy9ZVrpu65cVd4W0nsEXvGpxNk1LLt+pgQQoJKtIVzwT7O+/d7V8BHil+Ec/fu3eWcc86RGjVq6PeBwIVAvv7666VcuXKOL5Hvv/9ezjrrLC2wIZbhr3HjxnLTTTfJqaeeKgedbuHmzZtLKBSSmjVrFtyvQYMG8vzzz+vzS5Ys0f4MX3zxhVxwwQX6nhDwH3/8sfbXsWNHx4c/wHZT1zWcIX3ncxVtQkjiMSU1Uy6pNVnOrjlJXu+2VB5tOU/+9Pkkea3rUr1TQKKyI3uf/EMJ5su/ni4DFmRI8oqden4XrIUkMVm7I1eO/2i8zFy32zmDdM6Xx1ovkDOrJMuDLebJM+0XytlVx8tzHRfp6wdUG6T1lI3y+2opctU30+XLYWv0yrKnKz83NpmlBHXRIYu3fjdLQu+OldM/najdyeq3oddGyuhl4Q5yfPcr9l0hFbov1fcnhJBEY7v6Rpak+oq2cMYo7UDu49ytWze59957Zd++fc6ZMJ999pk88MADzlFYEN9xxx3O0SFq166thbcRzi1atJDjjz++yP2Sk5O1IHZbki+//HJ57bXXnCORzMxM7a9r167OGX+A4VoPtZrvHBFCSOKARv8FtafIX5WggBXNsG5HjnyXvF725CXuUNRfZ26R6xvOkPwEFv+kMPVGpcm/f1kk+5RwBRgq/VLnJfLXr6fJpp2HFubcqRqEP03YqP9O254joYrj5D9KSDs/02Rk5cv1jWbKE20WSo415BpNlrNqTJTPhqzReQdu0eZsCX2QVCCcQZdZW/R90UFDCCGJxrOqLv1qVKpzFJloCueVK1fqUcshiLq9e/c6p0uHnyzOd999t2RlZTlnwnz66aeFhPMPP/wgt912mxw4ULiBBYvxueeeW0Q4u+83atQoT+F86aWXyuuvv+4ciWzdutWXwvnDfivlMvXRJoSQRAPDVWFRW7Q58rzfGkNWaytd85QN8nTrBfLQD3OkSt8VkpN/qM7fqkTIB31WyIsdFsnzyv2302LZsbewoJixdrf+7YMt58vDreZL+eZzpMecQyN1us9Kl4fVtVe7LJFHfp6nh9sWB+YsP9F2ofxXPe+JFvOkqqqLjQDKztsv5b6fLZ1mbJZBC7fJXd/Oktsaz5TOM7bo64Zus7fIvQ1mSM85h4am7807IP/rukSebL9Qz402ILz/67pUXlCNjf+2XySV+q3QQ4dBelaePKLeAdZ7w8bMPHlPxYlZhGWv+n3NQavl6Zbz5H8qjPequOg1N73YHv9Z67PkkR/n6c7Zh1srp+Ksy8xDYZiSukvu+nGuvPzrEnm67QJ5Vr0z3sXQbNw6aTi2cDy+1m2Z/OiIysUq3TF0fduefH0MEIf/ardQxxvA897t5T28fdueffKICs+E1bv08e6cffKYSpPXui0tlD8w9P++b2bIL9M2O2dEvcMGaTBmrXMUZuji7fK0Ss9IYvRPtadoK68hQ703LMO/utLV5jOVf6+uP61QWhq6Qvyq36fvPhRn4NzPJknt4YcalKszlPh2CWcM57647lQdh4QQkmi82Hmx3KG+Q4cjmsI5Oztbdu/eLSGITJifo4HfhDMCaPPJJ594Cmf3UPXPP//cUzi77zdy5EhP4XzFFVdIhQoVnCPVMElP96Vwfl81jJ75ZaFzRAghiQOE4CX1iu/4e0CJ2dBLw/Ww5z5K6NUbkSqh/42UVpPD4gvcp4Tu5V9Pk/kbsmSyElG/U8LjrZ7LnKthMFwaIuXzoWuUmFur//508KHdKPD3N6PX6nnJ3yevl3NqTlKC1nsKzPqdufJ7df0h9W5T1uySjlM3yV+ViHlCiUcA0X7mpxPl0q+myX86Lpa31bv8q80CObvGJOk4/ZB4Q8fn76uOL/SuKzP26sbETU1myeBFGfoc7gchDTE+e91umbl2t443Mxw4Tb1z6PXR0mde2D9YvnWvXKz8THRE5bL0bHlGvUOfOVtklXrGC78uljM+TpH5xSxWNnjRNnXfUfLxoFXSCHH2fpJU6b/SuRru1HhVpeESJd76z9sqp1dN1hZYA6yzEME2v1Fp87+u4fBixBTEH+LTgM4AiMSmSnQDpMuflR8v1u/Mk9Abo5UADXc8YMoSRCf8L996aAg0OlXO/mSCVFT/G5D3HnfSC6DT4cQPk+UkFSdYAMyLaxvOkHesOeo/pmxQ6TxB5YFDHRZu/lBrinzQ99BzbQYu3CanVsPQ78K/P0eF4TOVTw2YH+0WzmjaPNBinlQbGJ2FYQkhJJag4/A/nRY7R5GJpnA2hDDvNmirasdTOO/cuVOuvvpq+fbbb50z/hXOaMTUH110oRJCCPE7b/ZYdljhDAvxdUoIwapseLXbMinXfLYeMtt/fob8qc4U2WjtYT9Jidm/KCENsWiA0H5aiU/Db78oLE7c3P3TPLm9uXdveNUBK+X272YVml/aftomCVVO1nvpZ+bul+OVINYiy7LowpppRCDmOqNToPmEDfKHL6cUWN1x77d6LNdxYxYSG7t8pxattsActmSbEsZT9QJTsC5j2O4oS1ht2p0nNzSZWcgKbYN3DL0zttBv3IxYsl3O+3yStlaDi+pMLVaoPa5EcjkrziCqX1HO5tKvp6t4CQtJpNPfGs+QXTmFLbwnV0/RFmFQb2Sq/LX+dD2/GOG3rcFYLCtUaZz0nhvu4Hin13I92uA9df+3HSv1mu05cqHKH3XUfZ5X18yogHdV3OIYZKrn3/LtbLnn+9nyRyV07WkDhn37D8g1Sjh/YnW23Kx+gzSwLeZuzq81WSr3946z+Ruz9O/7qTxsGK7i/LKvpsk0K928hDNA/vmHegdCCEk0Jq7aWeT74EU0hTNGJ2Mv50Du4xxP4YxFyLDgGDbJNvhVOFfqt1LqqgYBIYQkGm8ocQirbHFgKHD5Nocsg2D8ql0S+jBZCx5YkE+pMl7qjFgjnwxaLTWHrJaKShSF3h4jg53hvlhM6TYl6GA1NUAQ4reGPUpIoge8/dRNSgRvliuVoHnCZS0F+KScWWOiXi3bBu8Ci+TXo9bqeal4P1sQgTeVIP6zui9YsGmPHKf8YEcEhNFYojEsGkIQ87/KO+tXQDBBOEMMYugvwviSEn1/VKIMYnJLVr4cr+IAC6r9pATn9+PXy6eDVskFSjDaC1mt2LpXOk7eqMOH98Q9k1bsdK4WBp0C7/dZLlX6r9BhBpiP/rFLOPeZt7Ugzq7+epo83PpQWiF9b/hmun4fDNvG8Pdzqk+Qyuq7BTDcGCLxcxUeXINDR/DxKl5aTgqPKGiStFZO+Wi8jos7f5gjx1VOlp8nhkV1gXBW7wBgQX5EPf/b5PXy92az9DkMo36u42KZvX63/LbmpAILO4TzC7+GreOwSN/+w1zppe4Di7WXcN6qxDFE7hdWnoF1HfloWTF7kv7hy8mFrPQ2Y1Xan6PyUopqQBoQNxDoNpGEMzqV7lTvTQghiUYyhHOX2ArntLQ06dGjh4Tat29Pi3MUhTPmUWNhMRu/CmcM9UMDixBCEo23ei2TPyphAWteJCAqMb/WJlkJ5xOUgILVFuL3rGop0laJN1gp4X5O2SC95myVnc4857x9BySkhOXPEw8N77aF87bsfC26bvt+tjRXIg/zqS+vM7XIMGOAT8qpn0yQuiMLj/TJyd8vNzaZqQRpml4NHEIHotLm9e7L5CLH4gwBh+Hiq7flSJspm5TQmylDF28rsEg/2maB3N48LIogrnG/OiPSCsLYUjncH1+4dUo8n6DCB0v1D+rd4WoNWyMXqnsZ4bxICfW/qOOPlGBE+LD4VHHCGWAFaTNkGriFM74/6PgwcYbOhvIu4fx3JQLNO8Gdp4QzfgemKuF8ufr9VyNSC67jeSd8OE5aOMIZFmcMw8/Ykydrtu3V8+LPqTlR+s3fqtPfFs6PqDjDkH6A38B6C7EN4Y4RC4hvI1JhnX639wo9hxrhwnzl0SqeMefeSzhjCPkV9afpTgvDjLWZEqo8Ts+NjgREsD3SwabbbNWuUO9kDw3HEHIslmdTnHCmxZkQkoi0U9+9kuiXaApnGJn1qtoQf+vWFb+QSUkpq8J56dJwrwcmjl955ZXStGlTfWzA/eFv0KBBzhl/AAsCFwchhCQiySt3Sui9sUWsmAD1GqrvB1vOkxsbTNcLbhle6bZU7m0xT//dTgnm85XwKW7rqoELMvQKxhjSbPitEs51HKsxrMcnfJSi/zbc9fM8PYfZCwy5ftwSiACraIeqJGsRhHe5+dtZUnlA4XBBFF3piKK5G7L0nFos3jVpTaaU+36OVFHxgOHNAEPF73CE8xAlzEJvji7oCHCTijnOH4yTJBWfBgjBG5vO0lZd8HKXJfKCNZ9Mi04lnMdGEM7TlSjEYlgYTm3AkGcjHLNy98llX00tGFINHlMC8c4fD1lAEV4sBmZzGYZq9woP1Z6o7n1D4xmS7drzGEO1f3Dui7RB2tlcpfIDhrLrDgpLOGMeONIGYIQBFkfDXO6MrDxZkp6tRaqZ8125/wq5T73r9Y1mqLQLW/sxQuCMCMIZYEQBrPAGiOlza0yUt50h9TarlcgHveZuldBbo6WfyoNu/q3eFWI8Mycc/vW7cuWi2pNl1NLCQjx9txL9Sjijo8GAURR3/TBHW9MJISTReEaJ5rut70UkoimcC+3j7N5m6Wjxi3DG8PObb75ZbwNl8+GHHxbaxxkC94YbbiginKtVq6aFshHO2O8Zwtd9v6FDh+rzGzZs0CL63//+tz5+4okn5JVXXilw5vx9990nbdu2dX5NCCGkNHwxbI22lkJEtJ68UZomrZMX1QcV1l9s3wNhgAWqIGJXZ+yVlhM3SujVkdLSWRwM85yv+HqaXFprisxen6X3huw1J10LagALI6y4j7WdL2OWb5dhi7dpyy4s0Hjmqoxs6QHLnzruNH2zbFeC87vkdXKqEqL2sGMbiMlQhVF69WY8b9zyHXpIMsScofc8dc//jZRvRqdpPxjie8GXk6XbrPAKzLjH79Vx6vYcfQwL8xlKBOL9AKzhmGONTxgsynep+Lhbucnqd7gf3vkjR5hjQTMsklV4cbBsbQ2Gf4Bh0FeoeMC878278/RQ5dBro4pYMQHmW0Mkwlo7dsUO/U5wWDjrMfWeCzft0VsxXadEJwT59ux8vZDYHz8aL/c5HRoAC6M92b6wReG8zyfrOeoAaXNpvak6fAbM2Q5VTNJDuwHmoV+oBDyegXA3HLNWC3gIe6QVRClWB0deQScLFoEDw5dsk5MrjtMLaAEsiHZ85WQ9PBp8NHClSp8RUslauEuL3MrjZdMub+GM0QKvW2kMvlXvGXprjN6/GUPWsUI6VnZHeoLdShQ/rvLumR+Oky9VWDCsG2n3bOv5SiRPKZiHj/d+SDUiQ++M0fkI76VdvxV6SDiegfnb8zaGdwbBQnhXKtGNeCCEkEQDwtke0RSJaAvnwO7jPHbsWKlUqVKRbbZatWolVatWdY7C7/vee+8V2Y4K4vbRRx8tEM4DBgzQFmxYlG2mT58ud955p+zZs0eqV6+uxTGOr7/+er1AmHHXXHONPn/CCSfo/wkhhEQHiOVrlCi5+6e5cluzWfJ0u4WyZHO4roYQe1C5TwetlhfU+Xu+my3vKsFqb++D4ci3qN89qwTLq+raQ0pw1huZJvv2H9RzTK9UAvLpDgu16IOggcMQ8CuUALtdiUN8JiBC7/1+jryqxN7nSsy/o8Sdveq2DeYw/5yyXv7ReKa2ED/x81yp7rIuw0L+af+VcmfTWfqdbm4wQ1pY1lmsxg1rKiyHAEOQX+qIrZDCC01hNFE1dU9YhgEW83pIxcNT6t1xvwfV+7/prMaNYch3qngx1lQA6yX8YYg2QHxhXvTzSuBhQZa66tnYPsqeAw12KaGHla4RZxi+/phydpzdpAS1WTQNIwbuV+/06q+LdSfCD2PXSmMVDkP9UWl6eLkNOkKajluv/8Y871e7LtHzhw3YRgqrpPd1rMiY732/ei7iGe62b2fJqGVhiyz2Qr4TnQmpu/QccwwNxwrjYMXWbLlbvSfeEezau0+J/KUyywkvOhKqula7TlHxh+HPEOReoKH3tHL2vsvIC0PmZ8gNKi/cq94TeRX7dxtLP4BlHHF0S6OZekGyB1V+ue3b2XrBMwMs4ydVTNJl4P9UnsH9tGsyU25Sx5jLjBECbzmLnkGgwwqNkQWEEJJooO6yF9iMRDSFM6Y1d+vWTUK5ubmSkxP+WJQWvwjneFCxYkW58MILnSNvypcvL3fccYdzRAgh5FhylxISWDDraND77FZKKrDyuoG4xvxWcghYdTHs+xdr2yybcSt2yM3NZhc7ND6oYD76yVWT9Z7g0QYLlb1obeXlBUT0v52h2RipAZFu71dNCCFBI5rCedeuXeE1q/r37y+pqdFZWbksC2fs23zKKac4R9784x//0NZoP7H/4EH5aOAqmVzMXpKEEJKIQCyYFZKPFFgkMZS3jbXnsw1W4T6r5kTniADsGY25wFioy4uhi7bJ1Q1mSG4ZFM7Yluu272ZLreGpepRCNHm87UK9InhxYDuwp9ovkrz9B+S06il6ygEhhASZaApnQ6hDhw6BW1U7HmC+c5MmTZwjb7BnNsbH+w2sDnrPz9yWghASLDBXGXskHw178/dLbSVy5qwPzwt1M27FTr11ETlEvhJljZPWRrSqrszYq1cBN0PMyxpYoAvDvEsyxPBIwJB0rARfHNiGq+/8DMFiam1VGpj9tQkhJFEYtHBbkb37i+OYCOcg7uNMjgzs5QkrQDWP1WkJIYQQQgghJF50nbVFLqk3VXZkx0c4YyFovSg0ltamxZmsyNir5+s1T6EFhRBCCCGEEBJ/zBaHv87wXj8jEtEUztDKbdq0kVC/fv0kLa3wypVHC4VzYoM5T8iYtYatcc4QQgghhBBCSOzBFpF/qjVFag5ZfcTTXKIpnAv2cc7Pzxe4aEDhnPhMTc2Uv30zXSp0X6a3yiCEEEIIIYSQWIH9/msNXyMXKtH8Y4QFJw9HtIVz+/btg7mPMykdm3fnSY/Z6bKvjC7gQgghhBBCCIk9qzL2yqM/zZXrGs2QRZuznbNHTjSFM4Zqd+rUSUIHDx6UvLw853TpoHAOLqOX7ZCWyeul88wtsnxrtgxcmCHDFm/Tw7tth/Nb9xQewZCVu18GLMiQ7nPSpdfcwg73W7hpj+MzDAT7mOU79EIAbv84l7xyp+PzENPSMj3991DPHKie7d6vcvGWbOk+W/lxvVNPdYzzGzMLl4l1O3PV9a36frZ//B7PXbCxcBh27t2nw1zEv3Ld1P3Hu8KQr8I8cun28Du5/OMegxdtk+y8/Y7vMBgd0HW2d5h7z9sqm11hwIq2Oo5c74Qw4zcrtu51fIbBnqwIM67b/uEQhlnrCq+ci63Nhi/xDgOeizC7V9NFunXxSDfcA/nJHebV2/Z6+g+/41a9hZBNZs5+fd4rDLjPahUnbhAGhM/t/1eVV71WC56uwoB87PaPe+Beblao8lNcGDJdK0Zu2Z2nz0cMg4oTm92qvA1R+cUrHeAfcW6DkSVJK3bo/Yrd/nEPhMGdbgizVxzhHfuovOdevGPxlj36Xu4w4Bj3WeUKw4ZduTpPeoW5m8rz013psEflkwGq7vEqb3guwucOA1bF9goD/CP+ducWDsO8jVme6YZn9vUobxtVGPT93e+kjvEMlEcb1FGR6gw8d/b6onkPYfCq93AuSV3D991mgaprkY/d/vE+XvUk8p7X/REG5JetrvKG3/ePUNfjue4GEF4P7xkpDONXFa3rUe9ESgfEH6wUNqjXED6veg/nN7nSDcfIw5HSAXFogzoG9bN+hss/4sj9vUJdj++bl388E6vGYkV3mymqrke+d/tHGPAb5DUbfKPh36u84bmLNxcOwzb1zcbK3N7lLb1InYFv9LAIdT38j1Xhw7ZXNgiDVzrjHog/d72H8uGVzuF33Fok3fDN7TnHOwx47nLX9w15D2HwqgNQn3vV9YgHr7oe98f32w3C4OXfhAFtIxu0nYqr61O35zg+w6DeK66ux7xQG6QbvsOR0mGECoOrytDlzevbgHdEOUG82yxLz9Z5skgY1DHaK+7vFdIR7RWv8gb/7roecYZ2ppd/hAHp4Db66O+bRxzhHqgzdrnCMG9DVjiOXM/Qz1TvivagDRbYxbO9wozzaG/aoF2DetIzzEg3V3kDKFNe6YZzuLbPNUIU3yuvvIf3QV2f5WpbIR287m/CkL67cF2Perb/fO8woK5f6gozQDp4PQPvOcLVVsK3Z+yy7UXq8yMlmsJ527ZtempzaNSoUZzjTA7LOFXZVum1TK6oP00ajFkrZ9ecKL/9fFIhd55yZ3+cokW2DSrv334xSU76KEVOrT6hkDvu/ST5fGjhOdWr1cfh2oYz5ISqyUX8n1A5We7+sfDWWWi43PPTXH3N7f9k9Uy8Fyo2mzd6LJOTqiTLKS7/OD7pw3HST1UINs3Hr5dT1fucrMLn9n9CxSSp0n+l4zNMyqpdcnb1lCL+4U5Uz731+9mOzzAQqVgt8KSPxhfxj3ucq+IbHySbJ9svlBMqjSsShpPVc0+rOl5XdjZNx62TEz5I8gizek/1TtUHFV4kEML8VPU+p3iGYbw82npBoQ8Utjm54pvpcpJ6ttv/Cerc1Q2mS+qOwh/+FzsvkeMrjiviH/Hwx1pTZNKaXY7PMC0nb5TjvcKAd1QOH3Kb+erjgfOnVCsahuNV3GFrGJs89fG5rtFMnUZu/8d9ME5eV/nGzcsqDMd5hAFxdG2jGUUakHVHpqpnF72/CcN8VyfML9M2hcOA67Z/5RAXLScV3mcY5e83Ks+fVK1oOiCuEec2q7fl6HJ9oke6IS3/Un+6bqAZkOb3t5inw+f2j3c8TT0Xecfmw34rdLkqmvdUPKl3Qt60wQIgJ2v/RcN8ojr/lMr7NsuUUDi7xkQ52SOdkZf+qvKlW8zf+t1sz3RGvP1GlbfJrjBUVmXcK++hfJ6untHatd9zv/lb5USP8olj1D0V+65wfIZBHYW6CnWW7R/u+A+T5ekOC4tsIXQ36j11ze0fdeEt385SwrawuPhM1bXHqTC4/YfL22RZ7qpj0GmC+xcJw8cqHdQzIABtVipx8vsvJnvX9eq5dUakOj7DZCihgPf0qrtPUOn8YMv5js8wCP8zHRbp+HD7R7z97svJRTowKql4PknlVc90UM9AB51Ni4kb5HSVB7zqeqS/u55MWb1Tzq0Rzje2fzjE0e3N5zg+wyDMKFOedb3Kv+d+NknWqDJp82ib+Srfe32vVN2twuCu6+uPTlPlyquuV++p8mTVAYW/VxNW7dTfjEh1/f0/z5MDVl0PkXvpV9M86/oTVbguU9fcAunZXxbp75XbP+LtXFV23Z2MP0zYUExdX7S8zVQC7xT1bK8wIA9jyKdNjmqQX6W+SV71GOrzl7sUrifBK+ocvgNu/8i/NzadWUSwfZu81vPboL9Hn0wo0oGBOgPv7w6DyXvtpxbeWg+dEX9Q5dYrLx2v0v/Vrksdn2GQr67Rbaui/lFGcA1byhnwPSzfWuU9j3oS73iacu4OdOStk1V8eOU9tJWQrjYQTaepZ6PdUsS/yi/PdVzk+AwDQ8vZn6q63iOdkR+R92whjA7Tm1TaeKUz7nG2+t9d17/fZ4V+V3cY9DNVXPzkCgPEI8qVV5hPUnHxZs/C7QZ0gKAN7fW9QrsX7Vl3p8ptqh7xrCeVf6Sb2wiAXXIi1fW/U+1xd2fYoEUZus4tEgZV1yNeIbZt0Ln9W1XXe32vQqpdX39UYV0JAXzHDyoMHnU3ysi9qo45FkRTOBtCGK/NVbVJSYE1CwUavU/oEXK7dNVocfcQ4RiWCS+XoX7jriBQWXv51U49FyLTBhUjrsHaWMS/cunKua1N27PVNfVsL/8477a8INyR/CMM7t5yhDk90v1VYxaNJxsseID39PYfjmv3nHMIgeLCkJ1XOAwQP8X5d/cc43kR/SuHMNi90/gb57z8wiEMSFsbfOAQf17+ER9uoZCtjiP5h3NbqHUYPPzBeeU9hGEb8oZKIy//7nQGxYUB93L34KOjJ0PlYy//cO50xjt6+YPDcxEnNogDxHUk/+7edTwvkn+4I01n5Ht3OiNvFZf33OmAvFucf3cdgAZr5PIWzkvuRUVgZfNKZzjEBxrWNuF08/aPZ+9W123w+yMJg6nHvBzqNryvOwyoA7zykvHvbsgjniOFAdYud95DPRapXoVz1/VHWt7wfnhPr2fA/w5XXkVwUHcX907uOEI847vh5Rfp4A4D0jlSXsI74Vtgg3SOWH7Uc1EH2CCdi6vr01WedKfb4cLgrid1nRHxnVQd4KrH8orLq8rpOsDxCxDFXv6MQ3y48xLqgEh5D/7ddTeOI+ZVFUfudAjnPW//yC/uuhthCNcBHv7Vc931JEC8RXon5EtX1tPf3MhhKFo+db3n4Q8O93GnM9opkfKSDoM7nVUcIa4jlR/Eh/1Gh0tnlBOvdC4u79mdsOBw7RJ3HYDnFVfXw9nRij8P971y1wHFpTPeyZ33kC7FhcGrro+Ybs7/RdusxdQByrm/uXjH4vKe+/um6/pi/LvzXrHfK3Ufd12P4CAMkep61LvHgmMinLmPMyGEEEIIIYSQoBBN4Zyeni4TJ06UUMeOHSmcCSGEEEIIIYQEgmgK55UrV0qrVq0k1LVrVwpnQgghhBBCCCGBIJrCuWAf5927d3NVbUIIIYQQQgghgSDawrlDhw7cx5kQQgghhBBCSHCIpnDG6GwsqK2F8759RVcPPBoonAkhhBBCCCGExJNoCuctW7bI0qVLJTR58mRZu3atc7p0UDgTQgghhBBCCIkn0RTOhlC7du24jzMhhBBCCCGEkEBwTIQz93EmhBBCCCGEEBIUoimcd+7cKYsWLaJwJoQQQgghhBASHKIpnDE6W+/jjKW1salzNOjTp480aNDAOSKEEEIIIYQQQmILNCm0aTQo2Md5w4YNsmfPHud06ejfv798+umneuUxOjq6Mu42b1Jus/c1Ojo6urLmWCfS0dElkkOd5XU+QRw0KbRpNCgQzs5xVBg7dqyEQiE6Ojo6OfnkU+S0k473vEZHR0dX1tyZp50qoeNYJ9LR0SWGO/3Uk+UEj/OJ5KBNowGmNbdp0yYsnA8cOKBPlpaMjAzp0aOHdO3alY6Orgy7nt27yQMft5BLX2kofXp29/RDR0dHV1Zc219+ldATX8vn33eUbh7X6ejo6Pzk+vbqLr99oZG88NkP0kO16bz8+N1Bk0KbRoONGzfKrFmzJDR//vyo7eNMCCGGcj8vl4sbLpK9zjEhhJRVxq7bL8dVnS61x0WnEUcIIceSTXki5305V17qvcE5U7Y5ePCg/j/Uvn37qO3jTAghoP3UTRJ6Z6yE3h4jX41Kc84SQkjZ44BqcN3UbKaE3hwtZ346UdK25zhXCCHEn7zbe7mE3hgtoYpJMnH1Lucsiep2VIQQkrf/oFzVYLqqbMdp9+c6U2TT7jznKiGElC16zkmXkyqp+rDyeDnunbHyYf/o7GRCCCHHggWb9sgZ1VJ0nRV6P0nuaznPuVJ2wULa69evp3AmhESX1pM3yQkVk1SFmyyhqqrSfW+sNBjD6SCEkLLHnrz9cl+LeRJ6d2y4PkRn4heTZcVWTmIhhPiTV7st1W03XWd9mCynV0mWoYu3OVfLJhid3bZtWwm1a9dOVqxY4ZwmhJCjZ+fefXIdrM0vjwgP1YZ7baSc+ckE2ZRJqzMhpGwxYEGGhF4dKaG3RofF8ztjJPTCMPl44CoJz5gjhBD/MGPt7rBorjCqUJ11909zJSt3v+Or7FGwHdXixYtlx44dzmlCCDl6+s3PkFc6LpZGY9fpuc2N1f+Nxq6Vt7ov1f8TQkhZYd+Bg/Jat6VSd9gaaZwUrhPhGo1ZK093WCirt9HqTAjxD1iP4dPBq6V6nxXSSNVZdUemShP1P9pvT7VfKEkrdjo+yx7HZB9nQkjZBhbnSKRn0eJMCCk7oBG6NSvfOZJCFubs/P2SlVd2rTeEEP+BhaO37TlUZ+3bf6jWyld/7y7DFmdMa27dujWFMyHk2AARnbsvOnvEE0JIopOhGqSZOZE7FwkhxC9ARG/Znaf/J6IXBktJSZEQJjvjgBBCogmFMyGEHILCmRCSKFA4F2bfvnDdHerYsaOsXMmtEQgh0SU7b7+qcFnjEkII2KVEMzsTCSGJwvbsQ8O2SZhQp06duB0VIaTU7M3fLyOWbJcVW/bIhl25sm5nrq50N2bmybx1u2VKaqbjkxBCgk+OEsmoE9dk5Eh6Vr6sV3Vi2vYcSduRK9PTMmXhpj2OT0IIiT8YKThpzS5Zs3WvbN6dJ6mqvtqlzq1VddeElTtlVUa247PskZOj4mLXLu7jTAiJDjAuj1+1U87+OEV+U2Oi/OO72Xr7gt99NknOrjpees5Jd3wSQkjwQZ1Yse8KOa7iOLn866lyf4t5ck3DGXKSqg9vbjZbdnPYNiHERxxQdVbTcevl5A+T5YJaU+TuH+fKrd/PltNUnXXN19Nk6ZayK5yxqjaMzdzHmRASNfL2H5TnOi2W0JujJaQai6EPlHtnjJT7fo7jgxBCyg5rtu+VUz6eIKH3k8L1IerFd8ZKt1nsSCSE+A+snH3JV9PCezijzvpA1V1vjZG6I9McH2UTCOf27dtLaNKkSbJlyxbnNCGElI5paZmqoZgioQ+TJVRlvG4wjivDe/8RQsousDrXGLw63Jn4kaoPVWP09uZz9BoQhBDiR1pO2hgWzlVVnaWE859qT5Gc/LK9PgP3cSaEHDP+3XFR2MLy9hh5ot0C7ldKCCmzrMrYKxd8MVlC742V4yqNo7WZEOJrsJDhjY1nqjpLtePeGSvfjFnrXCm7cB9nQsgxY9raPXLch+PlrKoTZOTyXc5ZQggpm1QbvEZCb4+Vv383V7jXACHE77Sbli7HKeF8cZ1psnE3V9deu3atDB8+XEKbNm2S9HT2fhJCoke+ahk+8csy+T/VSCSEkLJO+p59cspHk6T73O3OGUII8S8YmH3RVzOl5rCyPbfZkJubq7dYDXXt2pWLgxHiQ8aPHy//+c9/5KmnnpKnn346odx/n31Krrz/v3LNPU/Ks08n3vsjzp999lndu0gI8QeNGjWSf/3rX55l1u/uyX89KRfe9pTc8/hzCVknIt7feecd2bhxo5MahJDiOHDggHTs2DFh66xnn3laLr/rabntoSfkGY/rfndPPvmkvPTSS3pucjQJIVG5HRUh/gOi+cEHH9SNxUR03zVtLM2bNfa8lgjujTfekCpVqjipQQiJJ3l5eXLPPfdI7dq1Pcur311j5X74tok0bex9PRHcFVdcIW3btnVShBBSHFlZWXLnnXfK+++/71meEsGhDfdtk8Rtx917770yePBgJ0VKR35+vuzbt4/7OBPiV5555hn56aefnCMSa2bNmiXVqlVzjggh8WTPnj3y8ssvO0ckHvz73/+WFi1aOEeEkOLYvXu3Nn4sX77cOUNiTbNmzaR3797OUenAHGfcK9ShQwdZuXKlc5oQ4hfQSEGPGYkPSUlJ8vHHHztHhJB4kp2dLS+88ILs2LHDOUNiDYactmrVyjkihBSHEc7Tp093zpBY89VXX0nfvn2do9IBIzNG3IQwh2/9+vXOaUKIX6Bwji8UzoT4Bwrn+EPhTEjJoXCOP9EUztzHmRCfQ+EcXyicCfEPFM7xh8KZkJJD4Rx/jonF2TkmhPgMCuf4QuFMiH+gcI4/FM6ElBwK5/gTTeGcmpoqvXr1khA+Qrt27XJOE0L8AoVzfKFwJsQ/UDjHHwpnQkoOhXP8iaZwxjcoJydHQlghjPs4E+I/KJzjC4UzIf6Bwjn+UDgTUnIonONPNIWzIYSJztyOihD/QeEcXyicCfEPFM7xh8KZkJJD4Rx/oimcDxw4oP/nPs6E+BQK5/hC4UyIf6Bwjj8UzoSUHArn+BNN4bxhwwYZOXJk2OK8atUq5zQhxC9QOMcXCmdC/AOFc/yhcCak5FA4x59oCmdo5datW0uoT58+em8qQoi/oHCOLxTOhPgHCuf4Q+FMSMmhcI4/0RTOBfs45+Xlyf79+53ThBC/QOEcXyicCfEPFM7xh8KZkJJD4Rx/oi2c27dvz32cCfErFM7xhcKZEP9A4Rx/KJwJKTkUzvEn2sK5U6dOEtq7d6/+IBFC/AWFc3yhcCbEP1A4xx8KZ0JKDoVz/ImmcM7KypLt27dLaPDgwdzHmRAfQuEcXyicCfEPFM7xh8KZkJJD4Rx/oimcDaEOHTpwOypCfAiFc3yhcCbEP1A4xx8KZ0JKDoVz/ImmcD548KD+n/s4E+JTKJzjC4UzIf6Bwjn+UDgTUnIonONPNIXz5s2bZcqUKRLCRGcKZ0L8B4VzfKFwJsQ/UDjHHwpnQkoOhXP8iaZwxj7OqP9CnTt3lpUrVzqnCSF+gcI5vlA4E+IfKJzjD4UzISWHwjn+RFM4F+zjjBXCcnJynNOEEL9A4RxfKJwJ8Q8UzvGHwpmQkkPhHH+OiXB2jgkhPoPCOb5QOBPiHyic4w+FMyElh8I5/kRTOGNac9u2bSW0f/9+2bdvn3OaEOIXKJzjC4UzIf6Bwjn+UDgTUnIonONPNIXzrl27ZO3atRIaM2YMFwcjxIfEUzjPmjVL2rVrJ1g80Dj0tM2fP9/xcYjMzEzp1auXbNmyxTlziBEjRuihLfj98uXLnbNh0BDGPvJLlixxzhQFH5yBAwc6R7GFwpkQ/+AX4bxw4UJp3759oboR23pOmDDB8SGyePFiwY4l8NevXz/n7CHS0tIE68ugbuzatavs2bPHuVKUbt26yU8//aTr5HhD4UxIyfGjcMaaVh07dixSfw0fPlxyc3MdX4fo06eP/Pjjj9KjRw/nTBj4nzx5snNUmNGjR+sVqP1ANIWzgfs4E+JT4iWcMQLl8ccfl+OOO07OOuusAofj//73v46vQ3z66acSCoWke/fuzplDXHHFFfoafl+uXDmpUKGC7Ny5U18bNGiQvnbjjTfKhg0b9DkbND7/8Ic/yGWXXeaciS0UzoT4Bz8I502bNslFF10kxx9/fKG6EfUYGsiGqlWr6nOnn366nH/++fLEE0/IpEmTnKuiBbW5/pvf/EYeeeQR3UDFCEDD+PHj5c4779TX8by//e1vOvxejdtYQeFMSMnxo3D+7rvvCtpkxp122mly4oknSv/+/R1forddeuihh3Qb7OSTT5bzzjtP7r//fpk4caK+PmDAAF1/uY0p6Ay85JJLJCMjwzkTX46JcOY+zoT4k3gJ57179+oKE5ZeDE0xDhUlGk524w4fhqeeekqeffZZueeeeyQ/P9+5Et4sHqK3QYMG+vewOJ966qny1ltv6evotEMFfu6550rPnj31OZtnnnlG/vSnP8nDDz9c6JmxgsKZEP/gB+G8bNkyXWehIWbXjagnbOH8xhtv6MYjruF93333Xd0APXDggL7eokUL3ejcuHGj7kiERRkdkxgGCNDoRN2HOhDXUc+infb555/rv+MFhfP/t3cm4HYUZf7OI864gIiioKj8HVFBZHBBYBhGR3RQUBBRFlkcR0UQQVkkkp017FtYExIgISQsCSQQErLvG4GQAIEEwhJ2AoEAAcJef9+6/d3U7dv35Nxzuk/3Oef3Pk8l95zu011dXV39/er7qkqI8imicMam/Pa3v+3bFWu/nnrqKd+u9evXz+/Dsktf+tKX3AknnODbrzVr1vg2CYcK9hqfscm23357d/TRR3tbz8BuZb+ikKZwfuGFF9x9992ndZyFKCp5Cmc8INOmTYu+aQEh+ctf/rKNiCXU+mtf+5obM2aMb1DDcGwaUzzOhPkYGL6IbEA409vZq1cvt+222/rG2MAD/YMf/MA3enhdJJyFaG6KIJwffvhhb2ASihjSu3dv39loIJxpFw2EMl4bm0+Gz7R9Bm0txyWEG4455hhvlIYdkUVAwlmI8imqcN5xxx2jTy1g89FxR7sERx11lPvCF77g/w4h/JrvTzzxRP8ZDzXRMHQAAsNYiJBZvHix/1wE0hTOdCj079+/JVSbl4EQoljkLZyZ/yBkwoQJbYQzRh3e4z59+vjv+A3eZ8OE86WXXhp949x3vvMdb3wBY6g32mgjN2PGDB/+uGTJEv89dO/e3R1wwAHeQKWRl3AWorkpknBmfF8InuBQOONh3nzzzX3HIpE7++23n0/GgAEDfPQNc0MwZKVr165u1113bfUmW4di0ZBwFqJ8iiqcv/e977XxEjNPTSicDznkELfLLrv4v+MwtM48ygwb+e53v+v+9Kc/+c99+/Z13//+970NWRTSFM6ty1E9/vjjuYb+CCGSKbpwJnRngw02aB3zQi/kDjvs0BqOCHhdDj/8cMcEOVwPodscBxDOGKGw//77u0MPPdT/Te/lNtts4+655x4/uRiNvISzEM1NPQnn4447zu8Xpj//+c/R1pZxgPHtiFIzODfeeGPXs2dP/3eRkHAWonzqTThffvnl/vPBBx/s/vrXv/q/4zDXAracwaRheKFxfDA8JXSUFIFMhHP0WQhRMIounBHDO+20k/ea4FkhegUP8k033eS3AwKYhhaDC4/KXXfdFW1ZJ5wJX+S37MsYEjwwjK8hdJsQcAlnIUQ9CWc8MFtuuaUfs0zCcCOkkbHMgPjccMMN/YoCbKetYaiLiWW2nXLKKf7vIiHhLET51KtwxuO85557+r/jYM8x2WEIxzvooIPcz372s8JMCmakHapN+yfhLERBKapwNo8yjSSzMRJ+zRhl/t90003dSSed5LcDodpmLMYx4WwRLxiLF110kZ+5kQnFABEu4SyEqCfh/Mc//tG3fSF0DNJ+AgYqnYxhu4ax+uUvf9n/TbgjkyKG0TtFQMJZiPKp11Btov/wHsehPfrGN77h27sQhtTRLjI2umikKZxfeumllsnBWCLBJqQQQhSHPIUzRlt8Apzx48e7X/ziF/7vpUuX+slraD+YlZEZGkl4jj/ykY+09joSms3yB0mwLjSNrRnCNNpbbLGFb5itTUI4M4ZGwlmI5qZIwnns2LHRNy0wJ8OPf/zj6JPzy+595StfiT45v8Y9k+awHxDOyKzaBm0ucznY2MH58+f78wwdOtR/hlWrVvnInjzaQkPCWYjyKaJwPvPMM71NFRfOtDcWZs0qJwhpm2XbIHwbm86cHTbZIWvR8/siTjSdpnA2/ORguJ+FEMUiT+GM9yRJOGM4wXnnnefX/QsbX8CwZBkVxiYDHpRyhfOiRYv8McO1ohHOeLIlnIVoboosnLt16+YjZYwjjzzST/DFpF8kln8hlJG2FZgcjNBtZs9m+09/+lP/+zDMkUgdonCYoZt2aOedd/bhk2as5oGEsxDlU0ThTDQfNlUp4QwMG+G73/72t779ISLmq1/9aptrwUaik5C5bJjDoWgRMpCJcNY6zkIUk7yEM40f65XiSQ7Bo2zLTTGBF0sOxIUzLF++3D355JP+b/bpaMwL3999992tohiDkMX0WfLAIA8scZB0nqyRcBaiOBRBODOLLPM0xPPw7LPP+vHKBm0YHYG0IaR58+a1MSppS2nrpk6d6rcTufP6669HW9dBZM+wYcN8J+PcuXPd2rVroy35IOEsRPkUUTiz1CftSgi214IFC3xUSwhtFO0PjhI6C4mcCcGGIyoGJwttYxFJUzhTPkwQJuEsREHJSziLFiSchSgORRDOzY6EsxDlU0Th3GykKZzRyoMGDXJd+IfwIyFEsZBwzhcJZyGKg4Rz/kg4C1E+Es75k6ZwxtvM8OYupUIphRD5IeGcLxLOQhQHCef8kXAWonwknPMnbeGsdZyFKDASzvki4SxEcZBwzh8JZyHKR8I5f9IUzlrHWYiCI+GcLxLOQhQHCef8kXAWonwknPMnTeG8cuVKN3PmzJZQbWaEFEIUCwnnfJFwFqI4SDjnj4SzEOUj4Zw/aQpnowvx2pocTIjiIeGcLxLOQhQHCef8kXAWonwknPMnE+E8ePBgLUclRAGRcM4XCWchioOEc/5IOAtRPhLO+ZOmcObdwxr9WsdZiIIi4ZwvEs5CFAcJ5/yRcBaifCSc8ydN4YxWRjP7dZyXL18efS2EKAoSzvki4SxEcZBwzh8JZyHKR8I5f9IUzixHhWbuwgxhzzzzTPS1EKIoSDjni4SzEMVBwjl/JJyFKB8J5/xJWzhrHWchCoyEc75IOAtRHCSc80fCWYjykXDOnzSFM+s4DxgwQMJZiKIi4ZwvEs5CFAcJ5/yRcBaifCSc8ydN4Ux09pgxY1wXFPSqVauir4UQRUHCOV8knIUoDhLO+SPhLET5SDjnT5rC2fDLUWkdZyGKh4Rzvkg4C1EcJJzzR8JZiPKRcM6fzISzlqMSonhIOOeLhLMQxUHCOX8knIUoHwnn/ElTOL/66qtu9erVWsdZiKIi4ZwvEs5CFAcJ5/yRcBaifCSc8yftycFuuOEG14WptfkghCgWEs75IuEsRHGQcM4fCWchykfCOX/SFM4sRzVw4EDXZdy4cW7FihXR10KIoiDhnC8SzkIUBwnn/JFwFqJ8JJzzJ23h7Ndx/uCDDxxJCFEsJJzzRcJZiOIg4Zw/Es5ClI+Ec/6kKZwZ1uw9ztFnIUTBkHDOFwlnIYqDhHP+SDgLUT4SzvmTpnB+4okn3PDhw12X559/3q1Zsyb6WghRFBDO5557bvRJ1JoZM2ZIOAtREBDOBx10kOyVHNlnn30knIUoExPO99xzT/SNqDV9+/ZNTTi///777p133nFdrrvuOq3jLEQBwUg5+eSTvaFYTcJDs2rVqsRtlSSm4yclbat1YnkAUtK2atNtt90m4SxEQXjzzTfdAQcc4Hv9k57Xeki0m6+88krits4mjPKXXnops/YvKe2xxx7ukksuie6IEKIUPJu77babmzp1auLzpJR96tmzp7v55pujO5IOXa655hotRyVEAenatavr0qWL23jjjd0nPvGJ9aZPfvKTbpNNNnGf/vSn3eabb96adtxxR7frrrsm/qacxPk57qc+9Sn3uc99zm2//fZuq622Sty3s4ljc8xNN900cfv60pZbbum++tWvll1G5SaOR9kfffTR0d0QQuQJc7FsvfXW7sMf/nDiM5tFok2lfaLtS9re2fT1r3/dbbPNNu4zn/mMP3bSPuUm8rTTTjv5Y5LHzTbbzLfTpGqPnZQ22mgj3yaOHz8+uiNCiFK89dZbbvfdd++UHVekRJ632GKLiu2zIiTKfuLEidEdqQ6inujA1TrOQhSUZ5991vXv399deumlZaXzzjvPXXjhha53795uzz339CFCP/nJT9yf/vQnP1Y66Tel0mWXXeauvPJKPxnCxRdf7E466ST3ox/9yB111FFuxIgRib/pbMJ78Ytf/ML16NHDny9pn1LpnHPOcQcffLDPX9L2ahIhiXfddVd0N4QQeTNq1KiK2olKE+3mXnvt5U477bRUznvBBRf4SKLDDjvMH4+2tdLjDhgwwJ155plu33339e0y3niOf9FFF7nLL7+8U++OctPQoUPde++9F90NIcT6mDdvnn8ek56noifakAMPPNBH3tXzNTAkOQ1Yunn06NEt6zhLOAtR/yxZssQbYjQUCEqMvrPPPtv16tXLPfXUU9FenQMj6cknn/SLviOiMSARqWlCXqdPnx596hzLly/3gp6QRSGESJN3333XTy5zxx13RN9UB2Ha559/vu/knDBhgnv77bejLZVx7733+jb5jDPO8KJ58ODBbtCgQX5iQyGEqBbalUmTJkWfmhuWo8IO7sKgaQlnIeofQhlnz57tTjnlFD+ug/HRJ554ojemCBnqDIyJxljEaDzhhBP88RDgeIbx+qS1hB3nII8cv7NzLTBJA50E//jHP7zhWGnngBBCJMFsuN26dfPt06JFi6JvK4eOSIQtbRbtHqL39ttv92OfK/Hk8hsmkCR/ffr08e0z7TVtvtpDIUQ1jBs3zh1//PE+ivGZZ56Jvm1eWtdxJl4bA1QIUf9gSGGIde/e3QtdDKoHHngg2lo+a9eu9YYXwpZGk+Pg2eW4jz/+eLRXdbz++us+lIZjYpziLac9KhfGm5x++uk+fxiiiGg8REIIkQaEUdM+WfuXxkSqDI9DNHM8jss8CkTdrFixItqjfOjAJBSU9o/j8T+TGgohRDXgPKFjD/uKNpCJpJsdhPNVV12ldZyFaBSYZRUjip5BBO8xxxzjw0qqhR4282Lj1Xj66aejLdWBBwfvCAYfib87s2wD3nU6B8iTiedp06ZFW4UQonJoTwmpNtFM+9SvX79oa+XgDUY4Y4wS0XPrrbdW1Llp0N7TPtP+3XjjjX5oTVqdm0KI5gRvMw4N2j7sK/5njG8zQ3S29zgzXXe142yEEPlBxMh9993nvSGMoQMmQ8DgY9xzpeC9nTNnjvc8I3KPO+44P61/Gl5d8sxEZscee6w3Ikn8jQfZrmF90AOKt8bEN72jNPR0HqQVSi6EaE5Yx50wRdoXRC5tE510TA7TmciYONdff73v1GRiRAQzkTPVwNqirI7CcBUijkhz5871Ri7bhBCiM7zwwgt+2Ac2Gau7kI488kh37bXXNnVUH1qZ5V273HTTTU3fiyBEvYJ3AeOLnrC4WETs4jWpBIyvWbNmtZn/gLHNhIGnweLFi/0kY0w6ccstt/gF6idPnuzGjh3r7r///mivjmHGcSbZYXZvekaZ7ZWywGNNJ4IMRiFENWAb4WGmXSKSBS8unZNMZFjNZIT8nrbLjkEbm8YkYfFoG9pD2kJNnCiEKBfsSCYupP1jkkGiF/mfdpAwZcKVmx2t4yxEHYJXlqWSaMSIGkkTehQRtvF2gXHPaU0QgUf81Vdf9X/Tg8d4GqOc6yFcPPSm83vEvhBCVAvtCZ1w5g3m/7Qm22IisFDMvvjiiz5KprMTOJYD51mwYIH/X52JQohyCB0uoUOGSJtqom3qHTo4aUe74LFJY8ILIUT2IA6XLVvmli5d6lauXBl9mx4YWIhajLlagVA2EV0peIOqGScohBBGXGTSUZmlg+GJJ57wHp0sjFKuheMzQzidn0IIUQ6IZiZx1dC3FojOnjlzputCY4orXrPRClFcEJeIQ0LyslpmBDFOaF8tZ9mnQaYXr9qGGW8N3ncZhkKILHjooYf82L+soF0n3DqrOWfoaKVzkbXvZQgLIdaHhPM66IBENE+cONF1YawgcevN7H4XoqjQYNHLxbhfDKssjCq82IhyxkTXOpwPoZvWmBlCtwmDFEKItGFICW1xlkYk45IRz1nZYzhIiDB88MEHM+0EEELUPxLO68D2ZilBhit2wVPDeMFaG8xCiI7Bw2yTu/B/VhCWzVjpvCaQwRgl4iUNMAo7s5yVEEJ0BiL0MCSzBMMM8ZzFmGeDMdwM+SGCSVE6QogkJJzXgU4eNmyYbzu1jrMQBYJGykKyEbNZGTU0hHgcFi5cmKuXlusrZxbtcuCa8F6nNYGZEEKEYDThrc0aoouY1KvapapKQXvJuG2uRzPlCiHiSDivgxVlCNOmLFqFM54nJpAQQtQWxhRjIDGTNePPEM5Zgifj7rvvzmysdGdgUrA0PStM4sNYREXQCCHShmEtzAVBpEzW2IRkWU/UyDVxHqKb6ExV2ymEAAnndTCs2driVuFMryNjndkohMgeDBbGzCGWMVoIz856kj7C80hFGQvMOs7Vzqgdh+srQqeAEKLxoL1iki3a76zhfYCorcWKARjItJ28i7JYsUEIUV9IOCfTKpyZjIKxhqzrrFBHIbIB7zKTDBCGh5GCQVSLWawxhPDEZj25TWfJYsIzro+Jwmo5O7gQonmgLa1l5yNDamo1eSNeFYbP0IZq/LMQzUuzC2fmF5ozZ067drDNGGd6UMePH+89zxjYQoh0IOwOkYjBhVgm1K8WM9lzDiY1wPDCo10k8KSQtyyg868WXhohRPNhnZ+vvfZa9E32MJSOYTy1OCeGMp51hg9hPNYiNF0IUTwYRthswpnhgzi2rr76ajd27Nh2kaDtJgfDS0PPJuGjQIHRy9msPQ5ClEv4jNAJRaL3HtGK0VNLIcczi8GD16CocxfQkZBldAvCXEuuCCGy4Lnnnst0xYMk8P7MmzevpkNRuE6WsCKEW8uWCtE8YNM2m3AmOvPWW2911157rV9xJikisp1wjkNDieIeOnSob7Bnz57tRowY4UaNGuVuvvlmd9ttt/nGHBAKnOjGG2/022+55RY3cuTIVuOVwkc83HTTTX47ib/DGR0xdvkNv2U7x2KGYYMx2HZu+z2udIOZiJn9zLZzLGZCsxAn8jphwgT/vR2HQrJroOOApSDsGu0abMwP10A5hNv5O/TQ00sbXgN5DK+Bl1C4nd+H14AXjm3hNTAW1Ho96P0dPXp0m+3cI/MoElbAZ9vO/9yncJKRqVOntrmP/B8aASy7YffJ8kK+DcbE230mcazwGnmx811YBvTQ27gwPLBsC7fPmDGjdaIo7sO4ceNa88axuG/hi3v69Omt10AZjBkzxh/XiNdFEkaAEb8G8hBOzIXgtOOT2BchalCedmzqHPeE+0RdWbFihf+bYw4YMMBv4x5MmTKltS5ynyZPntx6Dq6V41hYCGXA8xbeB5L1/nMcRLltt3PQ8cUzxfVh7PA920lcQyjged7suGznWPPnz4+2tjxv8bpGnq0hJS/h88b/1D27T/wff97II/mz2bS577adfPB3KPapi1ZGbOfv8Bo4Dt/ZNfA3955ypHzoOeSY4fZZs2a1XgPtE/my7XaNdh94cVC3wjJgWIuNzeY47G/XYNcYinbaDLtPdpzQ+OUawrpKHsPnjfoUr6s8b1aXaPfCa7D7aG0G9yG8BrbTzlk4O/tRXzkv27kWnj+7j5yHNirMI/9buCplQLsXz2PYMUJnrJUBiX2JwDBo98JrYDuT2BnMaEy52jWQV9oAu4+0f0RMhfeBa7BrpG2Jt+38b/eRMpg7d26b7fxt18B5eLbs+CSuh/plMHEU28P7EF4D95Ft4TVQ/w3qTPx545qsXeQaeb7Ca6RM7D5wrbzvwu2cL5y7ZObMmW2ukX3D9xdLutl9su3hzPd2H+0aORbPm90HJhrlN+F2njeri7xreeeGZcDzY3WNd0TYZvA/9zFs28N2keNwvHBcLs9GWFc5RtimcL32exJ/h/eR90R4DRyLcrFrJC/kafDgwe7666/3eSBPtp22g/tm5cyxuCYrA4wx7nv8Guwdzn68L+PXQP2gnGi3eZfY7yyP4X1MsqV4Rg3qdVjXyAv3yeB5o2234w8cONCvY0o5cY+pk5YHtsevgbrI80ke2E4+2IffAmW1PlvKnje7BrbznUH7Ed8e2lK0seF2/qauWZvA+8vObdtp280e5BpDO4T/ed5CWypsU9hOmYZtO8+G3WfOwz7mmALK0+4ziWPxvFld4tnlO8sjx6JuWF2i/bJj23aecTP4uVauiWuz49NG2PPGeUJbivyFthTb47YU+4TPG+/j8BrIQ2hL0e7Z8UnsG7Yp1Gs7tv2eumFlwDWG7R7H4j6WsqW4BpuVnjKgbsfvg91HjsM1hnlkX/JtYPuVugaeN44ZvwajI1vKriHJluKzXQP3K25L8X94DfHnjb/Da8AmCMuA6wltKexF205iO+2aYffRrtG22zXQZrAt3I7WsPcX9ym8RvJH3QyjaGhT+B3b2Y/7GD5vcW1CCp+3JG0SPm/sG14jf9MuWl3jPUEeSg3FWa9wBgqLlz8ZopBpuDgR//OCshvLg4rhwAuG7ST+tgzwQqShC7dj2IYPIAZ1uJ3zhoKOi47/PiwUHsBwO3kkz3ZjeQDD7ZbCGxvfxv5mXHENPEBWBiTyGF4DBm/8GsLKy/WQb9vOvqEByTWE2zkXD6g1lLyY4tfAPuF94L6EeeR4tlYvFYR7GR6D7aGRy30I88DfNAwGjQDXZds5FvfeKh/nCreTFx5Ka8zJa5g/2yc0HLjmcB/+DitzvC6xPXzA4tfAdntpQ9J9CMuAa4yXUWh8cS6ukX1uuOEG3wjw0iZflAONCPeB67DjU+7hC8+OTSJ/lJEJNhpKPsfLICwjjsc52A+jf/jw4f5/eylihITXQH7Da6Rexq8xfp/jZcg57T7T2IfbSeTH7jP5CPNvCZFkL9b4fSaPPAMGz1N4DraHbQL3JKxr7Guik/PH88e5eIatEyepTWAfK0PaBq4p3M4xQ9FImYTXwPawk4YyDfPB36FhQXmE10B+wjaBuhTfjsFl14ChF56f7eTJ7gN1KqxLbKcM7BrZL962s39Y1+LPGylsF2mHw+1cI/kGyijetrOd+mVwT+PbwzKiPMPt/E0ZhHUxLAP+jrebti3cJyyD+PNGHkrdZ+7J+u4z123w7IXbuQbaTYN2M9zOuciTGfpJ7SbHKNVucrywXYzfR7aHhgdtQjyP4TuWNjSsi5wrfMdicIe/t2TtGs9TfBv7m6HOccK6aNvDNoH8xPMYr0vxPIbXyD2L/z58R1Ne8TLi3to1UidoE/gegUy7T5tjzyOGYFiX+J/nLXz/xe8Txwvf4fEyID/h+4/9WVcUw5VzsT18v6VhS1kZcS7OQV2lbHjuEP6IGfbh2qyNrOY+k8fwGuLvL36/vnaTvBm0P3YNJM4VPk+0m+Hx7RihIyW8jySOZ+0axG1etpMvg/yGeWDfsHOAuhivq7QzYV2LXwN1J2zbbZttJ89Wl2gTQpuV/7lXYdtNmcXLwexF8kF+43mw55F2Md5m8Hf4PCbVtfB5Y1/Ln22nLloZUOfC7fxNGVnbnmRLcY2lbCnyY4KN4yTVxfA+x9tNtpe6z/wdv8/hds5VTrtZSpuwvz1P3MfwPtv2UJvE202uIbwP8XaTfSk3w2xe28654u/YeD1in7Bd477E88i7G6hLSc9TKW3CvvG6FOaR7aFNG3/Hsp1ysba7HMoSzkKIddBI8CBbY0xjQ4NhL9taQ8NLfnj5hYZVkaHxtMY2S2gMeTmF4kUIIdICgzYU5bWEdxBtfxidUisworlu3oEIF+vAEkI0DohdPdttkXAWYj1Yo2G93/RSEipFzzjCzHoMaw35oicNYUiPW700bvRU09lQq3KjXDDu6qVTQQhRX9AG473IC4QzHrHQW1sreAfSvnJ+vE+d8dwIIYoLthMOoXqxLWuFhLMQCRDOgRGCJ5lxKIThmODLuxEhfMxCZggVslCeegCjCs84+a8llBkdH3l1cgghGhvatTC0s9bwrmL8n0VD1RreQ5ybMExCH/MsCyFE9Ug4JyPhLEQEDQRiFMFMDzpjhWkwCFUpSi86Ah6jhPE9Nk6rnmA8Dl6JPKCTgXtaixBxIUTzQehynu0y7yveX0wOZWNUaw3tK8IdAc38E+H4QyFE/SDhnIyEs2hKCNvFsOAFz2yLzH7I34S82UQFRYExdOZhZuIDm2ihHsGYsomM8oBOB4UTCiGygKgkJuvKOwqI9xvvMsLH83xf4HXGC81svkRrFe3dKoToGAnnZCScRdNAqC6GBA0Bs+ohlvEmI5ht9sWiQZ4ZP4fgq6eQ7CTw+IYzouYFxm1e3hghRGOD1zlc2SAvMHaZyZfOyrwnR+T9imhmbhA80EV4DwghSiPhnIyEs2g46GGnp5uQMcadsVwIs37S481U90UPccbgwrPMuoKEutW7YAbGFnMvbAmMvMlrHKAQovHh/RMuVZMndA4jVpnY0pauyROipygbW2amCHkSQrRHwjkZCWfRECCK6VnnIUegjRs3zvdw09ONWKuHSaHII54B1uLD08y1NArckyItCUXZEnGg0EEhRBaw+oKtE1sEaOvoOKYtRkznDR3cRP8wHpv3t8ZCC1EsJJyTkXAWdQUvW8bI8uIn7Hrq1Kn+M55ZE871Bp5PlpViwi/+b7Txt3jMMdaKBuHaU6ZMkXgWQqQO7yjmU1i5cmX0TTFAoDL8h3Dporxr8EKTLyblJF+802WsC5EvEs7JSDiLQoMXlklO8MAiMFlug8m8eJjpzUf01KvQJO94YQmhw7hqxNBhPP7cs6KOKSZMkJD4euxwEUIUG9q/GTNm+LHGRYLOTObNoLMZr29RQDDTJvOOpzO8SFFKQjQbEs7JSDiLQsCDiXDkhc4Y5OnTp/vZSRHF9NrTQ16Pyy8lwTUilukQaPTwNDwJRTMa4/BiKML63EKIxoP2hcgoxvMWDdpnOqUR0EV7v9IxTmi5rYRAJ4RWQxCidkg4JyPhLHKDUDZeihgUZlzgncTLTC84L/VGggm/uF6WlWK5kEZvjFhPlPtZD+ARJ79CCJE2dJYi/oq6lCCdm8ytUcTZrrENeF+ypBUin05OCWghskfCORkJZ1ET6M0mYUDMmTPHj2XigSRMFs9roz6YdALQc46Hmd7zIoXFZYmNQS/S5Dil4D4R1aDQQCFEFvD+Yzbpor7raAMRpgj8or6neK9YO837hTJl9QwhRPpIOCcj4SwyA08yoci87Jg5k7UtCbeid7sZ1tHl+nnJ00nQaN7z9YHnot6WGcEIo1OniBOZCSHqHwRp0Yfn0G7TBt57773eaC4iDOvincq7FU85NgV2hhAiPSSck5FwFlXDQ0WvL//jPSbkmpcYLzVCdW1bMzx89Nqzhie99lx/vXhc0wRDBm9APcL9o4OHcEAhhEgbOlN5PxQd2kAENKmo726zK1iRgg4JhkER1UY7LoSoDp4tCef2SDiLiqH3nHGh9PyybjK9vojGIi1zUUsoDwwixjE3m4fZYCwaRkw9Gy7kHWOxGTs9hBDZghFKh3I9dC4ShYMgJa9FH2ZEZz3ziNBhzdAo8ouIFkJUhoRzMhLOoix4cEgIZcJZWUoJkcgLFZFsXuVmg2umZ57xy3ham/lFjeBkCZFGqAcYjFyLEEJkAZ5nhF49QCci0WS854r+juM9ZKtxMBaa/zUOWojOgy0n4dweCWfRIcwAymQmjCdiXUV6cl999VU/gQhjlZsZXsx0IjC5GR52OhKaGXr7CXGuF0OwHBijTuifZnAVQmQBna711NlKm0hEEe+8ejCm6QAlzwh+xmzLCy1E+Ug4JyPhLNqBp23hwoX+hTNp0iQvnBFG6rVtgZB0m5REE5K0GCfz5s1zjz76aPRN44DBRYSFxswJIdJmzZo13iNaT+8ROhJ5/9GBXi9DksgzgpmObvJNuy6EKI2EczISzsLPcM3DgXeNtHLlSj9OV7SF8bv0WhP+1ewe5hCiEhp5DWSeBS1TJYTIArzOrDpRb55QW1uZDvZ66lSnk4Iyp+Obzl6uQwjRHgnnZCScmxRe0vQa02Ns3kK+UxhTe5jwTGOYk6FRbWTRbBCFocnChBBZQPvy0EMP1Z2BiieXvOPJxXteTyCgEc1MJEbHKB0AQoh1SDgnI+HcJNAjjJcUb/KUKVO8l5mZgxmzLJLBELCQNMpNtIUOBSaHa4Zwdcb726R4QgiRNrxj6m3te4MOeCYPI+y8Hoe1MPb5qaee8h0A3INmn8NFCJBwTkbCucFB1NCTjVeQ9ZURg3jO9CB0DCKJ8NxFixb5v0V7MDQmT57cVB0vGLYsI8OYbiGESBPe1bNnz67bTlq8zzZxWL0ux4hIILqMGc/pMNfEkKKZkXBORsK5AWEyL8QxsxwTfoRw1sRe6wdBxNgnQrcYtyuSIVqBMXnNGK3Ac9UMoelCiNpDm8r7p56jeGgjGf6F7VGvBjf2Ep3nDM/if2wqIZoNCedkJJwbCAx6hB/hs4w7IuRIgrk8eMnzkqSXWeOYOwaDjhD/ZjYkiERYsWJF9EkIIdKDcbe8h+oZOqHpfMYWqbexzyG854gAoDPDbCohmgUJ52QknOscRB5jTRcsWOBDpOr9hVtr6B1HCBKapXFN64cxvs3esYBRSEhiM4ztFkLUFoxU3ueNsLwfHdKs1FHP4tlAOGNfMY5bneuiGZBwTkbCuU6h55OXEj2hrCtM+KwoHzzxlBuTgajsygMPAmObRUu4Ot4UjXcWQqQNhioirRHaFzqkmXiLzul6h4nPGL+9cOFC37HRCB0CQnSEhHMyEs51BI02k1XRg8tLlVksRedhHBnhtnjoRXkwTp41rNWAroOxb+p0EUJkAUOvEGiNAh2NeGsb5R3CcB06A3gPaEicaEQknJORcK4Tnn32Wd9Ik/D6qSJ3HjoeEICMZSZEW5QHYcnMJq0ZRttCfcKw1ZJuQogsQJw10lKI2DFcU6O0mUQEEPlHhwDzywjRSEg4JyPhXGAsLAihR9LSSJXDC5s1mQkZE+VDJw2eZpEM4f6MfRNCiLTBaGU4Ef83Ctgx8+fPb6iIL2w1lrHCTqOjQ0JDNAISzslIOBcQKikTfiFYGEdTr2siFgF6hBHNhGZrRszOYePARWnwNjBpmhBCpA1tMJFSjWS8Mlv1tGnTGs5Ly3sAjzqdHbI3RL0j4ZyMhHPBYFwT4dj0Xmrioerg5UzPtrzMnYeGkjrYSJ6OrKCe4WkQQogsIFqq0ewBroehLo0Uim6wpBh2HB0esuNEvSLhnIyEc0FgkiFejjS08l5Vz2OPPea99SrLzsNSG3PmzPFlKNYPLxUm6yOyQQgh0oY5ORBijQbzZjDUBfunEY1zhjrhfcYhQji3EPWEhHMyEs45g7BD4CGatY5wOuD9Y+Zxvagqg/qo9cA7B2F5TKIm74IQIm14l9GpzhCuRoTJwrCFGnECSoY88U4l+k0RXKKekHBORsI5J/Dq4dFjHDO9kaJ6EC+8oBSaXTmsS6m1misDjxAhekIIkTaENDOhVqN2CONVf/rppxt29QbsPDo/eE9ohQpRD0g4JyPhnANMiIF3CuGsBjQdCJOdOXOmF36iMgiXmzt3rnrFK4SIESahE0KILGBMcCNHteB1bmTxzHWx7jMCuhHHdovGQsI5GQnnGoI3ipDshx9+WGHZKYLgIwxKazNXDg0js0PLY1o5eIIIcWeyMCGESBuEJZ3ujQzv80ZfG5/ouHvuucd3+Gt4jygqEs7JSDjXAAxqWxKpUcco5YGVK8t1NWr4Wq1gCQ2FaFcPZagZtoUQWYARu2zZsuhT49IM4hmbBe+6IuVEUZFwTkbCOWMYy0zPomYoThd6aRkfzgtWVIfN/Kme7+phIhiGYijcXQiRBYT6Mta5kXn77bd9dN4zzzwTfdO48P4lUonZxSVQRJGQcE5GwjlDeMHhfVIIcboQ5j5t2jQvUER1IPS01mS60Anx3HPPRZ+EECI9mGSqGZZZ5J00a9asppjsk7HPdBQQhq95b0RRkHBORsI5Axi/goeZpBDidKEneurUqRLNKbF06VI/5l6kB2Oc8SLoZSOEyAKWW3zjjTeiT40LneR0RDZ62LbBsDMcLlppRRQBCedkJJxThjHM06dP9+JZpAsvUcqW8biiepgITKI5fegsmzBhgjwHQohMYCLHZokSIiqKuUyaBbNz5BwQeSPhnIyEc0pgJONhZuyRxjemD55mJtFohjFPtQBxR4g2PdwiXXjJqHNHCJEViOZmEpOMAWZOk2Yx4Jkbh/WesXcUtSjyQsI5GQnnFKCHcMGCBZoALCOsB5bJM0Q6MO6eF7PIBsIo1ckjhMgCJsUcP3589KnxwXDHy95MnQXAXBmE5WuJQ5EHEs7JSDhXCZN0YCBrKZ9soOd1ypQpEs0pw6R1lK3IBiJPqLdCCJE2CCm8sM0ExjtzcjTD2O4Q7MvJkydrySpRcySck5FwrgJmQNQsiNmBsCM8W2Gv6UJnD2WqELDsYK6DZlhvVQiRD4RrM4SpmTAPbLPBdbOsqTq7RS2RcE5GwrlCGB/KbI8iG5gQhN7lZgvNqgUMKdDY5uzRy0YIkRVMHtWMkVhPP/20T80Gnnbud7PMMC7yR8I5GQnnTkIPL0sFaDbibMEr2gxrVdYaPKEa21wbGJuv9bGFEFmwePFin5oNDPk777yzKb2vvE9Y17oZ1rYW+SPhnIyEcyegpw9Ps8aapEdSuBkTnzBGVKHE1RNv8FgmTZNW1QbGkRNiJ4QQaWNDxZoRJreMD4WhrW0WA5+osWa996K2aHhAeyScO2DevHlt1mLG+7lo0SLNbpgylPHgwYNbe1Dx5jOuudkmAMkKJq27+uqr/YuWjh/qtUEZqycxXZhdf+HChb6smfWWNoO/8fQrPF4IUQ20I6wRj3BEOBE9xN+8RwlfbhYjl3lluH7sMTrYp06d6kaOHNlU7zM6DhjOZlA35s+fH30SojJ4nuj0x8GC7YJNzv+0M9g2Gj4p4dwhF198sRs6dKj/Gw/o3LlzJeYyYOXKle4f//iHu+CCC7x4ZgyPerjSA2/+kCFDXLdu3dxpp53m+vXr5yZOnOiGDx/uxowZo1DilGGm2+7du7tTTz3VnXLKKa3/9+3bV55+IURVEDZ5+eWXuz59+vj23FLv3r39ko3NJByxy+hEuO6661zXrl3duHHjoi3Nw6OPPuqjIIFVHM444wwvoIWoBhwAJ510krdfrI2hzcF+lANAwjkRem7PPPNM17NnTzd79mw/nkaiORsQzjyQJ554ojv99NN9D3qzzRSaNSxlcdxxx3njqlevXv5vXrD0JIp0oe7S4fb3v//d12sSfzejUSeESB9mVz7++ON9e06iU/Tss8/2cyo0OrSvY8eOdddcc4279tprW22HHj16+Ei1ZoQQ9dGjR7uTTz7Zv2u0ComoFjrgLrvsMt+2mN14wgknuGnTpkV7NDcSzgkglmmAqCx4ixAeWnIqGxBvJjDoqOAhpdNi1qxZKvOU4EWKx5P6TKKs9XLNjvvuu8/XZcoZg+7cc8+VF0AIkQqrV6/2nh8iW2hj+L9ZJgnDoCdEGTvhmGOO8f9TBrzXmnGVE94rdBjQecA7h/fNnDlzNARLVA3DAKhXeJ7NjlGEYgsSzjEQazfffHNrhaFhPvbYY33vi2bSTh/G3trLDwOAch84cKA3BCSc0+OSSy7xvYd0CN12222aeC1jrLeWYQh0xAkhRFrceuut/l1JG8McFs0WpUWk2rBhw/z1I5qxIRiX2SwgjAnNPv/8891RRx3lywCPM+KZ7/R+F9XCkEnaFmwY2hqGq4oWJJxj0IOHiKMBosLQMPfv39830jTWIl0YZ8tDSWJcOWForOEs0gVDC9HMeGd1SGTP3Xff7duOAQMGqPdfCJEqTNSDUEIwMgFks0JkmkWqsa51M0EdILrp+uuvd+ecc05rJwLzxUg4izRgAj68zdjmmntoHRLOMe6//37fABHaysQTeD4VnpAdF110kW/sGTuhceTZwcRrDDtQ58868NJklWwIAgKajqCkfdJIEuVCFBc6KZOe22oT45lvuOEGN2LECG/QJu2TZqoG2qikY1abaFfN84p4Rjgn7ZdWqrbDOe33APmx9p9oSOxV3vHYU7x3kn6TRhLFIukepZXQPoRoU7ds6dgsUr0h4RyDcTKsISxqAz2mInswrpYvXx59Ekwss8UWW7iPfexjmaSPfvSjrkuXLm7DDTdM3J5G+uxnP+ujCIQQxeS8885zm2yySeLzW036+Mc/7rbaaiv31a9+1f+dtE9aadNNN/WGc6WwmsAXv/jFxGNXm7j2jTbayP+/8cYbJ+6TRuIchx56aFXRcEcffbT75Cc/mXj8ahLXTh0j8c75xCc+4bbbbrvEfatNm2++uUJ2CwTP5Ze+9KXM2gCO++EPf9htsMEGidvTSNTb//u//6srj3ZNhfMVV1zh/va3v7m//vWvvhEpYmLCCWYdJhUhn4yvJny5EphtEcO6yOVdpLImkQ/CmSthzZo1PqyliHWc/BSpnMNEvu69996oFGvD97//ff/CIbIki8Ss5YTP8X/S9jTSDjvs4HbaaafoioQQRYP3729+85vE57faxCSapKRtaabddtvNt9GVwkoZ22+/feKx00i1aGuZUZj2FpuqUg488ED329/+NvH4aSSun9nVKYus6sW3vvUtd8QRR0RXJPKGpek+9KEP+fmYku5XGok6ddZZZyVuSyPxXNDhU09DLWoqnL/zne/4xIyQuP+LmOghTvo+j3ThhRd6rxiTPVQC6/V+85vf9OHQScdXapsYG/SnP/3J7bvvvlEJdg5eqjQAv/rVr/xkXEnnUFqXKG/G6VFmTAhXS/7zP//T/exnP4s+1SesXbrzzjtHn4QQRYN5UliVo57BDmECqkpZuHChf6/WM3SK//jHP/ZLlVbK73//+7r31tLxznWIYsAkpJtttln0qT6ZNGmStwEZTlgv1FQ44+XBIyfKZ++99/YioxJuv/12d9hhh0WfRDksWrTI/eEPf4g+dQ7GDxPSwqzsojzefPNN32gOGjQo+qY2/Nd//Zf7n//5n+hTfYK3/j/+4z+iT0KIooFwvuWWW6JP9cnpp5/uBVOlEDH3v//7v9Gn+uSJJ55wP/rRj3zYeaUQjnrHHXdEn+oTOkD++Mc/Rp9E3uBx/sxnPuNef/316Jv6A3tZwrkECGdeJKJ88IrhBa+EsWPHqnewk9x5551VC2dmuRTl8fLLL/tG86qrroq+qQ0SzkKIrJFwlnA2JJxF2kg454OEc8GRcK4t8+fPl3CuIS+99JKEc4VIOAtRbCScJZwNCWeRNhLO+SDhXHAknGuLhHNtkXCuHAlnIYqNhLOEsyHhLNJGwjkfJJwLjoRzbZFwri0SzpUj4SxEsZFwlnA2JJxF2kg450NDC+fnn3/eLVmyxK8VbOmRRx5xa9eujfZo4ZVXXnFLly712++//37//0MPPeS/LwWNKAvPs28lid8yS2OpBcDrSThTXo899phfWohy5H+uk/vw/vvvR3u1TAjFiyi8LyxZQVmUWsuNxoE1tuPl2JlE/l577bXoiO2pJ+FMmVKOVset7nKNYXkDM36HdZx7w7rO8WchhHrJEgHV1HGeN56Tjta/lHCuHAlnIYqNhLOEsyHhLNJGwjkfCiWcR44c6deIY+mD9aU///nPvtKUYs899/RLA7F2HovX03CxnuDw4cOjPVpgjb499tjDb7f9yCtrMHYE4u/f//3f/bp23/ve9/waf51J/IaluT772c+6cePGRUdtT5bCmcXTjzzyyMTyTUrcm5kzZ0a/bg+C8+tf/7pvWClH/v/BD37gvvjFL7oXX3wx2su5K6+80n3uc5/z94VEef/yl790H/3oR920adOivdrDtXAsxEJSma4vsebtl7/8Zb/GYUdkLZxZt67cMqe8p0+fHv2yPY8++qjbcsst3a9//Wv3u9/9zpc5ZUSdpIPB+OCDD3yZ7b777q11nHuz4447uuuuuy7aqz2zZs1yn/zkJ923v/3tiuo45f2Nb3zDbbTRRh2u0yzhXDkSzkIUGwlnCWeDd6+Es0gTCed8KJRwRlBQgOWmH/7wh9Ev24PHbb/99nPPPvts9E0LiOS44OalMGfOnOhTCwiKv/zlL9Gn9iAEEeYIAjx8laRly5Z5IThkyJDoqO3JUjjbGrqdSawJ3RF0PhxyyCHRpxYoR8TkCy+8EH3j/GLqdDqEIAI5/vjx46Nv2oL4Y03qY445xntBk8pzfWnFihV+aa+ePXtGR21P1sL53/7t39qVaalU6t7jOUbQ4k0O4eXGslrGO++849ctjq8nysL2pe4n92Lrrbd2ixcv9kI8qUxLJcrbGkXKNQkJ58qRcBai2Eg4SzgbEs4ibSSc86FQwvm4445rFQzlJERlRyCcDzzwwHaiolu3bq5///7RpxaOPfZYN2/evOhTC4ifUi8LhOABBxzg3nvvveibysBDe+2110af2pOlcMbzmlSupVIpL/9ee+3lPZ8hlCOe5FA4I16/+93vRp9aQGhxfLzgSSCciRY455xzom8qg6iGXr16RZ/ak7VwpsMgXqal0sUXXxz9sj2EaO+yyy4+FD6EaAzEroFwxvM/derU6JsWqFeljo9wxitdTR1H3HMdLPOVhIRz5Ug4C1FsJJwlnA0JZ5E2Es750PDCOS4q0hTO+++/v3v11VcrakzXrFnjj7HNNttIOP+TcoQzIcOnnXaaH6PcWTHHesGrV692N910k4RzxPnnn79e4czxGRe9YMGC6NvyIYpjxIgR/joknNNHwlmIYiPhLOFsSDiLtJFwzoeGFs6EajPhVEhSqPbf/vY3N3v27OhTC0OHDi0Zqo0Q/M1vfuMbUvbrjJAjbxyfkGPGgDaKcCZ0vZxQbUKE46HaTCLF8UuFaiOcyfNdd93lZsyY4UUX35cDnmbyjjBvFOGMNxePcHw4QlKo9q677uomTZoUfdNCOaHau+22m7vhhhtc7969o2/LZ8CAAb7MuQ4J5/SRcBai2Eg4SzgbEs4ibSSc86FhhTP85Cc/cfvss487+OCD3UEHHeQnRWKc7LBhw6I9Wjj++OO9Ec12xDD/MyaU/HSECWeEOQ0i3ky8a4iUUiBomAAL4cxvG0k4Uw5bbbWV/5+ywfuMYPv85z/fZnKwgQMH+knRwvuy9957u3/5l39p5xU1TDgzPhrv5+233+769OnjZ4WmI6IjGDtNwnihHCdOnNgwwpnr+sIXvuAnVqPDgjJnsrXtttvOe/ANyoeJunjxWx3nHjE5Xam6FwpnJjWjvsYn1kuC/fGC85whnrkOCef0kXAWothIOEs4GxLOIm0knPOhoYUzhj6Td9FwW2JCrjfeeCPaowWMd7x3bEfY8j/LI/F9R4TCmcYEYcgs3EzA9OCDD3ov4KpVq6K9W/KCmKCSXHbZZf7/RhPOhEOzBNHChQt9OfK/LTMVilvKHw9zeF+4T0wm1dFyVKFwxuPMtdGAc6xTTz21NfTdPP+Ec/MZ8Xb11Vd7b+uFF17YUMKZa0U8E5Yd1l2Wj4p3JnAPwjrOvWF5KmaH7wgTzjfeeKOvg5yHCfy4z9wvrjdcSo17z/077LDD/H0nLF7COTsknIUoNhLOEs6GhLNIGwnnfGho4ZwlceGMSGaW6tGjR/twYAQP/zPOExGBl3Xw4ME+xHjQoEE+dLjRhHOWJAlnRBzCGS8qQpnx63ROIJLxSBMBQKg4oqwRhXPWhMKZcekIb8qYjiHyRX1m8j2iJ+i4OPzww/3wg65du/oOKn4n4ZwdEs5CFBsJZwlnQ8JZpI2Ecz5IOFdIR8J5zJgx3ut8ySWXeJHcr18//+JETCHiWJdXwrnzlBLOCF2EG9fKw8d9QDTTiYHH+ZprrpFwroCOhDOimHpAveWa6bhAQLNUGOUv4VwbJJyFKDYSzhLOhoSzSBsJ53yQcK6Q9QnnSy+91AtnhAPeT8aGSjhXTjnCGY8nZcqkVzyMEs7VsT7hjKeZaz7iiCP8/xLOtUXCWYhiI+Es4WxIOIu0kXDOh0IJZ5aFMsFQTmIW57xoBOF8xhlnJJZrqcT47DxoFOHMxF1J5dpRImIhLySci42EsxDFRsJZwtmQcBZpI+GcD4USzhiCJhjKST/+8Y+jX9aeRhDOrImcVK6lUl4e0EYRzl/72tcSy7WjdMEFF0S/rD0SzsVGwlmIYiPhLOFsSDiLtJFwzodCCefHH3/cT6ZVbmKSorww4czNZkklPnNtVAIaR4QGAtrGOCPeEAcIOEQ1gi7vdZwRmUnlWioxljUPQuE8b948N2rUKL/0Eg3G/vvv7ycHY3krypQODDoqmNWZGbWvuOIKN27cOO9h557kKZyZ0TqpXDtK8TWaawnCGWMBgczM5eQdA4rJ7hD0dABRH1gKi/95oWJgsK45+1CviVCQcM4GCWchio2Es4SzIeEs0kbCOR8KJZzrCYTyAQcc4P9HBFNxEap45fC24W1evny5mz17tv8OLynrD7NUEIIIEYJo2HrrrXMTzvWECWfGZfMSW7JkiV8vmOWQ8OSzDBJimfW08SpTviyZRLkjtFl6iTWib7vttlyFcz2BcEZgUn50OGA04MVn5vKZM2d6MUyHBdfL/0zIRvnTqcE+LHlljaKEc/pIOAtRbCScJZwNCWeRNhLO+SDhXCEI5v3228+HClfKu+++60N3JZzXD8L5W9/6luvbt2/0TWXQySHhXB4I5x122KHkWs/rA/Es4ZwNEs5CFBsJZwlnQ8JZpI2Ecz5IOFcIIunXv/61F3TV8JWvfMWHcXeEhHMLlDNh7YxfrgbGlnfv3j361B4J53UQ3v7d737Xd/BUCl5/GkW81klIOFeOhLMQxUbCWcLZkHAWaSPhnA8SzhVCRf3e977n9t13Xz/GtpL0q1/9yld6wl87QsK5BYTzHnvs4bbffvvEsiw37bLLLiW91hLO65g1a5b73Oc+5375y18mlmU5iQn8NtxwQ288JSHhXDkSzkIUGwlnCWdDwlmkjYRzPkg4VwEzZBNmzeRJlaQhQ4a4adOmlfToSTivg4mymKk5qSzLTYhaXoIdIeG8DsaNMy68mjpOYpz5e++9Fx21LRLOlSPhLESxkXCWcDYknEXaSDjng4RzwZFwri0SzrVFwrlyJJyFKDYSzhLOhoSzSBsJ53yQcC44Es61RcK5tkg4V46EsxDFRsJZwtmQcBZpI+GcDxLOBUfCubZIONcWCefKkXAWothIOEs4GxLOIm0knPNBwrngSDjXFgnn2iLhXDkSzkIUGwlnCWdDwlmkjYRzPtRcOJdaQ1e05xe/+IU799xzo0+d4/bbb3eHH3549EmUw/3331/xiwHh/KEPfajkLOmiLe+8846Ec4VIOAtRbCScJZwNCWeRNhLO+VBT4cyasCxtM3nyZKUy03bbbefOOuusqAQ7Bx7nH/7wh4nHVUpO/fr188soVcJzzz3nG4ATTzwx8dhK7RNGJWV2xRVXRKVYGySchRBZI+Es4WxIOIu0kXDOh5oK54svvtiHHu++++7uJz/5idtzzz39OsisZ6zUkuhYoGxIGPb77LOPu/vuu6MS7BwrVqzw5WvlTeL4Sedt5rT33nv7sqGcfvrTn/rGqBLeeOMNd/zxx7cpb+p40jmbOVl5k1jn+ZBDDvGe/loi4SyEyBoJZwlnQ8JZpI2Ecz7UVDjD2rVr3ZtvvukT6/KyxuuUKVPcuHHjmj7NnDnTLV68uLV8SISyVsPbb7/deiweLsbwsv500vmbLU2aNMnNnTvXLVmypLWMqJ/VgoC2473wwgtuwYIFbsKECYl5aLY0b9489+ijj7aWD2WVBxLOQoiskXCWcDYknEXaSDjnQ82Fc8jSpUvdxz/+cXfAAQe4Hj16uO7duzdt6tmzp/vv//5vt80220Slkw2MM8cjyvmS8tFMifHfW2yxRaaGzcSJE32jcMwxxyTmoZlSnz593Oabb16ICesknIUQWSPhLOFsSDiLtJFwzodchTMwBvfCCy+MPjU3jGceNGhQ9CkbeIlvv/320afmhgmpGHefJS+//LLbeeed3fjx46Nvmptvf/vbbsaMGdGn/JBwFkJkjYSzhLMh4SzSRsI5H3IXzoQnc+NPPvlkv+xSsyaM4G9+85vuxRdfjEomGwj9ZlwpL8KkfDRLOuecc9yXv/xlN2bMmKhksqN///7e05qUj2ZK1LuDDjooKpV8kXAWQmSNhLOEsyHhLNJGwjkfchfO7733nvvzn//sPvKRj7iNN964KdNGG23kNt1005qIOFi0aJH7yle+4j72sY8l5qcZ0r/+67/6F0Ctxtjutttu7qMf/WhiXpohfeITn3Cf/vSn/fCMIlBU4UzHFh75vfbay3c2rF69OtrSHglnIYpNUYXz+++/71c1YLlLIq9eeeWVaEt7Glk4M89Ot27dvCB85JFHom/b08jCmXcOS5dSFxAxzD3SERLOxaLIwnnZsmXud7/7nR+mx4ozHSHhXCEffPCBFzBMzNSMiYaK/2uJTRoWz0uzpFpPStXs5U3i+jHYikARhTPGK6sOYKD9+te/9jOQE4WycOHCaI+2SDgLUWyKKJzfffdd374wTI7/f/Ob37itt97aPfzww9EebWlU4Txq1Cj3//7f/3MHH3ywO/DAA30ZnH322dHWtjSqcOadzEoiP//5z91+++3n6wPvFCY1TULCuVgUVTifcsopfugp81fxfBHd2dFwRQlnIYSoA4oonC+99FIfmcC4eANx/J3vfMe99dZb0TfrkHAWotgUUTjTbjDXRNjOMHklwjCpQ7kRhTMrXXzqU59y119/ffSN80sixr8zGlU40znLddGxbzCcig5cOljiSDgXiyIKZ4QwQxPxOBtDhgxxn//85320axwJZyGEqAOKJpzxxG+22WaJHg9C6JK8QRLOQhSbIgpnxFJ83fwHH7FqvsgAACdxSURBVHzQbbjhhv7/OI0onK+55hr3hz/8Ifq0Djouk75vROFMiDYrucTfLSwRi4cwab4dCediUUTh/Nvf/tbts88+0ad10Dk3fPjw6NM6JJyFEKIOKKJwZp6Ds846K/pmHQjnhx56KPq0DglnIYpNEYXzvvvu287zg5BGOCfNQdGIwnnw4MGJAhBxnPR9owpnwvXj7xa88RLO9UFRhTM2S5yjjjoqMZpDwlkIIeqAIodqr1q1KvpmXVilQrWFqD+KKJyPPPJI36aEEw8ee+yxvj1kLoo4jSic58+f7zbZZBM3YsSI6BvnHnjgAT+BZTOFaiNwdt999zah2oceeqjbY489FKpdBxRROI8cObJdqPawYcP8d7QFcSSchRCiDiiicGbM4Z577ul+8IMfeCOLSXu23XZbd99990V7tEXCWYhiU9TJwfA600lHO8PEWKyykRSmDY06ORj35Ytf/KI77LDDfHj2Vltt5a81iUYVzggu3oN77723zx8ThO24444dzoIs4Vwsijo5WK9evfxke7///e/98/WlL32pw7ov4SyEEHVAEYUz0PPP2vYs0Xf11Ve7l156KdrSHglnIYpNEYUzMDRk+vTp7i9/+Yu77rrrSrYzjSqcAUF87rnnuh49erglS5ZE37anUYUzEM1EvqgLzDS+Zs2aaEt7JJyLRVGFMzD8o2vXrn7ellKiWMJZCCHqgKIK584g4SxEsSmqcO4MjSycy6WRhXNnkHAuFkUWzuUi4SyEEHWAhLMQImsknCWcDQlnkTYSzvkg4SyEaDoknIUQWSPhLOFsSDiLtJFwzgcJZyFE0yHhLITIGglnCWdDwlmkjYRzPkg4CyGaDglnIUTWSDhLOBsSziJtJJzzQcJZCNF0pCmcH330UTdkyBA3ePDg1BMza48dO9Z98MEH0dnWIeEsRLFJUzizXNTAgQMT24lqE8ddunRpdKa2FEk4s+oA6yzTLiZdRzWJY44ePTo6U1uKJpzvvPPOzOrCoEGDOhQxEs7FIk3h/Oyzz7prrrkmsU5Um3i2brvtNvfmm29GZ1uHhLMQQtQBaQrnq666yjf8WaXtttvOvffee9HZ1iHhLESxSVM4s6xLUvuQVmJZpiSKJJxZNmuDDTZIzH8aacstt4zO1JaiCefDDz88Mf9ppY7qrIRzsUhTOFM3k+pCWol10hHncSScRad57bXX3CuvvOIb5FJrKYp1sM4gZbZy5Ur36quvRt+mz7vvvuuef/559+KLL/q1DkXjkKZwxhN00UUXuQsvvDD1dMEFF7gbbrhBHmch6pA0hTMC9LzzzktsJ6pNHHfx4sXRmdpSJOHMe/iKK67w7WLSdVSTOObQoUOjM7WlaMKZNbizqgvnn3++j6JKQsK5WKQpnKnjWTxXJI47bNiwxHxKOAt33333uRkzZrhx48a5adOmuYceeija0hb2u+6661zPnj1d3759fYjEsmXLoq0iiUceecSNGTPG9enTx51yyin+BYpoyQrE+fjx470oojee84vGQGOchRBZozHOGuNsaIyzSBuNcc4HCeeUIJQSz1CvXr38mEReFtdee63r3bu3W7BgQavH6P3333cTJ050Z5xxhps9e7a7//77fe8e3k3RMZThSSed5G699Vbf6fDwww97z3MtwOPMeKJLLrkk+kbUOxLOQoiskXCWcDYknEXaSDjng4RzChA+RBhC//793erVq6NvW5gwYYL3jjKpBSD4EM31XNFrDSHZlOGSJUuib2oP95jQKDo6RP0j4SyEyBoJZwlnQ8JZpI2Ecz5IOKcAIdZ///vfEwe+33333T60eO3atd4rzURCt99+u5s0aZKfwREv9V133RXt7dzUqVPdTTfd5IYPH+5/2xHLly/3+1HpOMaiRYtavdrPPfecmzlzpnvnnXf8Z4TnyJEj/f/ss3DhQvfkk0/6PPBbRP8bb7zhZ9XkM4kZ8MIJiebOndth2Dlh6RwzCR4G8sn1G7xI8cobdDZgXLAf+ZwyZYqbPHlya2fDvHnzvMeXcsPjzL7MrBkf34w3n3yyjXJhXxubzLWTT/uMF5n9OB/XSwi4nQ8oO87DdvKFYCZcm2gB4+WXX3Y33nhj6zHCMuMFyzbK1WAMWXjdc+bMaTOWaMWKFW7EiBFtyoqoBL7j2CTywnlFdaQpnLlHhx56qDvkkEMySURaULfjSDgLUWzSFM4MG0pqH9JKdPInUSThjEA44ogjEvOfRjrxxBOjM7WlaMKZaMak/KeVuGdJSDgXizSFMzZuUl1IK/Xo0cMPf4wj4dyEIEQZA4ugSZrAh2UDMHwRbBi/p512mrv00ku9MGTiKV5W3bt3d08//bTfH3FKKPKpp57qhVcSeK3PPPNML+JWrVrl7r33XtetW7dW4U6jihgGzovoRNghDGn4Tz75ZD9gH4MfsXbxxRe3Tm7E+RGf5JljA7/hfB29NNg2atSo6FNbyBsv3lCU8qAwAQVQJoxVJiFuKS+Ox9hv8k6Zkj/yTBlTZg888IDPH0LaoOFgnDjHZWw5RkbXrl1bGxRENGUAXBfXS8fFCy+84Mub8kM8A1PmM0mIjWumQ4Hj0jnCsQHx2q9fPy/GOR7lxnXOmjXLbyePxx9/fBtxTx64r0ADwjWGY7TpKDnuuONa80zHBucgD5QNnSF8TqORbHbSFM6XXXaZb/izSltssYVm1RaiDklTOPPOS2of0kpEdSVRJOFMh3dS3tNKG264YXSmthRNOB900EGJ+U8r4VRIQsK5WKQpnLFPk+pCWmmTTTZJFMcSzk0KLxYTVHHwxDLOGQHIC4Rel9DDjHcRYYiINZhp+8orr/Tjevk9YtHgOIy1NdHIZ8TXCSec0Cq+OR5eULYxUdk555zT6n3GU404Qxwb7IPINOHNy4mwczzXgLBE3FOx8VSHHlE8qgMGDPBiPg7jtpkAjU4C8kLiOxplvK2A+EcMhsdkxkiOiagm3xgMeF1D6HBAYBvz58/34tpC5RGuhFbze87LNjsnHRKsVRjC9dqMmpQnQppyMBDIlJuFalO+rE8HHP+xxx7z5YznH4gc4Dq5Xrt27pl1aDCDOvcsnHCMcmaiOMszRld4n+gYqPdQr6KQpnCm7lNfqUNZJDqlqA9xJJyFKDZpCmfeD0ntQ1qpo2FIRRLOdKbz3k3KfxqJzvkkiiacsWWS8p9WwqGShIRzsUhTOKMfkupCWgmbOYzANCScmxC8k2eddVarKAvBS4TgQsDBkCFDfEUPvUd4YhFxiGSDFw2eSRNnVDoEKCAMEZK8zPCCYrCzD+e34yK6Ebrki/OZoAbCyhFnJlQ5f1yQkReOb15iPK5MeobgxGuLJ9Y6CmxZhCQoG66D9ScRxyS82hzbRCnbQs8xQpPysM4FQpk5X/yFhTeW6wNepnj98FYDghuBSocAIDoQtfSo06lAnngRhuDxtl5WC70OoTeOY1DGeJgR4pyf67F7YOfj/HyHsDdvPtfOZzoegE4KPltnBb/B422h3HwmXJ+EQYOY55xhqLioHI1xFkJkjcY4pyuc80JjnFuQcC4WaQrnvJBwbkIQUQgoXg5x8BwzZsbG/yKcEakhhOAyBjpskBFgiFvzMiFcEU2IXYQTQpWQYMYC40EOofIh1hC2NNIIO1sfmuPxEscDbCDc8IKbdxkYU0yeTIgztjYUt5wbYY4wJg9MdpYEwpvrQIRyTSS8Z/zWwsDJK+LbYKZsvL02ERi/odxCyBdC1UQk4dAYKDZemF4trokwcWA7whixzbVwfso9hAbIepv5bbz3nXwjfoEy4xgci3KO3wOuG5GOB9uum7Bw6gKh4YAQJxncW0K3w/PiyaRjATHNMahnYbSCqBwJZyFE1kg4SzgbEs4ibSSc80HCuUoQcYik+MQa5jklrNq8u4w1vvrqq/3fBsILcRuGMCBG8RobNNqcgxBeRCge6I5AYCFWDc5peSOveFsRxgZh4IQMmycUGEvLJGaACERIIt4NvNaEn3Nd5D8e9mwQvkxew4eaa0GA2vVSPuYpBq6PsHEL/Uakcww8sAbiko4Em2iA8cV4nC1MGw802wltA15WVp4IV4yZcIItrodywTPP9bKdibwM6xwxIc7LExEcn5zMIF8s+B56+jkvnRHmaSdaIJwojHt07LHHtp6D/fBwW6g2Id2IfzorRPVIOAshskbCWcLZkHAWaSPhnA8Szilgkz7RKCJKGd+KmOSFE44VQQQhhhjPjDBELBGGTKMcggcWYYagI0QX8cuEX3iM2Zdj8FvEFSKS45p3GtFNKLcJTcKuEWyIbr4j5DocT41AxOuLdxwQtIhE83zSAYBwxVOOV5r9EfF4rRGo/DYU1SF4hcOOAs5PuTBxl4HARPRSbohmGgJ+w7EB0cr5CBNHPHJ9hDgjMBG5dBRwfXh/DcqMY5qwJszdvMWUGfeFcGyuhbIglNq8v1wv4dEm6Dk+ghWvN9sAEUw5YhDxN95x7r15k/GEI9TNYw+E7DNO2+4Lx+TaOT8h2hwfMc0xuFds554beLy5LyId0hTOjGunPhAxkEWKdxwZEs5CFJs0hTPDsZLah7RS2KEeUiThTMcx+UnKfxrJ7IQ4RRPORAAm5T+thO2ZhIRzsUhTOGNfJ9WFtBKTIhNRGkfCuUnBqMV7iKeXhpfQZV6WSR5JhBhiGWMYcRWGSBs8BIT58lAg4BByJtqA0G/EM4IQgUgjasKZ4xOSHIZ5kyfEGOKYcbxhmDIhxOELE7GJgAsFP/sj5BC0JnI5HiKPfS3sOg5lEM62jZDkesKlqwhzRrhyPYhf8mvjpw2ECWVGBwJh6taoE4JOKDNlaSIZEKmhNxehbjOUUy6EdCP4LTGxWAjXhpDlXFwfHSF8Z3AdXAPCF3HLMbgX1nhxzaGxxDnx4Ifj2Gkk+D1imH3x/HPvbBvlZEIc6EyxyctE9aQpnKmXNPxZpa233rpNJ4wh4SxEsUlTOGNXJLUPaSXepUkUSTjzzk/Ke1rp85//fHSmthRNOP/hD39IzH9aCcdCEhLOxSJN4YzNnFQX0kpbbrll4vMj4SxaBWsp2CfJEI7DPqX2Q0wneaI6Iilv5eTXiJ+vM79dH+Ucq5wyg3Lztb6yK+c45d6Djo6V9D3flXsNojLSFM50xNCBQlQGHS5pJjpc6AhKqg8SzkIUmzSFM5FUTDqZ1E5UmzhuR5FjRRLORJnR+U8nftJ1VJNoa8N5R0KKJpzphM+qLhAV2JGIkXAuFmkKZ+bu4bkiUjSpXlSTeLZwjCUNNZRwFkKIOkBjnIUQWaMxzhrjbGiMs0ibNIVzXkg4CyFEHSDhLITIGglnCWdDwlmkjYRzPkg4CyGaDglnIUTWSDhLOBsSziJtJJzzQcJZCNF0SDgLIbJGwlnC2ZBwFmkj4ZwPEs5CiKZDwlkIkTUSzhLOhoSzSBsJ53yQcBZCNB0SzkKIrJFwlnA2JJxF2kg454OEsxCi6ZBwFkJkjYSzhLMh4SzSRsI5HySchRBNh4SzECJrJJwlnA0JZ5E2Es75IOEshGg6JJyFEFkj4SzhbEg4i7SRcM4HCWchRNOBcN59992jT/UJxqyEsxDFBeE8evTo6FN9csYZZ1QtnH/3u99Fn+qTp59+OhXhPGHChOhTfXL44YdLOBcIE85r166Nvqk/Ro0aJeEshBBFZ5dddql7jzPG7M477xx9EkIUDYQzhmE907dvX3fUUUdFnzpPIwjnJ5980u22225eQFcKwnn8+PHRp/oE4cx1iGJw2WWXeeH8xhtvRN/UH0TkIJx5xuoFCWchRNPx85//3DfWn/3sZ+s2kf+ddtopuiIhRNE49thj3Uc+8pHE57deEu3MySefHF1R53n44Yfrvq3dZJNN3LbbbutWr14dXVXn2WuvvdzHPvaxxOPXS+I+9ujRI7oikTdXXHGFvyebbrpp4v2qh0T7yDVUE81RaySchRBNx8yZM13v3r1d165d6zb16tXLjRgxIroiIUTRmDZtmuvevXvi81svqWfPnm7ZsmXRFXWeV155xZ100kmJx66XROTAsGHDoiuqjJEjR7pu3bolHr9eEu+c5cuXR1ck8mbJkiW+U4v6mXS/6iHRPg4cONC99dZb0VUVHwlnIYQQQgghhBCiBBLOQgghhBBCCCFECSSchRBCCCGEEEKIEkg4CyGEEEIIIYQQJZBwFkIIIYQQQgghSiDhLIQQQgghhBBClEDCWQghhBBCCCGEKIGEsxBCCCGEEEIIUQIJZyGEiPHuu+9GfyXz/vvvuw8++CD6JIQQQgghGh0JZyGE+CeI4QceeMBdffXV7pxzznHTp093L774YrS1hVWrVrk777zTXXbZZe7KK690ixcvdq+++mq0tYW3337bTZs2zd13333RN+t477333KJFi9yECRPcHXfc4fe799573SuvvBLt0Z7HH3/c3Xbbbf7cQgghhBAiHySchRDin9x8883u1FNP9YJ57ty5Xhgjbo3777/fnX766e6qq67y2+fMmePOOOMMN3/+/GiPFubNm+f+/ve/+33jYvf11193PXr0cMOHD3ezZ8/2wrlv377uoosucitXroz2Wgee70svvdSdcMIJ7p577om+FUIIIYRIhzCKDjsFB8E777zjP4u2SDgLIZoevMaIZl4WBt7hN954w//97LPPut69e3vPLy8Yg9+tWbMm+uS85/iss87ygrhnz55uxYoV0ZYWli9f7i6++GL32muvRd84/7d5sOMgrhHqU6dOdQMGDPB5EkIIIUR9Q8c4nfOXX365u+KKK3y64IILfORbLVm7dq3vwL/77rv951mzZvnO/NDWEeuQcBZCND0I49NOO809+OCD0TfrePPNN72oHTRoUPRNx9xyyy1u2LBh7oUXXnB9+vRxTz75ZLSlBTzNQ4cOjT6tY9y4ce7cc8/1Yd4GghwRjvgm7PuUU05ps10IIYQQ9Qkd7USg3XDDDT7SjTRp0iRvj9QSBPzMmTPdM8884z8TfYeAF8lIOAshmh4LiSa8+oknnoi+beGll15yxx9/vFu2bFn0TTKEZSO+H3vsMR/idP7557uHH3442toCAnzIkCHRp3VMnDjR749IN0aOHOnFOr2+eMIR4hLOQmTHW2+95cMULdJECCGygmFdeJk7ExJNhJrtj9AN51ih3XrqqacSPcV4lbFtaOOAjnnbL35+HACDBw+OPiWDvcPxkmwSOgRwGoT2DNC2Wjg4+exobhdsLuZ2Yf8k2M7x7VoMysKu6emnn24T2ZcmEs5CCPFPXn75ZXfJJZf4HuDx48e3NspM3oUgXl8vMJ7mm266Kfrk/ARg1157bfSpBSYeu/XWW6NP67j99tvdhRde2PpS4YXEBGUm4gndYjx1GBYuhEgPDLWBAwe2hk3yPFvoohBCpA3tTWgzlAPRacyxMnr0aNe9e3fvGUYkEi1HeDWd/IR/h+KZ+VkYDsbcK3TGY0+wj60ewt+WD2yM/v37t+v0NxDZU6ZM8aHdHI+hZDYkDaE7efJk7wRgXhbsKRwJBt50Jke98cYb3T/+8Q9v48Sj/Bjmhq1z8skn+9+Hk6xyfIatEYnH8cnnc88957dxvQh+hrfhMe/WrZs777zz3KOPPuq3p4mEsxBCRNAre9ddd/kXEmFTQOOM4E3qxTUeeeQRPwaaRv7555/3acyYMe7MM89sFcNLly71n+OTgHHc66+/3nu8gf15sbAvYp5jYdQzNpoeaiFE+iCUMUIxAknMZ4BhuHDhwmgPIYRID+YtIdFBTsILW2oeEzzKCGCEI5OTsj+/p7MfEc4cKghehCf2BiAsmb9l7Nix3kPN+GVEKeLSuOaaa/zvAaHL8fDqJkEknAlSjkeIN/YPIKLpeKT9xG4hBN0i7FihBEGN4CYPiH2Esc3twnXjsKDTEm/y6tWrfR7Jq4Ejol+/fq3Hx+FAXvB6I6ppvzkHbTbH51wjRoyIfp0eEs5CCBEDrzDCFWjcacxLvdB46dDDSUPNWGReVLx8aOQNZt9GXMfDomjg2ZelrcBeXHYc/sfjjZhP8lYLIaqHuQfiE/RhgNrM+nRwYfyFHWj2XRy8KPwuPscBoYNhaCUGH4Zt2LZgMNo+fE+kSxgOSecev7F8EA4ZN3I5RjxMknPjzcHgts68UmB8YuCG7RXXyrFDMGDj4Zp0INLxGEbI0AlooZOsEBB6ktiGp6ojY53OTLxc8dBOhEQ8P0AZxVc0IO/xttegM7OjsE7OwZwVIZyzozBS4HjcN0t8DsNKOR73lmPMmDGjXT2h3OL55xgdRRxRbtSJeJ7wKDLMB3ET38bQowULFkSfWiBfYf3knPw+XpeIwqIuxe8H+Yifh+uwa6f8EVvhfeCazGtocD7OQUcx9cs8o40Ezwx2A7YFApHO8lGjRvm62xHcC2wDvLbGdddd520EyslAQFJ+wDER2yF00jPfCnAvEKQWXYMIZlhY0nNlkXChF9lYsmSJF7GWD64DIW0CHU8w3vAw7+TN5o7BDmJCVXvWaKNwKCDUgTaVeWDsuaCO0GabMKatwr4Kh9TRWUD5pI2EsxCiaaFxjhtMvOQRy9ZgI2i7du3qHnroIf/ZMAODlxkim5cJRgEvABIi9+yzz2596WP88dIJ4SVAeBUvTcCYwsPNyyA8FomXXRYvASGaHYxHxvTxLBsITAw1E8YYfBigochFzNmzC4gs84qcdNJJ3oA1cYKhzDYMTAOvEG0CvwPaHjzf1tZgRNKGhMNEEJwIehOrGKbk1cBwJd/hbwjtxEBnDgc64TCaOxpfiDcHg55jcB48SLQ/gAcJwWRgSONRsrYQ0cQ1ct2cizYLrxgQRkk4KF4ijo0nifIjb5zPQjOJrjE4L4Y1+9OJSNtI/oB2lWNyPaEIR4TRpnJM61zAmCZPcQFocFzykQQGP2GxBuWGILBhNHEQqdx/9iFSif9DDyB1jXvGvBaUFZ2tXEM4LIA6wLUZ/AZREh86QPlRPhyHdxCdDwZCg+uifnEOPJMWfovAJYIJIWMRFVwXQsRELGXKdZB38ygiprjfdn+pU3ZM7j33KRQu3HuOYR0i3E/qc9gpQH2ydy3PFpEelBv3kOORd+tUbiToPOLakp5DyoGINZ5T3vlWNwlTRiSHUFZh/aR9oQMQ4UrbRd0Kw655Jqgz1GugXrKPdcogQDln2M4ZnJ/7ngQil2cUu4f6TZ3kOxPgHDf+W9oTng+gfUWwY/tQ92l3yIfZT1wn9cGOT3tNe2IdDfzNcLcQjm/CPU0knIUQTQvGJ0YAjTW927ygMAx4aZsxiDGLwczLBQOVffAmYYhgnNJYm1cqBAMEI4EXGQIdYwgjxo7BWCWMa4wGM+jIAy8fPDBxeBnaS0YIkR6INYw6xuDxfPI/4YvmtQFECs9mCOLMPCYYwAgJhKF5dPnbjEWeacb1hUYszzsGohmHeB4xHs1rQ5QKBmjo5cZDyXn4jt8hOMMhHAhLBJEJZ45BG0dHHNDWMD4w9PwYCHj2xRDn2BjPiDU8j4ge2rpQ9GCYIo65Xn5LG0VHAkKP/CG+7Ly0qwhjDHWOTbt3zDHH+HLmmOxPWdEuAu0nYZfhtdHmWlQAwvXEE0/04fSUiUGeKEOuw4x/Oi3x1IXlaFBOXEPY0WDQ9nMcfm8gDLmPHXnHKSMED78lUS+IRjLRyz3mOrlu7jN5QhSbeATyw/vC4Dj8JhSQ1FHKB4FMeXNeRCdQ5ggsvP6UAQmhYZ5HzslveJ8g0ID8WZQV56Ou8x33iv0RVvze7g/wW8KGgQ5oythENjCWlrpm71LEGvWZcwNim/K1jg86E7gO6hvn5J6w3TpLGgmEJO9/aytC+I4ysM5zKz/KJ7QB2MYzFX8maVOAusYzEkbFUF+wQ0wo0w4QzWYClLpI508SCGfavCRMBFPfqQtxzzk2Eu1hCHWS+gDULdpY2ifqBXUPoWxjlHkm6NihLJKOj9gmDyE8H3i100bCWQjRtPBypmHGiOGljxHKpF5xLzRGIeNveNFhUPA3Ly0MAxr3eKiiwYsBY4EXIYYRxg9GHcYf4jk0ojFuaPxDIzCE/UPjSgiRDnRuYeAjeBB+PKcY8BiKBu0Czy2GIcYbCUPRPBpMwMMx8LJhyOI1xkA1zyH7076Yp5LnHdEdeotpizBireMMYxERS3vE7zGA8RTaOq8IENqkMOQWYxlPlh2DPGBQ4vnh9zYMJcljyvViwCYZ87Q/5N9EPlBWiHhAEPfq1SsxnJiOCfJJGRp4iMhnuD9tqe1DG4u3k/Im3xjSiDQTsfxP+0qnpxn6iFo8UxjoXCPtO/BbhCTbSIgH28Z56ChNgjLnflh5A20210m+kuCehR2piADOTf0Ayp9O2DAUFgFqkQuIVsRJ2GnDb8m3iQXqA52yXAdwLO4DApN7F4awGoSt4oEOQXyzH9fC3+STa8ZzzfnC9xrvMcqUKAjqN/cbUUvHDFCfqJvUP45BotOD70wos3/4THEcOhVMHNExwjNl94Z88G5uRHju7dkpB2wQBHHo0ecZ4Jm08gVsBDsu94RoOWsLeI54hsJnA88398g6mTgeoj4JawNDrI7gHQ47e0KoX9hNVl+B6+A5oL4AdS9sCwERb88Nz2hHIpjngWsOj0/9pH1JaueqRcJZCCH+CQZLRwLYYHv4ksJICT/HMa8NsC+/JyUZplDqWGDHEkKkB8YjQoQ2AHhuEayITsBoxbODcYfRifGJ0Yeww2vI84zhiHGH4Yo44n+Egz3rGIAIZROKnIsxfaHnl1BxhIK1Axi0dOiZscv5EOcWyo0gReiGHiVEmHl22I/fIaQQ8OSL/20cYQj55PihsAlBnGNUWxvJ/hjKCE8gH4izJCgHOgytfAGhiDgzMK4RdnRI4nXCW8RnOibwpCK0MYaBc1voMmKRPHBsyheRi5ij8wO4l5wHMco5CR/l3tnkjxybTpIkuFeUXzimE5FOB0tSW4yXPAxtB64db7t1OJAH7msIRr+F2xI6zf0OOyioWxbZANzjMM/cM/IJ5Jk6Ex9aRH3kHoWQL8aFUs8RGdRv/sajHoa4cq2cj3zzPfWI+xHWXeoC9ZnnyOoq+QjFEOWOV9Hg2aFOWXnhZaUsOBf3iXsYelgbBeqqdRIgfkk8+9Tdjt7x1C0iSULvO/WcThx7ruhY4Zj2DBMVwX3gueT4PAPcX8oX4Uwdo15ZZ71FnMTrjoGgpqODY5Fn7rlFQVAvuF88kyQ62qzzhw4S6gJ1jHaE31PXQqFNnskrzwu/57mkDTDRb8+NHZ+82LnpeCHyhLyTL87BM0QdzQIJZyGEEEI0JRiQCJPQoAcMOTyggDDF8MMYRESRMEbxovB7jF08qhhtHYFoCcciYiRjPFpoK8dBDJqgw6jFuCYfdk7EN4ayGbaIYLyuBoKSY9o4ZLyIGJDlwG8xbM3oDiFvCC8EKvsB+UYIWcgyv7Vxk3EwlNnXxCCGPqKNDguD85qgRNgj3joK0cWbifGP4CJRtpwbbxj5w6jGCAeEJMZ+KAY4FwKDfRGhCMEkEMnk04QJ+UcUYtwnwf7x8ub3JAMBYPcYyEPoaecY3EMTUJyTTpvwGOQ3FJTUXbtevG/UVetkMAiJjYfZ0tGDx5kOGAQVZUiZcx9CUUMeyFNHnkigw4Dyt7rK+cmHjaGmM4TxzuEYf8QxnTp2rYRs08mB2EZ0hR0KjQT1iagE2h2rHxZ9wrOWBM+ZRQcYlCVtkv2Gdorn1IZ+gUUCUF8QmMy8bc+dPYfmleW5o27acxqHc7OdusL9pr2zjkDyZ/Wfdoz7ZsflGeXe89zQplmkgj1XwN/UY54FOl8ISzfRDFwTz60Jf4S1zYdAW0T9pCyoPzwvYbmkjYSzEEIIIZoSvCx43cJwXIxBDEMbM4dnDGEcenYx7PGw4R024Wze1yQwFk2gIfwQGfwGLxuw7aijjmr10CEiEIShB4pzhmNEMYZNQGHsInaOPvroVmFGqCueXjNuS4GAw/iMewTxMGO0IhhNjGEkY7xy/ZQf4G0KvZTsY+Ob+T4U5IRpxvMVevgx4PEghaGXIZQVBjgg9BBoYSgo12AeWoQk4zxD4UxnA4Y5njAEv+UzDsY+3mUIyzcMjQ/hvHHhjCFvx6A82R6OVeZekQfqBCBOuRaDThDKCi8bcD/IV3g9dJCY0OU4hOeGwpljcm9t4i9A1CBwuE+IFsrQOioou7hwpsOmow4D4H6Ek5MB12HCmfMRxm5iiHtF54hFRyDKEE2ILyDEnfpv4qsR4ZkLUymStseFIfuE7YXB/bPfx4/DMey78O9SUAc7EtfUJYtKMfD8WgcI+SsVWcdvQ0Edh+3x39PhQycMcA0d5S0tJJyFEEII0ZRgoCOcMeoxvvDYECKMcDADEPGCdyg0ShEJ4cRdGPwIHL5DKJFCcYMYwSvIcdmGRwQRhTjgOwxLm0wQGM9n4bcGHjgzEAHxh+jieAhovHfsY6GviCJEFiGPlic8XR0ZlnjR2ZdrpdMA0UcZcI14eBA25JXzcCzEMuUHiCrEFaHmbGMfxi8irOMeXzoAGDscCmeu17znGM7cB8qH83HNGN9MFoVhz35WDpzjuOOOa+N5x3uLZxfIP2VCIl8cj78RaghFBDoCOgnEKveE31AW5IHP4TjTEMoo9JByfZzL7illQF45BuVLfugsCAUp3nmEPveA83FdiFLCcPHw4SXGo2bigvHN1AETyogKytK8xqQwNB3Rzj3iPluEAB0HiFybII3fUJeJaKD8KHPKlLrENsqeZOfE40fHUOgNRfDS+WRCmXpCZ4vli84PxDz1keNzv7gugzqCsLb6JeoX6rjN9ZA2tMm0k9bhUgsknIUQQgjRlCAMEIwIAcQeXkM8nqHnBWFjM/8ahBraUksGxj4CGW8yhlxo9OMJxPPKOUyoETbJvohoxCzCyLwpHCs+USCeRYSVgdGIN5Fz4sFDTMVny8bjiphDwCFOEIulvEp4vBE3zJ5sXlAgX4gdRBdCC0855wqPRf4RS4heG0dNGSAAQ28nYhfRFv9tfGZrxB6dGJyTc3F9lBN5NEFGGVB+4fEJabcwTuB33GOORZlahwgeYAShidAkuM/cI85v9yjsQDG4FvLBMQ3ySAeLnY97hIgglJl7QV2Ie1QpZ35DRw77c13kHcg7ojPscOAc1N1wsjGgrnC9iPOwY4A6xz0yDzZQ7tQrux/cd35HR0DYyUK5c0w6afC6W/1GOMdnTKZzIe6h5lopS4Q9ZWL3jb95NsLnib85v5WdqF+ov2F9SxOeRZ6lsGMuaySchRBCCCGEyBCEYKlwfiFE8ZFwFkIIIYQQIiPwnBKebmPYhRD1iYSzEEIIIYQQGUFIKeHp8XB0IUR9IeEshBBCCCGEEEKUQMJZCCGEEEIIIYQogYSzEEIIIYQQQghRAglnIYQQQgghhBCiBBLOQgghhBBCCCFECSSchRBCCCGEEEKIEkg4CyGEEEIIIYQQJZBwFkIIIYQQQgghSiDhLIQQQgghhBBCdIhz/x+uOY8eFIOb3wAAAABJRU5ErkJggg==;" vertex="1" parent="1">
          <mxGeometry x="-90" y="-190" width="974" height="671" as="geometry" />
        </mxCell>
      </root>
    </mxGraphModel>
  </diagram>
</mxfile>
